Advent Pro-Bold Italic.ufo
<glyph name="exclam" format="1">
  <advance width="388"/>
  <unicode hex="0021"/>
  <outline>
    <contour>
      <point x="165" y="240" type="line"/>
      <point x="350" y="1280" type="line"/>
      <point x="370" y="1373"/>
      <point x="416" y="1416"/>
      <point x="491" y="1416" type="curve"/>
      <point x="571" y="1416"/>
      <point x="601" y="1371"/>
      <point x="582" y="1282" type="curve"/>
      <point x="317" y="240" type="line"/>
    </contour>
    <contour>
      <point x="239" y="210" type="curve"/>
      <point x="305" y="210"/>
      <point x="345" y="157"/>
      <point x="331" y="90" type="curve"/>
      <point x="317" y="23"/>
      <point x="254" y="-30"/>
      <point x="188" y="-30" type="curve"/>
      <point x="124" y="-30"/>
      <point x="81" y="23"/>
      <point x="95" y="90" type="curve"/>
      <point x="109" y="157"/>
      <point x="175" y="210"/>
    </contour>
  </outline>
</glyph>
<glyph name="quotedbl" format="1">
  <advance width="566"/>
  <unicode hex="0022"/>
  <outline>
    <contour>
      <point x="604" y="1174" type="line"/>
      <point x="623" y="1388" type="line"/>
      <point x="647" y="1501"/>
      <point x="825" y="1503"/>
      <point x="801" y="1388" type="curve"/>
      <point x="730" y="1174" type="line"/>
    </contour>
    <contour>
      <point x="334" y="1174" type="line"/>
      <point x="351" y="1388" type="line"/>
      <point x="375" y="1501"/>
      <point x="555" y="1503"/>
      <point x="531" y="1388" type="curve"/>
      <point x="458" y="1174" type="line"/>
    </contour>
  </outline>
</glyph>
<glyph name="numbersign" format="1">
  <advance width="1234"/>
  <unicode hex="0023"/>
  <outline>
    <contour>
      <point x="1107" y="712" type="line"/>
      <point x="1030" y="538" type="line"/>
      <point x="1278" y="538" type="line"/>
      <point x="1235" y="332" type="line"/>
      <point x="939" y="332" type="line"/>
      <point x="790" y="0" type="line"/>
      <point x="564" y="0" type="line"/>
      <point x="711" y="332" type="line"/>
      <point x="475" y="332" type="line"/>
      <point x="328" y="0" type="line"/>
      <point x="116" y="0" type="line"/>
      <point x="267" y="332" type="line"/>
      <point x="137" y="332" type="line"/>
      <point x="180" y="538" type="line"/>
      <point x="358" y="538" type="line"/>
      <point x="437" y="712" type="line"/>
      <point x="217" y="712" type="line"/>
      <point x="265" y="938" type="line"/>
      <point x="539" y="938" type="line"/>
      <point x="743" y="1396" type="line"/>
      <point x="951" y="1396" type="line"/>
      <point x="747" y="938" type="line"/>
      <point x="983" y="938" type="line"/>
      <point x="1189" y="1396" type="line"/>
      <point x="1419" y="1396" type="line"/>
      <point x="1213" y="938" type="line"/>
      <point x="1363" y="938" type="line"/>
      <point x="1315" y="712" type="line"/>
    </contour>
    <contour>
      <point x="566" y="538" type="line"/>
      <point x="804" y="538" type="line"/>
      <point x="883" y="712" type="line"/>
      <point x="645" y="712" type="line"/>
    </contour>
  </outline>
</glyph>
<glyph name="dollar" format="1">
  <advance width="1088"/>
  <unicode hex="0024"/>
  <outline>
    <contour>
      <point x="630" y="-228" type="line"/>
      <point x="410" y="-228" type="line"/>
      <point x="805" y="1632" type="line"/>
      <point x="1025" y="1632" type="line"/>
    </contour>
    <component base="S"/>
  </outline>
</glyph>
<glyph name="percent" format="1">
  <advance width="1456"/>
  <unicode hex="0025"/>
  <outline>
    <contour>
      <point x="298" y="0" type="line"/>
      <point x="70" y="0" type="line"/>
      <point x="1441" y="1396" type="line"/>
      <point x="1675" y="1396" type="line"/>
    </contour>
    <contour>
      <point x="677" y="1426" type="curve"/>
      <point x="835" y="1426"/>
      <point x="939" y="1296"/>
      <point x="905" y="1136" type="curve"/>
      <point x="871" y="975"/>
      <point x="710" y="844"/>
      <point x="553" y="844" type="curve"/>
      <point x="392" y="844"/>
      <point x="289" y="974"/>
      <point x="323" y="1136" type="curve"/>
      <point x="357" y="1296"/>
      <point x="516" y="1426"/>
    </contour>
    <contour>
      <point x="638" y="1240" type="curve"/>
      <point x="578" y="1240"/>
      <point x="522" y="1193"/>
      <point x="509" y="1136" type="curve"/>
      <point x="497" y="1078"/>
      <point x="533" y="1030"/>
      <point x="593" y="1030" type="curve"/>
      <point x="647" y="1030"/>
      <point x="707" y="1078"/>
      <point x="719" y="1136" type="curve"/>
      <point x="732" y="1193"/>
      <point x="692" y="1240"/>
    </contour>
    <contour>
      <point x="1212" y="554" type="curve"/>
      <point x="1372" y="554"/>
      <point x="1474" y="425"/>
      <point x="1440" y="262" type="curve"/>
      <point x="1406" y="102"/>
      <point x="1248" y="-28"/>
      <point x="1088" y="-28" type="curve"/>
      <point x="927" y="-28"/>
      <point x="824" y="102"/>
      <point x="858" y="262" type="curve"/>
      <point x="892" y="425"/>
      <point x="1051" y="554"/>
    </contour>
    <contour>
      <point x="1172" y="368" type="curve"/>
      <point x="1116" y="368"/>
      <point x="1057" y="317"/>
      <point x="1046" y="262" type="curve"/>
      <point x="1034" y="205"/>
      <point x="1071" y="158"/>
      <point x="1128" y="158" type="curve"/>
      <point x="1183" y="158"/>
      <point x="1240" y="205"/>
      <point x="1252" y="262" type="curve"/>
      <point x="1263" y="317"/>
      <point x="1228" y="368"/>
    </contour>
  </outline>
</glyph>
<glyph name="ampersand" format="1">
  <advance width="1058"/>
  <unicode hex="0026"/>
  <outline>
    <contour>
      <point x="1106" y="1400" type="line"/>
      <point x="1016" y="1176" type="line"/>
      <point x="764" y="1176" type="line" smooth="yes"/>
      <point x="692" y="1176"/>
      <point x="618" y="1154"/>
      <point x="593" y="1078" type="curve"/>
      <point x="560" y="968"/>
      <point x="646" y="874"/>
      <point x="725" y="806" type="curve"/>
      <point x="749" y="806" type="line"/>
      <point x="793" y="1012" type="line"/>
      <point x="1013" y="1012" type="line"/>
      <point x="969" y="806" type="line"/>
      <point x="1167" y="806" type="line"/>
      <point x="1080" y="612" type="line"/>
      <point x="938" y="612" type="line"/>
      <point x="866" y="272" type="line" smooth="yes"/>
      <point x="847" y="181"/>
      <point x="895" y="160"/>
      <point x="986" y="160" type="curve"/>
      <point x="883" y="-16" type="line"/>
      <point x="761" y="-13"/>
      <point x="684" y="24"/>
      <point x="648" y="96" type="curve"/>
      <point x="568" y="33"/>
      <point x="466" y="-4"/>
      <point x="383" y="-4" type="curve"/>
      <point x="234" y="-4"/>
      <point x="76" y="67"/>
      <point x="130" y="322" type="curve"/>
      <point x="171" y="512" type="line" smooth="yes"/>
      <point x="214" y="717"/>
      <point x="334" y="806"/>
      <point x="481" y="806" type="curve"/>
      <point x="509" y="806" type="line"/>
      <point x="414" y="872"/>
      <point x="353" y="978"/>
      <point x="382" y="1114" type="curve"/>
      <point x="418" y="1286"/>
      <point x="590" y="1400"/>
      <point x="770" y="1400" type="curve"/>
    </contour>
    <contour>
      <point x="649" y="334" type="curve"/>
      <point x="710" y="620" type="line"/>
      <point x="534" y="620" type="line" smooth="yes"/>
      <point x="470" y="620"/>
      <point x="406" y="592"/>
      <point x="390" y="516" type="curve"/>
      <point x="350" y="328" type="line" smooth="yes"/>
      <point x="334" y="253"/>
      <point x="374" y="196"/>
      <point x="460" y="196" type="curve"/>
      <point x="539" y="196"/>
      <point x="615" y="250"/>
    </contour>
  </outline>
</glyph>
<glyph name="quotesingle" format="1">
  <advance width="296"/>
  <unicode hex="0027"/>
  <outline>
    <contour>
      <point x="334" y="1174" type="line"/>
      <point x="351" y="1388" type="line"/>
      <point x="375" y="1501"/>
      <point x="555" y="1503"/>
      <point x="531" y="1388" type="curve"/>
      <point x="458" y="1174" type="line"/>
    </contour>
  </outline>
</glyph>
<glyph name="parenleft" format="1">
  <advance width="480"/>
  <unicode hex="0028"/>
  <outline>
    <contour>
      <point x="665" y="1632" type="curve"/>
      <point x="738" y="1458" type="line"/>
      <point x="739" y="1457"/>
      <point x="595" y="1403"/>
      <point x="556" y="1212" type="curve"/>
      <point x="435" y="644"/>
      <point x="376" y="369"/>
      <point x="342" y="206" type="curve"/>
      <point x="295" y="-2"/>
      <point x="417" y="-70"/>
      <point x="415" y="-70" type="curve"/>
      <point x="271" y="-232" type="line"/>
      <point x="97" y="-120"/>
      <point x="86" y="26"/>
      <point x="120" y="188" type="curve"/>
      <point x="337" y="1208" type="line" smooth="yes"/>
      <point x="370" y="1366"/>
      <point x="461" y="1529"/>
    </contour>
  </outline>
</glyph>
<glyph name="parenright" format="1">
  <advance width="484"/>
  <unicode hex="0029"/>
  <outline>
    <contour>
      <point x="364" y="1458" type="curve"/>
      <point x="511" y="1632" type="line"/>
      <point x="673" y="1528"/>
      <point x="692" y="1366"/>
      <point x="659" y="1208" type="curve"/>
      <point x="442" y="188" type="line" smooth="yes"/>
      <point x="408" y="26"/>
      <point x="334" y="-120"/>
      <point x="113" y="-232" type="curve"/>
      <point x="37" y="-70" type="line"/>
      <point x="35" y="-70"/>
      <point x="186" y="-2"/>
      <point x="228" y="206" type="curve"/>
      <point x="262" y="369"/>
      <point x="321" y="644"/>
      <point x="442" y="1212" type="curve"/>
      <point x="483" y="1403"/>
      <point x="363" y="1457"/>
    </contour>
  </outline>
</glyph>
<glyph name="asterisk" format="1">
  <advance width="762"/>
  <unicode hex="002A"/>
  <outline>
    <contour>
      <point x="286" y="1100" type="line"/>
      <point x="408" y="1306" type="line"/>
      <point x="573" y="1172" type="line"/>
      <point x="555" y="1396" type="line"/>
      <point x="795" y="1396" type="line"/>
      <point x="679" y="1172" type="line"/>
      <point x="894" y="1308" type="line"/>
      <point x="939" y="1098" type="line"/>
      <point x="693" y="1078" type="line"/>
      <point x="853" y="928" type="line"/>
      <point x="620" y="792" type="line"/>
      <point x="595" y="1028" type="line"/>
      <point x="468" y="792" type="line"/>
      <point x="302" y="932" type="line"/>
      <point x="516" y="1080" type="line"/>
    </contour>
  </outline>
</glyph>
<glyph name="plus" format="1">
  <advance width="762"/>
  <unicode hex="002B"/>
  <outline>
    <contour>
      <point x="491" y="1058" type="line"/>
      <point x="713" y="1058" type="line"/>
      <point x="666" y="838" type="line"/>
      <point x="876" y="838" type="line"/>
      <point x="831" y="626" type="line"/>
      <point x="621" y="626" type="line"/>
      <point x="577" y="420" type="line"/>
      <point x="355" y="420" type="line"/>
      <point x="399" y="626" type="line"/>
      <point x="191" y="626" type="line"/>
      <point x="236" y="838" type="line"/>
      <point x="444" y="838" type="line"/>
    </contour>
  </outline>
</glyph>
<glyph name="comma" format="1">
  <advance width="374"/>
  <unicode hex="002C"/>
  <outline>
    <contour>
      <point x="135" y="-166" type="curve"/>
      <point x="94" y="-132" type="line"/>
      <point x="123" y="-95"/>
      <point x="138" y="-56"/>
      <point x="155" y="-16" type="curve"/>
      <point x="104" y="-3"/>
      <point x="77" y="44"/>
      <point x="89" y="100" type="curve"/>
      <point x="103" y="164"/>
      <point x="168" y="218"/>
      <point x="234" y="218" type="curve"/>
      <point x="298" y="218"/>
      <point x="339" y="164"/>
      <point x="325" y="100" type="curve"/>
      <point x="290" y="-81"/>
      <point x="131" y="-166"/>
    </contour>
  </outline>
</glyph>
<glyph name="hyphen" format="1">
  <advance width="786"/>
  <unicode hex="002D"/>
  <outline>
    <contour>
      <point x="838" y="612" type="line"/>
      <point x="200" y="612" type="line"/>
      <point x="246" y="826" type="line"/>
      <point x="884" y="826" type="line"/>
    </contour>
  </outline>
</glyph>
<glyph name="period" format="1">
  <advance width="378"/>
  <unicode hex="002E"/>
  <outline>
    <contour>
      <point x="232" y="206" type="curve"/>
      <point x="298" y="206"/>
      <point x="342" y="153"/>
      <point x="328" y="86" type="curve"/>
      <point x="314" y="19"/>
      <point x="247" y="-34"/>
      <point x="181" y="-34" type="curve"/>
      <point x="114" y="-34"/>
      <point x="74" y="19"/>
      <point x="88" y="86" type="curve"/>
      <point x="102" y="153"/>
      <point x="165" y="206"/>
    </contour>
  </outline>
</glyph>
<glyph name="one" format="1">
  <advance width="570"/>
  <unicode hex="0031"/>
  <outline>
    <contour>
      <point x="328" y="1062" type="curve"/>
      <point x="303" y="1254" type="line"/>
      <point x="298" y="1255"/>
      <point x="466" y="1287"/>
      <point x="561" y="1396" type="curve"/>
      <point x="781" y="1396" type="line"/>
      <point x="484" y="0" type="line"/>
      <point x="262" y="0" type="line"/>
      <point x="501" y="1114" type="line"/>
      <point x="453" y="1082"/>
      <point x="323" y="1061"/>
    </contour>
  </outline>
</glyph>
<glyph name="two" format="1">
  <advance width="882"/>
  <unicode hex="0032"/>
  <outline>
    <contour>
      <point x="508" y="1082" type="curve"/>
      <point x="346" y="1176" type="line"/>
      <point x="434" y="1325"/>
      <point x="591" y="1416"/>
      <point x="751" y="1416" type="curve"/>
      <point x="930" y="1416"/>
      <point x="1081" y="1301"/>
      <point x="1033" y="1076" type="curve"/>
      <point x="1007" y="953"/>
      <point x="935" y="856"/>
      <point x="836" y="744" type="curve"/>
      <point x="716" y="605"/>
      <point x="600" y="474"/>
      <point x="361" y="200" type="curve"/>
      <point x="853" y="200" type="line"/>
      <point x="810" y="0" type="line"/>
      <point x="64" y="0" type="line"/>
      <point x="107" y="202" type="line"/>
      <point x="297" y="418"/>
      <point x="485" y="633"/>
      <point x="681" y="844" type="curve"/>
      <point x="780" y="962"/>
      <point x="801" y="1000"/>
      <point x="813" y="1058" type="curve"/>
      <point x="833" y="1154"/>
      <point x="774" y="1198"/>
      <point x="703" y="1202" type="curve"/>
      <point x="629" y="1202"/>
      <point x="554" y="1159"/>
    </contour>
  </outline>
</glyph>
<glyph name="three" format="1">
  <advance width="898"/>
  <unicode hex="0033"/>
  <outline>
    <contour>
      <point x="664" y="826" type="line"/>
      <point x="669" y="822" type="line"/>
      <point x="756" y="806"/>
      <point x="826" y="757"/>
      <point x="877" y="682" type="curve"/>
      <point x="931" y="603"/>
      <point x="946" y="510"/>
      <point x="923" y="402" type="curve"/>
      <point x="898" y="282"/>
      <point x="834" y="181"/>
      <point x="731" y="100" type="curve"/>
      <point x="631" y="17"/>
      <point x="522" y="-24"/>
      <point x="405" y="-24" type="curve"/>
      <point x="264" y="-24"/>
      <point x="148" y="49"/>
      <point x="93" y="164" type="curve"/>
      <point x="262" y="322" type="line"/>
      <point x="283" y="245"/>
      <point x="358" y="190"/>
      <point x="446" y="190" type="curve"/>
      <point x="513" y="190"/>
      <point x="571" y="213"/>
      <point x="613" y="248" type="curve"/>
      <point x="659" y="288"/>
      <point x="688" y="341"/>
      <point x="701" y="402" type="curve"/>
      <point x="718" y="479"/>
      <point x="699" y="533"/>
      <point x="643" y="568" type="curve"/>
      <point x="603" y="595"/>
      <point x="541" y="612"/>
      <point x="456" y="612" type="curve"/>
      <point x="238" y="612" type="line"/>
      <point x="732" y="1176" type="line"/>
      <point x="396" y="1176" type="line"/>
      <point x="443" y="1396" type="line"/>
      <point x="1023" y="1396" type="line"/>
      <point x="976" y="1176" type="line"/>
    </contour>
  </outline>
</glyph>
<glyph name="four" format="1">
  <advance width="1080"/>
  <unicode hex="0034"/>
  <outline>
    <contour>
      <point x="886" y="0" type="line"/>
      <point x="666" y="0" type="line"/>
      <point x="796" y="612" type="line"/>
      <point x="168" y="612" type="line"/>
      <point x="721" y="1396" type="line"/>
      <point x="945" y="1396" type="line"/>
      <point x="570" y="826" type="line"/>
      <point x="842" y="826" type="line"/>
      <point x="963" y="1396" type="line"/>
      <point x="1183" y="1396" type="line"/>
      <point x="1062" y="826" type="line"/>
      <point x="1200" y="826" type="line"/>
      <point x="1116" y="612" type="line"/>
      <point x="1016" y="612" type="line"/>
    </contour>
  </outline>
</glyph>
<glyph name="five" format="1">
  <advance width="888"/>
  <unicode hex="0035"/>
  <outline>
    <contour>
      <point x="638" y="1176" type="line"/>
      <point x="545" y="822" type="line"/>
      <point x="565" y="822" type="line"/>
      <point x="863" y="814"/>
      <point x="960" y="623"/>
      <point x="913" y="398" type="curve"/>
      <point x="874" y="215"/>
      <point x="679" y="-24"/>
      <point x="399" y="-24" type="curve"/>
      <point x="197" y="-27"/>
      <point x="57" y="87"/>
      <point x="58" y="84" type="curve"/>
      <point x="178" y="274" type="line"/>
      <point x="178" y="277"/>
      <point x="269" y="191"/>
      <point x="441" y="194" type="curve"/>
      <point x="577" y="194"/>
      <point x="672" y="291"/>
      <point x="697" y="408" type="curve"/>
      <point x="729" y="561"/>
      <point x="642" y="620"/>
      <point x="470" y="620" type="curve"/>
      <point x="270" y="620" type="line"/>
      <point x="481" y="1396" type="line"/>
      <point x="1013" y="1396" type="line"/>
      <point x="966" y="1176" type="line"/>
    </contour>
  </outline>
</glyph>
<glyph name="six" format="1">
  <advance width="972"/>
  <unicode hex="0036"/>
  <outline>
    <contour>
      <point x="878" y="1196" type="line"/>
      <point x="800" y="1196" type="line"/>
      <point x="614" y="1196"/>
      <point x="506" y="1042"/>
      <point x="470" y="874" type="curve"/>
      <point x="447" y="768" type="line"/>
      <point x="490" y="800"/>
      <point x="596" y="826"/>
      <point x="656" y="826" type="curve"/>
      <point x="902" y="826"/>
      <point x="1054" y="652"/>
      <point x="1003" y="408" type="curve"/>
      <point x="952" y="174"/>
      <point x="730" y="-20"/>
      <point x="488" y="-20" type="curve"/>
      <point x="244" y="-20"/>
      <point x="106" y="174"/>
      <point x="155" y="408" type="curve"/>
      <point x="264" y="920" type="line" smooth="yes"/>
      <point x="326" y="1212"/>
      <point x="550" y="1396"/>
      <point x="853" y="1396" type="curve"/>
      <point x="921" y="1396" type="line"/>
    </contour>
    <contour>
      <point x="622" y="610" type="curve"/>
      <point x="511" y="610"/>
      <point x="394" y="516"/>
      <point x="370" y="404" type="curve"/>
      <point x="346" y="290"/>
      <point x="423" y="196"/>
      <point x="534" y="196" type="curve"/>
      <point x="647" y="196"/>
      <point x="760" y="291"/>
      <point x="784" y="404" type="curve"/>
      <point x="808" y="516"/>
      <point x="736" y="610"/>
    </contour>
  </outline>
</glyph>
<glyph name="eight" format="1">
  <advance width="972"/>
  <unicode hex="0038"/>
  <outline>
    <contour>
      <point x="787" y="1416" type="curve"/>
      <point x="884" y="1416"/>
      <point x="960" y="1381"/>
      <point x="1013" y="1312" type="curve"/>
      <point x="1067" y="1243"/>
      <point x="1085" y="1163"/>
      <point x="1064" y="1064" type="curve"/>
      <point x="1050" y="997"/>
      <point x="1022" y="937"/>
      <point x="980" y="884" type="curve"/>
      <point x="944" y="841"/>
      <point x="901" y="805"/>
      <point x="849" y="776" type="curve"/>
      <point x="882" y="755"/>
      <point x="912" y="729"/>
      <point x="933" y="700" type="curve"/>
      <point x="996" y="623"/>
      <point x="1020" y="517"/>
      <point x="995" y="402" type="curve"/>
      <point x="971" y="285"/>
      <point x="906" y="183"/>
      <point x="803" y="100" type="curve"/>
      <point x="703" y="17"/>
      <point x="595" y="-24"/>
      <point x="479" y="-24" type="curve"/>
      <point x="362" y="-24"/>
      <point x="270" y="17"/>
      <point x="205" y="100" type="curve"/>
      <point x="140" y="183"/>
      <point x="119" y="285"/>
      <point x="143" y="402" type="curve"/>
      <point x="165" y="503"/>
      <point x="221" y="593"/>
      <point x="296" y="668" type="curve"/>
      <point x="340" y="713"/>
      <point x="392" y="751"/>
      <point x="451" y="778" type="curve"/>
      <point x="413" y="809"/>
      <point x="386" y="844"/>
      <point x="372" y="884" type="curve"/>
      <point x="349" y="937"/>
      <point x="350" y="997"/>
      <point x="364" y="1064" type="curve"/>
      <point x="385" y="1161"/>
      <point x="436" y="1244"/>
      <point x="517" y="1312" type="curve"/>
      <point x="597" y="1381"/>
      <point x="687" y="1416"/>
    </contour>
    <contour>
      <point x="682" y="932" type="curve"/>
      <point x="719" y="932"/>
      <point x="761" y="953"/>
      <point x="790" y="980" type="curve"/>
      <point x="816" y="1001"/>
      <point x="838" y="1034"/>
      <point x="845" y="1066" type="curve"/>
      <point x="861" y="1142"/>
      <point x="814" y="1198"/>
      <point x="739" y="1198" type="curve"/>
      <point x="666" y="1198"/>
      <point x="593" y="1142"/>
      <point x="577" y="1066" type="curve"/>
      <point x="570" y="1034"/>
      <point x="575" y="1005"/>
      <point x="592" y="980" type="curve"/>
      <point x="608" y="953"/>
      <point x="642" y="932"/>
    </contour>
    <contour>
      <point x="525" y="192" type="curve"/>
      <point x="640" y="192"/>
      <point x="753" y="286"/>
      <point x="777" y="402" type="curve"/>
      <point x="792" y="469"/>
      <point x="775" y="527"/>
      <point x="738" y="564" type="curve"/>
      <point x="707" y="593"/>
      <point x="667" y="612"/>
      <point x="614" y="612" type="curve"/>
      <point x="555" y="612"/>
      <point x="490" y="587"/>
      <point x="444" y="544" type="curve"/>
      <point x="404" y="507"/>
      <point x="371" y="455"/>
      <point x="359" y="402" type="curve"/>
      <point x="335" y="285"/>
      <point x="408" y="192"/>
    </contour>
  </outline>
</glyph>
<glyph name="nine" format="1">
  <advance width="968"/>
  <unicode hex="0039"/>
  <outline>
    <contour>
      <point x="777" y="1416" type="curve"/>
      <point x="893" y="1416"/>
      <point x="984" y="1375"/>
      <point x="1051" y="1294" type="curve"/>
      <point x="1115" y="1210"/>
      <point x="1134" y="1109"/>
      <point x="1109" y="992" type="curve"/>
      <point x="999" y="476" type="line" smooth="yes"/>
      <point x="977" y="369"/>
      <point x="927" y="268"/>
      <point x="833" y="164" type="curve"/>
      <point x="740" y="68"/>
      <point x="590" y="-2"/>
      <point x="412" y="-2" type="curve"/>
      <point x="342" y="-2" type="line"/>
      <point x="385" y="200" type="line"/>
      <point x="463" y="200" type="line" smooth="yes"/>
      <point x="545" y="200"/>
      <point x="615" y="232"/>
      <point x="668" y="280" type="curve"/>
      <point x="728" y="339"/>
      <point x="770" y="423"/>
      <point x="791" y="524" type="curve"/>
      <point x="814" y="630" type="line"/>
      <point x="814" y="633"/>
      <point x="733" y="570"/>
      <point x="598" y="572" type="curve"/>
      <point x="483" y="572"/>
      <point x="386" y="610"/>
      <point x="321" y="690" type="curve"/>
      <point x="257" y="775"/>
      <point x="238" y="876"/>
      <point x="263" y="992" type="curve"/>
      <point x="288" y="1109"/>
      <point x="350" y="1210"/>
      <point x="449" y="1294" type="curve"/>
      <point x="552" y="1375"/>
      <point x="661" y="1416"/>
    </contour>
    <contour>
      <point x="731" y="1198" type="curve"/>
      <point x="617" y="1198"/>
      <point x="504" y="1109"/>
      <point x="479" y="994" type="curve"/>
      <point x="455" y="882"/>
      <point x="530" y="788"/>
      <point x="643" y="788" type="curve"/>
      <point x="759" y="788"/>
      <point x="867" y="882"/>
      <point x="891" y="994" type="curve"/>
      <point x="916" y="1109"/>
      <point x="846" y="1198"/>
    </contour>
  </outline>
</glyph>
<glyph name="colon" format="1">
  <advance width="392"/>
  <unicode hex="003A"/>
  <outline>
    <contour>
      <point x="375" y="286" type="curve"/>
      <point x="361" y="219"/>
      <point x="294" y="168"/>
      <point x="228" y="168" type="curve"/>
      <point x="161" y="168"/>
      <point x="123" y="219"/>
      <point x="137" y="286" type="curve"/>
      <point x="151" y="353"/>
      <point x="212" y="408"/>
      <point x="279" y="408" type="curve"/>
      <point x="345" y="408"/>
      <point x="389" y="353"/>
    </contour>
    <contour>
      <point x="478" y="770" type="curve"/>
      <point x="463" y="703"/>
      <point x="396" y="648"/>
      <point x="330" y="648" type="curve"/>
      <point x="263" y="648"/>
      <point x="225" y="703"/>
      <point x="240" y="770" type="curve"/>
      <point x="253" y="834"/>
      <point x="314" y="888"/>
      <point x="381" y="888" type="curve"/>
      <point x="447" y="888"/>
      <point x="491" y="834"/>
    </contour>
  </outline>
</glyph>
<glyph name="semicolon" format="1">
  <advance width="390"/>
  <unicode hex="003B"/>
  <outline>
    <contour>
      <point x="181" y="22" type="curve"/>
      <point x="138" y="56" type="line"/>
      <point x="167" y="91"/>
      <point x="187" y="133"/>
      <point x="200" y="170" type="curve"/>
      <point x="150" y="183"/>
      <point x="123" y="233"/>
      <point x="135" y="286" type="curve"/>
      <point x="149" y="353"/>
      <point x="211" y="404"/>
      <point x="278" y="404" type="curve"/>
      <point x="342" y="404"/>
      <point x="385" y="353"/>
      <point x="371" y="286" type="curve"/>
      <point x="335" y="104"/>
      <point x="178" y="23"/>
    </contour>
    <contour>
      <point x="478" y="770" type="curve"/>
      <point x="463" y="703"/>
      <point x="396" y="648"/>
      <point x="330" y="648" type="curve"/>
      <point x="263" y="648"/>
      <point x="225" y="703"/>
      <point x="240" y="770" type="curve"/>
      <point x="253" y="834"/>
      <point x="314" y="888"/>
      <point x="381" y="888" type="curve"/>
      <point x="447" y="888"/>
      <point x="491" y="834"/>
    </contour>
  </outline>
</glyph>
<glyph name="less" format="1">
  <advance width="822"/>
  <unicode hex="003C"/>
  <outline>
    <contour>
      <point x="642" y="160" type="line"/>
      <point x="204" y="716" type="line"/>
      <point x="878" y="1272" type="line"/>
      <point x="996" y="1130" type="line"/>
      <point x="484" y="716" type="line"/>
      <point x="812" y="292" type="line"/>
    </contour>
  </outline>
</glyph>
<glyph name="equal" format="1">
  <advance width="788"/>
  <unicode hex="003D"/>
  <outline>
    <contour>
      <point x="863" y="712" type="line"/>
      <point x="223" y="712" type="line"/>
      <point x="268" y="922" type="line"/>
      <point x="908" y="922" type="line"/>
    </contour>
    <contour>
      <point x="799" y="408" type="line"/>
      <point x="159" y="408" type="line"/>
      <point x="203" y="618" type="line"/>
      <point x="843" y="618" type="line"/>
    </contour>
  </outline>
</glyph>
<glyph name="greater" format="1">
  <advance width="828"/>
  <unicode hex="003E"/>
  <outline>
    <contour>
      <point x="638" y="716" type="line"/>
      <point x="304" y="1130" type="line"/>
      <point x="480" y="1272" type="line"/>
      <point x="920" y="716" type="line"/>
      <point x="244" y="160" type="line"/>
      <point x="130" y="292" type="line"/>
    </contour>
  </outline>
</glyph>
<glyph name="question" format="1">
  <advance width="852"/>
  <unicode hex="003F"/>
  <outline>
    <contour>
      <point x="504" y="1062" type="curve"/>
      <point x="278" y="1062" type="line"/>
      <point x="329" y="1305"/>
      <point x="537" y="1416"/>
      <point x="713" y="1416" type="curve"/>
      <point x="920" y="1416"/>
      <point x="1062" y="1270"/>
      <point x="1013" y="1042" type="curve"/>
      <point x="986" y="911"/>
      <point x="897" y="826"/>
      <point x="791" y="730" type="curve"/>
      <point x="660" y="613"/>
      <point x="618" y="564"/>
      <point x="585" y="420" type="curve"/>
      <point x="547" y="238" type="line"/>
      <point x="329" y="238" type="line"/>
      <point x="368" y="424" type="line" smooth="yes"/>
      <point x="404" y="594"/>
      <point x="506" y="710"/>
      <point x="600" y="800" type="curve"/>
      <point x="690" y="888"/>
      <point x="774" y="961"/>
      <point x="793" y="1050" type="curve"/>
      <point x="810" y="1131"/>
      <point x="766" y="1206"/>
      <point x="670" y="1206" type="curve"/>
      <point x="600" y="1206"/>
      <point x="524" y="1160"/>
    </contour>
    <contour>
      <point x="432" y="206" type="curve"/>
      <point x="498" y="206"/>
      <point x="538" y="153"/>
      <point x="524" y="86" type="curve"/>
      <point x="510" y="19"/>
      <point x="447" y="-34"/>
      <point x="381" y="-34" type="curve"/>
      <point x="314" y="-34"/>
      <point x="272" y="19"/>
      <point x="286" y="86" type="curve"/>
      <point x="300" y="153"/>
      <point x="365" y="206"/>
    </contour>
  </outline>
</glyph>
<glyph name="at" format="1">
  <advance width="1634"/>
  <unicode hex="0040"/>
  <outline>
    <contour>
      <point x="1720" y="968" type="curve"/>
      <point x="1752" y="830" type="line"/>
      <point x="1662" y="789"/>
      <point x="1646" y="745"/>
      <point x="1630" y="670" type="curve"/>
      <point x="1564" y="356" type="line" smooth="yes"/>
      <point x="1504" y="77"/>
      <point x="1265" y="-188"/>
      <point x="748" y="-188" type="curve"/>
      <point x="325" y="-188"/>
      <point x="65" y="-4"/>
      <point x="144" y="368" type="curve"/>
      <point x="203" y="646" type="line" smooth="yes"/>
      <point x="288" y="1044"/>
      <point x="524" y="1208"/>
      <point x="877" y="1208" type="curve"/>
      <point x="1158" y="1208"/>
      <point x="1355" y="1154"/>
      <point x="1298" y="886" type="curve"/>
      <point x="1392" y="886" type="line"/>
      <point x="1344" y="690" type="line"/>
      <point x="1263" y="690" type="line"/>
      <point x="1146" y="140" type="line"/>
      <point x="1148" y="139"/>
      <point x="902" y="122"/>
      <point x="746" y="122" type="curve"/>
      <point x="500" y="122"/>
      <point x="458" y="284"/>
      <point x="497" y="468" type="curve"/>
      <point x="519" y="570" type="line" smooth="yes"/>
      <point x="570" y="804"/>
      <point x="707" y="886"/>
      <point x="864" y="886" type="curve"/>
      <point x="1086" y="886" type="line"/>
      <point x="1109" y="993"/>
      <point x="1013" y="1008"/>
      <point x="842" y="1008" type="curve"/>
      <point x="548" y="1008"/>
      <point x="460" y="884"/>
      <point x="412" y="660" type="curve"/>
      <point x="368" y="452" type="line" smooth="yes"/>
      <point x="302" y="141"/>
      <point x="420" y="10"/>
      <point x="798" y="10" type="curve"/>
      <point x="1126" y="10"/>
      <point x="1311" y="116"/>
      <point x="1355" y="324" type="curve"/>
      <point x="1434" y="696" type="line" smooth="yes"/>
      <point x="1462" y="830"/>
      <point x="1524" y="932"/>
    </contour>
    <contour>
      <point x="1051" y="690" type="line"/>
      <point x="879" y="690" type="line"/>
      <point x="834" y="690"/>
      <point x="759" y="663"/>
      <point x="738" y="564" type="curve"/>
      <point x="717" y="466" type="line" smooth="yes"/>
      <point x="689" y="335"/>
      <point x="732" y="306"/>
      <point x="823" y="306" type="curve"/>
      <point x="870" y="306"/>
      <point x="915" y="307"/>
      <point x="970" y="312" type="curve"/>
    </contour>
  </outline>
</glyph>
<glyph name="A" format="1">
  <advance width="1086"/>
  <unicode hex="0041"/>
  <outline>
    <contour>
      <point x="993" y="1396" type="line"/>
      <point x="1040" y="0" type="line"/>
      <point x="778" y="0" type="line"/>
      <point x="776" y="366" type="line"/>
      <point x="454" y="366" type="line"/>
      <point x="296" y="0" type="line"/>
      <point x="48" y="0" type="line"/>
      <point x="683" y="1396" type="line"/>
    </contour>
    <contour>
      <point x="774" y="1110" type="line"/>
      <point x="558" y="600" type="line"/>
      <point x="776" y="600" type="line"/>
    </contour>
  </outline>
</glyph>
<glyph name="B" format="1">
  <advance width="1010"/>
  <unicode hex="0042"/>
  <outline>
    <contour>
      <point x="379" y="1396" type="line"/>
      <point x="746" y="1396" type="line"/>
      <point x="1006" y="1396"/>
      <point x="1142" y="1249"/>
      <point x="1094" y="1025" type="curve"/>
      <point x="1068" y="903"/>
      <point x="1006" y="829"/>
      <point x="905" y="768" type="curve"/>
      <point x="904" y="762" type="line"/>
      <point x="1010" y="709"/>
      <point x="1074" y="591"/>
      <point x="1035" y="410" type="curve"/>
      <point x="982" y="162"/>
      <point x="797" y="0"/>
      <point x="520" y="0" type="curve"/>
      <point x="82" y="0" type="line"/>
    </contour>
    <contour>
      <point x="478" y="826" type="line"/>
      <point x="574" y="826" type="line"/>
      <point x="730" y="826"/>
      <point x="805" y="872"/>
      <point x="835" y="1010" type="curve"/>
      <point x="861" y="1135"/>
      <point x="804" y="1176"/>
      <point x="668" y="1176" type="curve"/>
      <point x="552" y="1176" type="line"/>
    </contour>
    <contour>
      <point x="345" y="202" type="line"/>
      <point x="505" y="202" type="line"/>
      <point x="602" y="202"/>
      <point x="747" y="241"/>
      <point x="784" y="414" type="curve"/>
      <point x="812" y="547"/>
      <point x="743" y="614"/>
      <point x="573" y="614" type="curve"/>
      <point x="433" y="614" type="line"/>
    </contour>
  </outline>
</glyph>
<glyph name="C" format="1">
  <advance width="852"/>
  <unicode hex="0043"/>
  <outline>
    <contour>
      <point x="1031" y="1350" type="curve"/>
      <point x="931" y="1164" type="line"/>
      <point x="883" y="1185"/>
      <point x="812" y="1198"/>
      <point x="751" y="1198" type="curve"/>
      <point x="620" y="1198"/>
      <point x="536" y="1149"/>
      <point x="510" y="1024" type="curve"/>
      <point x="371" y="370" type="line" smooth="yes"/>
      <point x="344" y="247"/>
      <point x="402" y="200"/>
      <point x="521" y="200" type="curve"/>
      <point x="641" y="200"/>
      <point x="793" y="254"/>
      <point x="814" y="254" type="curve"/>
      <point x="802" y="46" type="line"/>
      <point x="676" y="1"/>
      <point x="563" y="-23"/>
      <point x="461" y="-24" type="curve"/>
      <point x="354" y="-24"/>
      <point x="260" y="5"/>
      <point x="204" y="64" type="curve"/>
      <point x="145" y="128"/>
      <point x="120" y="227"/>
      <point x="150" y="366" type="curve"/>
      <point x="288" y="1018" type="line" smooth="yes"/>
      <point x="344" y="1280"/>
      <point x="538" y="1420"/>
      <point x="758" y="1420" type="curve"/>
      <point x="854" y="1420"/>
      <point x="945" y="1397"/>
    </contour>
  </outline>
</glyph>
<glyph name="D" format="1">
  <advance width="994"/>
  <unicode hex="0044"/>
  <outline>
    <contour>
      <point x="380" y="1400" type="line"/>
      <point x="756" y="1400" type="line"/>
      <point x="1046" y="1400"/>
      <point x="1183" y="1230"/>
      <point x="1123" y="946" type="curve"/>
      <point x="1010" y="412" type="line" smooth="yes"/>
      <point x="953" y="148"/>
      <point x="781" y="0"/>
      <point x="498" y="0" type="curve"/>
      <point x="82" y="0" type="line"/>
    </contour>
    <contour>
      <point x="345" y="202" type="line"/>
      <point x="511" y="202" type="line"/>
      <point x="735" y="202"/>
      <point x="768" y="313"/>
      <point x="785" y="392" type="curve"/>
      <point x="907" y="966" type="line" smooth="yes"/>
      <point x="938" y="1109"/>
      <point x="881" y="1176"/>
      <point x="728" y="1176" type="curve"/>
      <point x="552" y="1176" type="line"/>
    </contour>
  </outline>
</glyph>
<glyph name="E" format="1">
  <advance width="820"/>
  <unicode hex="0045"/>
  <outline>
    <contour>
      <point x="746" y="0" type="line"/>
      <point x="82" y="0" type="line"/>
      <point x="379" y="1396" type="line"/>
      <point x="1047" y="1396" type="line"/>
      <point x="1000" y="1176" type="line"/>
      <point x="552" y="1176" type="line"/>
      <point x="478" y="826" type="line"/>
      <point x="752" y="826" type="line"/>
      <point x="662" y="616" type="line"/>
      <point x="433" y="616" type="line"/>
      <point x="345" y="200" type="line"/>
      <point x="789" y="200" type="line"/>
    </contour>
  </outline>
</glyph>
<glyph name="G" format="1">
  <advance width="960"/>
  <unicode hex="0047"/>
  <outline>
    <contour>
      <point x="1031" y="1350" type="curve"/>
      <point x="941" y="1176" type="line"/>
      <point x="881" y="1197"/>
      <point x="823" y="1212"/>
      <point x="767" y="1212" type="curve"/>
      <point x="632" y="1212"/>
      <point x="537" y="1164"/>
      <point x="506" y="1012" type="curve"/>
      <point x="372" y="374" type="line" smooth="yes"/>
      <point x="345" y="246"/>
      <point x="381" y="184"/>
      <point x="512" y="184" type="curve"/>
      <point x="627" y="184"/>
      <point x="728" y="256"/>
      <point x="753" y="372" type="curve"/>
      <point x="757" y="390" type="line"/>
      <point x="643" y="390" type="line"/>
      <point x="618" y="600" type="line"/>
      <point x="1022" y="600" type="line"/>
      <point x="894" y="0" type="line"/>
      <point x="742" y="0" type="line"/>
      <point x="744" y="56" type="line"/>
      <point x="663" y="0"/>
      <point x="538" y="-18"/>
      <point x="490" y="-20" type="curve"/>
      <point x="260" y="-26"/>
      <point x="95" y="108"/>
      <point x="152" y="378" type="curve"/>
      <point x="285" y="1004" type="line" smooth="yes"/>
      <point x="345" y="1284"/>
      <point x="521" y="1416"/>
      <point x="785" y="1416" type="curve"/>
      <point x="879" y="1416"/>
      <point x="961" y="1390"/>
    </contour>
  </outline>
</glyph>
<glyph name="I" format="1">
  <advance width="478"/>
  <unicode hex="0049"/>
  <outline>
    <contour>
      <point x="423" y="1182" type="line"/>
      <point x="298" y="1186" type="line"/>
      <point x="343" y="1396" type="line"/>
      <point x="689" y="1396" type="line"/>
      <point x="392" y="0" type="line"/>
      <point x="172" y="0" type="line"/>
    </contour>
  </outline>
</glyph>
<glyph name="J" format="1">
  <advance width="562"/>
  <unicode hex="004A"/>
  <outline>
    <contour>
      <point x="777" y="1396" type="line"/>
      <point x="539" y="278" type="line"/>
      <point x="492" y="56"/>
      <point x="332" y="-66"/>
      <point x="110" y="-74" type="curve"/>
      <point x="78" y="114" type="line"/>
      <point x="220" y="114"/>
      <point x="305" y="181"/>
      <point x="332" y="312" type="curve"/>
      <point x="517" y="1182" type="line"/>
      <point x="396" y="1186" type="line"/>
      <point x="441" y="1396" type="line"/>
    </contour>
  </outline>
</glyph>
<glyph name="K" format="1">
  <advance width="1028"/>
  <unicode hex="004B"/>
  <outline>
    <contour>
      <point x="616" y="1400" type="line"/>
      <point x="511" y="906" type="line"/>
      <point x="938" y="1400" type="line"/>
      <point x="1202" y="1400" type="line"/>
      <point x="679" y="816" type="line"/>
      <point x="984" y="0" type="line"/>
      <point x="708" y="0" type="line"/>
      <point x="503" y="616" type="line"/>
      <point x="430" y="528" type="line"/>
      <point x="318" y="0" type="line"/>
      <point x="82" y="0" type="line"/>
      <point x="380" y="1400" type="line"/>
    </contour>
  </outline>
</glyph>
<glyph name="L" format="1">
  <advance width="856"/>
  <unicode hex="004C"/>
  <outline>
    <contour>
      <point x="804" y="0" type="line"/>
      <point x="82" y="0" type="line"/>
      <point x="379" y="1396" type="line"/>
      <point x="599" y="1396" type="line"/>
      <point x="345" y="202" type="line"/>
      <point x="847" y="202" type="line"/>
    </contour>
  </outline>
</glyph>
<glyph name="O" format="1">
  <advance width="986"/>
  <unicode hex="004F"/>
  <outline>
    <contour>
      <point x="151" y="370" type="curve"/>
      <point x="287" y="1012" type="line"/>
      <point x="345" y="1284"/>
      <point x="536" y="1430"/>
      <point x="800" y="1430" type="curve"/>
      <point x="1064" y="1430"/>
      <point x="1182" y="1271"/>
      <point x="1127" y="1010" type="curve"/>
      <point x="991" y="370" type="line" smooth="yes"/>
      <point x="939" y="126"/>
      <point x="741" y="-22"/>
      <point x="489" y="-22" type="curve"/>
      <point x="253" y="-22"/>
      <point x="96" y="112"/>
    </contour>
    <contour>
      <point x="492" y="940" type="curve"/>
      <point x="379" y="408" type="line"/>
      <point x="352" y="281"/>
      <point x="402" y="202"/>
      <point x="535" y="202" type="curve"/>
      <point x="661" y="202"/>
      <point x="753" y="286"/>
      <point x="780" y="412" type="curve"/>
      <point x="891" y="938" type="line" smooth="yes"/>
      <point x="928" y="1109"/>
      <point x="901" y="1196"/>
      <point x="746" y="1196" type="curve"/>
      <point x="608" y="1196"/>
      <point x="529" y="1113"/>
    </contour>
  </outline>
</glyph>
<glyph name="P" format="1">
  <advance width="1014"/>
  <unicode hex="0050"/>
  <outline>
    <contour>
      <point x="379" y="1396" type="line"/>
      <point x="813" y="1396" type="line"/>
      <point x="1022" y="1396"/>
      <point x="1228" y="1297"/>
      <point x="1144" y="902" type="curve"/>
      <point x="1052" y="470"/>
      <point x="814" y="390"/>
      <point x="599" y="390" type="curve"/>
      <point x="592" y="390"/>
      <point x="382" y="390"/>
      <point x="385" y="390" type="curve"/>
      <point x="302" y="0" type="line"/>
      <point x="82" y="0" type="line"/>
    </contour>
    <contour>
      <point x="552" y="1176" type="line"/>
      <point x="430" y="600" type="line"/>
      <point x="424" y="600"/>
      <point x="558" y="600"/>
      <point x="562" y="600" type="curve"/>
      <point x="769" y="600"/>
      <point x="865" y="634"/>
      <point x="922" y="902" type="curve"/>
      <point x="975" y="1155"/>
      <point x="889" y="1176"/>
      <point x="684" y="1176" type="curve"/>
    </contour>
  </outline>
</glyph>
<glyph name="Q" format="1">
  <advance width="986"/>
  <unicode hex="0051"/>
  <outline>
    <contour>
      <point x="664" y="346" type="line"/>
      <point x="609" y="90" type="line"/>
      <point x="590" y="2"/>
      <point x="609" y="-44"/>
      <point x="799" y="-44" type="curve"/>
      <point x="730" y="-234" type="line"/>
      <point x="411" y="-234"/>
      <point x="373" y="-99"/>
      <point x="407" y="62" type="curve"/>
      <point x="468" y="346" type="line"/>
    </contour>
    <component base="O"/>
  </outline>
</glyph>
<glyph name="R" format="1">
  <advance width="1022"/>
  <unicode hex="0052"/>
  <outline>
    <contour>
      <point x="379" y="1396" type="line"/>
      <point x="813" y="1396" type="line"/>
      <point x="1022" y="1396"/>
      <point x="1228" y="1297"/>
      <point x="1144" y="902" type="curve"/>
      <point x="1094" y="667"/>
      <point x="999" y="533"/>
      <point x="889" y="464" type="curve"/>
      <point x="960" y="0" type="line"/>
      <point x="726" y="0" type="line"/>
      <point x="671" y="392" type="line"/>
      <point x="647" y="389"/>
      <point x="623" y="390"/>
      <point x="599" y="390" type="curve"/>
      <point x="385" y="390" type="line"/>
      <point x="302" y="0" type="line"/>
      <point x="82" y="0" type="line"/>
    </contour>
    <contour>
      <point x="430" y="600" type="line"/>
      <point x="562" y="600" type="line"/>
      <point x="769" y="600"/>
      <point x="865" y="634"/>
      <point x="922" y="902" type="curve"/>
      <point x="976" y="1155"/>
      <point x="889" y="1176"/>
      <point x="684" y="1176" type="curve"/>
      <point x="552" y="1176" type="line"/>
    </contour>
  </outline>
</glyph>
<glyph name="S" format="1">
  <advance width="1088"/>
  <unicode hex="0053"/>
  <outline>
    <contour>
      <point x="1185" y="1342" type="curve"/>
      <point x="1078" y="1148" type="line"/>
      <point x="1006" y="1186"/>
      <point x="924" y="1212"/>
      <point x="834" y="1212" type="curve"/>
      <point x="746" y="1212"/>
      <point x="601" y="1180"/>
      <point x="577" y="1070" type="curve"/>
      <point x="527" y="832"/>
      <point x="1215" y="868"/>
      <point x="1114" y="396" type="curve"/>
      <point x="1052" y="102"/>
      <point x="801" y="-24"/>
      <point x="533" y="-24" type="curve"/>
      <point x="359" y="-24"/>
      <point x="191" y="50"/>
      <point x="100" y="178" type="curve"/>
      <point x="244" y="318" type="line"/>
      <point x="318" y="226"/>
      <point x="441" y="184"/>
      <point x="571" y="184" type="curve"/>
      <point x="701" y="184"/>
      <point x="843" y="258"/>
      <point x="873" y="400" type="curve"/>
      <point x="935" y="692"/>
      <point x="259" y="634"/>
      <point x="355" y="1086" type="curve"/>
      <point x="408" y="1334"/>
      <point x="661" y="1416"/>
      <point x="871" y="1416" type="curve"/>
      <point x="983" y="1416"/>
      <point x="1097" y="1396"/>
    </contour>
  </outline>
</glyph>
<glyph name="T" format="1">
  <advance width="862"/>
  <unicode hex="0054"/>
  <outline>
    <contour>
      <point x="1082" y="1174" type="line"/>
      <point x="786" y="1174" type="line"/>
      <point x="536" y="0" type="line"/>
      <point x="316" y="0" type="line"/>
      <point x="566" y="1174" type="line"/>
      <point x="276" y="1174" type="line"/>
      <point x="323" y="1396" type="line"/>
      <point x="1129" y="1396" type="line"/>
    </contour>
  </outline>
</glyph>
<glyph name="U" format="1">
  <advance width="998"/>
  <unicode hex="0055"/>
  <outline>
    <contour>
      <point x="1215" y="1396" type="line"/>
      <point x="997" y="370" type="line"/>
      <point x="968" y="235"/>
      <point x="906" y="136"/>
      <point x="809" y="72" type="curve"/>
      <point x="715" y="9"/>
      <point x="610" y="-22"/>
      <point x="495" y="-22" type="curve"/>
      <point x="382" y="-22"/>
      <point x="289" y="9"/>
      <point x="217" y="72" type="curve"/>
      <point x="149" y="139"/>
      <point x="129" y="238"/>
      <point x="157" y="370" type="curve"/>
      <point x="375" y="1396" type="line"/>
      <point x="595" y="1396" type="line"/>
      <point x="385" y="408" type="line" smooth="yes"/>
      <point x="369" y="335"/>
      <point x="379" y="280"/>
      <point x="414" y="244" type="curve"/>
      <point x="439" y="216"/>
      <point x="481" y="202"/>
      <point x="541" y="202" type="curve"/>
      <point x="600" y="202"/>
      <point x="650" y="219"/>
      <point x="692" y="254" type="curve"/>
      <point x="737" y="289"/>
      <point x="771" y="345"/>
      <point x="786" y="412" type="curve"/>
      <point x="995" y="1396" type="line"/>
    </contour>
  </outline>
</glyph>
<glyph name="V" format="1">
  <advance width="1028"/>
  <unicode hex="0056"/>
  <outline>
    <contour>
      <point x="384" y="0" type="line"/>
      <point x="331" y="1396" type="line"/>
      <point x="579" y="1396" type="line"/>
      <point x="604" y="432" type="line"/>
      <point x="1033" y="1396" type="line"/>
      <point x="1287" y="1396" type="line"/>
      <point x="640" y="0" type="line"/>
    </contour>
  </outline>
</glyph>
<glyph name="W" format="1">
  <advance width="1480"/>
  <unicode hex="0057"/>
  <outline>
    <contour>
      <point x="956" y="1396" type="line"/>
      <point x="1118" y="1396" type="line"/>
      <point x="1118" y="504" type="line"/>
      <point x="1476" y="1396" type="line"/>
      <point x="1730" y="1396" type="line"/>
      <point x="1164" y="0" type="line"/>
      <point x="916" y="0" type="line"/>
      <point x="888" y="706" type="line"/>
      <point x="564" y="0" type="line"/>
      <point x="304" y="0" type="line"/>
      <point x="304" y="1396" type="line"/>
      <point x="552" y="1396" type="line"/>
      <point x="552" y="484" type="line"/>
    </contour>
  </outline>
</glyph>
<glyph name="Z" format="1">
  <advance width="1112"/>
  <unicode hex="005A"/>
  <outline>
    <contour>
      <point x="389" y="1396" type="line"/>
      <point x="1325" y="1396" type="line"/>
      <point x="1278" y="1176" type="line"/>
      <point x="385" y="210" type="line"/>
      <point x="1085" y="210" type="line"/>
      <point x="1040" y="0" type="line"/>
      <point x="64" y="0" type="line"/>
      <point x="107" y="202" type="line"/>
      <point x="1000" y="1176" type="line"/>
      <point x="342" y="1176" type="line"/>
    </contour>
  </outline>
</glyph>
<glyph name="bracketleft" format="1">
  <advance width="464"/>
  <unicode hex="005B"/>
  <outline>
    <contour>
      <point x="708" y="1422" type="line"/>
      <point x="602" y="1402" type="line"/>
      <point x="304" y="2" type="line"/>
      <point x="402" y="-18" type="line"/>
      <point x="358" y="-228" type="line"/>
      <point x="36" y="-228" type="line"/>
      <point x="431" y="1632" type="line"/>
      <point x="753" y="1632" type="line"/>
    </contour>
  </outline>
</glyph>
<glyph name="backslash" format="1">
  <advance width="954"/>
  <unicode hex="005C"/>
  <outline>
    <contour>
      <point x="872" y="-228" type="line"/>
      <point x="638" y="-228" type="line"/>
      <point x="379" y="1632" type="line"/>
      <point x="619" y="1632" type="line"/>
    </contour>
  </outline>
</glyph>
<glyph name="bracketright" format="1">
  <advance width="468"/>
  <unicode hex="005D"/>
  <outline>
    <contour>
      <point x="334" y="-228" type="line"/>
      <point x="14" y="-228" type="line"/>
      <point x="58" y="-18" type="line"/>
      <point x="162" y="2" type="line"/>
      <point x="460" y="1402" type="line"/>
      <point x="364" y="1422" type="line"/>
      <point x="409" y="1632" type="line"/>
      <point x="729" y="1632" type="line"/>
    </contour>
  </outline>
</glyph>
<glyph name="asciicircum" format="1">
  <advance width="532"/>
  <unicode hex="005E"/>
  <outline>
    <contour>
      <point x="652" y="1796" type="line"/>
      <point x="854" y="1544" type="line"/>
      <point x="724" y="1438" type="line"/>
      <point x="611" y="1602" type="line"/>
      <point x="415" y="1436" type="line"/>
      <point x="334" y="1542" type="line"/>
    </contour>
  </outline>
</glyph>
<glyph name="underscore" format="1">
  <advance width="766"/>
  <unicode hex="005F"/>
  <outline>
    <contour>
      <point x="671" y="-154" type="line"/>
      <point x="33" y="-154" type="line"/>
      <point x="66" y="0" type="line"/>
      <point x="704" y="0" type="line"/>
    </contour>
  </outline>
</glyph>
<glyph name="grave" format="1">
  <advance width="532"/>
  <unicode hex="0060"/>
  <outline>
    <contour>
      <point x="561" y="1408" type="curve"/>
      <point x="572" y="1174" type="line"/>
      <point x="484" y="1174" type="line"/>
      <point x="400" y="1326" type="line"/>
      <point x="373" y="1363"/>
      <point x="377" y="1436"/>
      <point x="442" y="1468" type="curve"/>
      <point x="502" y="1497"/>
      <point x="551" y="1461"/>
    </contour>
  </outline>
</glyph>
<glyph name="a" format="1">
  <advance width="900"/>
  <unicode hex="0061"/>
  <outline>
    <contour>
      <point x="750" y="668" type="curve"/>
      <point x="768" y="753"/>
      <point x="762" y="791"/>
      <point x="743" y="812" type="curve"/>
      <point x="715" y="844"/>
      <point x="663" y="866"/>
      <point x="578" y="866" type="curve"/>
      <point x="628" y="1016" type="line"/>
      <point x="731" y="1016"/>
      <point x="858" y="1011"/>
      <point x="931" y="928" type="curve"/>
      <point x="970" y="885"/>
      <point x="997" y="796"/>
      <point x="958" y="612" type="curve"/>
      <point x="828" y="0" type="line"/>
      <point x="715" y="-16"/>
      <point x="597" y="-22"/>
      <point x="463" y="-22" type="curve"/>
      <point x="237" y="-22"/>
      <point x="69" y="58"/>
      <point x="124" y="310" type="curve"/>
      <point x="165" y="504" type="line" smooth="yes"/>
      <point x="210" y="706"/>
      <point x="352" y="800"/>
      <point x="498" y="800" type="curve"/>
      <point x="592" y="800"/>
      <point x="707" y="757"/>
    </contour>
    <contour>
      <point x="648" y="188" type="curve"/>
      <point x="715" y="504" type="line"/>
      <point x="695" y="519"/>
      <point x="604" y="574"/>
      <point x="512" y="574" type="curve"/>
      <point x="452" y="574"/>
      <point x="398" y="552"/>
      <point x="381" y="476" type="curve"/>
      <point x="354" y="346" type="line" smooth="yes"/>
      <point x="332" y="246"/>
      <point x="343" y="180"/>
      <point x="524" y="180" type="curve"/>
      <point x="557" y="180"/>
      <point x="649" y="189"/>
    </contour>
  </outline>
</glyph>
<glyph name="b" format="1">
  <advance width="914"/>
  <unicode hex="0062"/>
  <outline>
    <contour>
      <point x="599" y="1396" type="line"/>
      <point x="507" y="964" type="line"/>
      <point x="600" y="1001"/>
      <point x="678" y="1010"/>
      <point x="768" y="1010" type="curve"/>
      <point x="916" y="1010"/>
      <point x="1046" y="921"/>
      <point x="1003" y="718" type="curve"/>
      <point x="1003" y="722"/>
      <point x="915" y="308"/>
      <point x="916" y="310" type="curve"/>
      <point x="849" y="50"/>
      <point x="657" y="-22"/>
      <point x="429" y="-22" type="curve"/>
      <point x="311" y="-22"/>
      <point x="198" y="-5"/>
      <point x="82" y="0" type="curve"/>
      <point x="379" y="1396" type="line"/>
    </contour>
    <contour>
      <point x="342" y="188" type="curve"/>
      <point x="342" y="188"/>
      <point x="427" y="182"/>
      <point x="459" y="182" type="curve"/>
      <point x="643" y="182"/>
      <point x="682" y="246"/>
      <point x="704" y="348" type="curve"/>
      <point x="711" y="381"/>
      <point x="768" y="652"/>
      <point x="777" y="690" type="curve"/>
      <point x="793" y="765"/>
      <point x="719" y="788"/>
      <point x="659" y="788" type="curve"/>
      <point x="566" y="788"/>
      <point x="483" y="753"/>
      <point x="459" y="740" type="curve"/>
      <point x="460" y="742"/>
      <point x="342" y="186"/>
    </contour>
  </outline>
</glyph>
<glyph name="c" format="1">
  <advance width="768"/>
  <unicode hex="0063"/>
  <outline>
    <contour>
      <point x="905" y="954" type="curve"/>
      <point x="819" y="784" type="line"/>
      <point x="756" y="816"/>
      <point x="674" y="839"/>
      <point x="594" y="826" type="curve"/>
      <point x="547" y="818"/>
      <point x="499" y="797"/>
      <point x="468" y="760" type="curve"/>
      <point x="449" y="733"/>
      <point x="429" y="702"/>
      <point x="421" y="662" type="curve"/>
      <point x="354" y="348" type="line" smooth="yes"/>
      <point x="328" y="225"/>
      <point x="401" y="168"/>
      <point x="524" y="168" type="curve"/>
      <point x="609" y="168"/>
      <point x="708" y="188"/>
      <point x="706" y="188" type="curve"/>
      <point x="708" y="10" type="line"/>
      <point x="570" y="-25"/>
      <point x="419" y="-41"/>
      <point x="286" y="2" type="curve"/>
      <point x="160" y="47"/>
      <point x="94" y="151"/>
      <point x="136" y="346" type="curve"/>
      <point x="198" y="638" type="line"/>
      <point x="222" y="726"/>
      <point x="249" y="790"/>
      <point x="300" y="854" type="curve"/>
      <point x="372" y="942"/>
      <point x="458" y="991"/>
      <point x="553" y="1010" type="curve"/>
      <point x="678" y="1037"/>
      <point x="801" y="1007"/>
    </contour>
  </outline>
</glyph>
<glyph name="d" format="1">
  <advance width="918"/>
  <unicode hex="0064"/>
  <outline>
    <contour>
      <point x="1129" y="1396" type="line"/>
      <point x="832" y="0" type="line"/>
      <point x="722" y="-16"/>
      <point x="603" y="-22"/>
      <point x="473" y="-22" type="curve"/>
      <point x="247" y="-22"/>
      <point x="86" y="74"/>
      <point x="128" y="310" type="curve"/>
      <point x="215" y="718" type="line" smooth="yes"/>
      <point x="258" y="922"/>
      <point x="430" y="1016"/>
      <point x="576" y="1016" type="curve"/>
      <point x="669" y="1016"/>
      <point x="740" y="1001"/>
      <point x="817" y="964" type="curve"/>
      <point x="909" y="1396" type="line"/>
    </contour>
    <contour>
      <point x="652" y="188" type="curve"/>
      <point x="769" y="740" type="line"/>
      <point x="748" y="753"/>
      <point x="685" y="788"/>
      <point x="592" y="788" type="curve"/>
      <point x="531" y="788"/>
      <point x="447" y="765"/>
      <point x="431" y="690" type="curve"/>
      <point x="358" y="348" type="line" smooth="yes"/>
      <point x="336" y="246"/>
      <point x="351" y="182"/>
      <point x="531" y="182" type="curve"/>
      <point x="563" y="182"/>
      <point x="653" y="188"/>
    </contour>
  </outline>
</glyph>
<glyph name="e" format="1">
  <advance width="850"/>
  <unicode hex="0065"/>
  <outline>
    <contour>
      <point x="362" y="346" type="line"/>
      <point x="351" y="296" type="line"/>
      <point x="336" y="228"/>
      <point x="368" y="180"/>
      <point x="440" y="180" type="curve"/>
      <point x="512" y="180"/>
      <point x="617" y="217"/>
      <point x="711" y="260" type="curve"/>
      <point x="751" y="70" type="line"/>
      <point x="645" y="11"/>
      <point x="510" y="-26"/>
      <point x="390" y="-26" type="curve"/>
      <point x="202" y="-26"/>
      <point x="80" y="66"/>
      <point x="123" y="268" type="curve"/>
      <point x="210" y="678" type="line" smooth="yes"/>
      <point x="256" y="896"/>
      <point x="426" y="1018"/>
      <point x="642" y="1018" type="curve"/>
      <point x="856" y="1018"/>
      <point x="978" y="904"/>
      <point x="931" y="684" type="curve"/>
      <point x="865" y="372" type="line"/>
    </contour>
    <contour>
      <point x="684" y="566" type="line"/>
      <point x="697" y="624" type="line"/>
      <point x="714" y="708"/>
      <point x="722" y="814"/>
      <point x="604" y="808" type="curve"/>
      <point x="480" y="802"/>
      <point x="446" y="736"/>
      <point x="421" y="626" type="curve"/>
      <point x="404" y="548" type="line"/>
    </contour>
  </outline>
</glyph>
<glyph name="f" format="1">
  <advance width="556"/>
  <unicode hex="0066"/>
  <outline>
    <contour>
      <point x="798" y="1412" type="curve"/>
      <point x="720" y="1212" type="line"/>
      <point x="699" y="1217"/>
      <point x="671" y="1224"/>
      <point x="644" y="1224" type="curve"/>
      <point x="593" y="1224"/>
      <point x="559" y="1188"/>
      <point x="543" y="1116" type="curve"/>
      <point x="518" y="998" type="line"/>
      <point x="692" y="998" type="line"/>
      <point x="600" y="792" type="line"/>
      <point x="474" y="792" type="line"/>
      <point x="306" y="0" type="line"/>
      <point x="80" y="0" type="line"/>
      <point x="313" y="1096" type="line" smooth="yes"/>
      <point x="360" y="1319"/>
      <point x="516" y="1422"/>
      <point x="676" y="1422" type="curve"/>
      <point x="714" y="1422"/>
      <point x="762" y="1417"/>
    </contour>
  </outline>
</glyph>
<glyph name="g" format="1">
  <advance width="884"/>
  <unicode hex="0067"/>
  <outline>
    <contour>
      <point x="1016" y="998" type="line"/>
      <point x="777" y="-128" type="line"/>
      <point x="732" y="-339"/>
      <point x="592" y="-420"/>
      <point x="403" y="-420" type="curve"/>
      <point x="385" y="-248" type="line"/>
      <point x="451" y="-248"/>
      <point x="539" y="-212"/>
      <point x="561" y="-106" type="curve"/>
      <point x="589" y="24" type="line"/>
      <point x="538" y="-5"/>
      <point x="465" y="-24"/>
      <point x="399" y="-24" type="curve"/>
      <point x="178" y="-24"/>
      <point x="87" y="107"/>
      <point x="139" y="352" type="curve"/>
      <point x="211" y="690" type="line" smooth="yes"/>
      <point x="254" y="893"/>
      <point x="391" y="1018"/>
      <point x="596" y="1018" type="curve"/>
      <point x="671" y="1018"/>
      <point x="736" y="998"/>
      <point x="787" y="954" type="curve"/>
      <point x="796" y="998" type="line"/>
    </contour>
    <contour>
      <point x="643" y="278" type="curve"/>
      <point x="748" y="772" type="line"/>
      <point x="750" y="770"/>
      <point x="672" y="820"/>
      <point x="606" y="820" type="curve"/>
      <point x="530" y="820"/>
      <point x="451" y="787"/>
      <point x="427" y="674" type="curve"/>
      <point x="352" y="318" type="line" smooth="yes"/>
      <point x="335" y="241"/>
      <point x="365" y="172"/>
      <point x="459" y="176" type="curve"/>
      <point x="570" y="180"/>
      <point x="634" y="234"/>
    </contour>
  </outline>
</glyph>
<glyph name="h" format="1">
  <advance width="890"/>
  <unicode hex="0068"/>
  <outline>
    <contour>
      <point x="597" y="1396" type="line"/>
      <point x="502" y="952" type="line"/>
      <point x="542" y="976"/>
      <point x="634" y="1018"/>
      <point x="716" y="1018" type="curve"/>
      <point x="874" y="1018"/>
      <point x="1023" y="947"/>
      <point x="969" y="690" type="curve"/>
      <point x="822" y="0" type="line"/>
      <point x="604" y="0" type="line"/>
      <point x="750" y="686" type="line" smooth="yes"/>
      <point x="766" y="762"/>
      <point x="719" y="818"/>
      <point x="634" y="818" type="curve"/>
      <point x="589" y="818"/>
      <point x="535" y="804"/>
      <point x="464" y="772" type="curve"/>
      <point x="300" y="0" type="line"/>
      <point x="82" y="0" type="line"/>
      <point x="379" y="1396" type="line"/>
    </contour>
  </outline>
</glyph>
<glyph name="i" format="1">
  <advance width="400"/>
  <unicode hex="0069"/>
  <outline>
    <contour>
      <point x="308" y="0" type="line"/>
      <point x="88" y="0" type="line"/>
      <point x="300" y="998" type="line"/>
      <point x="520" y="998" type="line"/>
    </contour>
    <contour>
      <point x="499" y="1416" type="curve"/>
      <point x="566" y="1416"/>
      <point x="608" y="1367"/>
      <point x="594" y="1300" type="curve"/>
      <point x="580" y="1233"/>
      <point x="515" y="1180"/>
      <point x="449" y="1180" type="curve"/>
      <point x="382" y="1180"/>
      <point x="342" y="1233"/>
      <point x="356" y="1300" type="curve"/>
      <point x="370" y="1367"/>
      <point x="432" y="1416"/>
    </contour>
  </outline>
</glyph>
<glyph name="j" format="1">
  <advance width="516"/>
  <unicode hex="006A"/>
  <outline>
    <contour>
      <point x="634" y="998" type="line"/>
      <point x="396" y="-122" type="line"/>
      <point x="373" y="-231"/>
      <point x="321" y="-301"/>
      <point x="251" y="-354" type="curve"/>
      <point x="184" y="-405"/>
      <point x="85" y="-430"/>
      <point x="27" y="-430" type="curve"/>
      <point x="5" y="-250" type="line"/>
      <point x="52" y="-239"/>
      <point x="84" y="-231"/>
      <point x="117" y="-204" type="curve"/>
      <point x="145" y="-183"/>
      <point x="171" y="-148"/>
      <point x="181" y="-100" type="curve"/>
      <point x="372" y="800" type="line"/>
      <point x="230" y="820" type="line"/>
      <point x="268" y="998" type="line"/>
    </contour>
    <contour>
      <point x="710" y="1298" type="curve"/>
      <point x="696" y="1234"/>
      <point x="631" y="1180"/>
      <point x="565" y="1180" type="curve"/>
      <point x="498" y="1180"/>
      <point x="456" y="1234"/>
      <point x="470" y="1298" type="curve"/>
      <point x="484" y="1365"/>
      <point x="548" y="1416"/>
      <point x="615" y="1416" type="curve"/>
      <point x="682" y="1416"/>
      <point x="724" y="1365"/>
    </contour>
  </outline>
</glyph>
<glyph name="k" format="1">
  <advance width="946"/>
  <unicode hex="006B"/>
  <outline>
    <contour>
      <point x="950" y="886" type="line"/>
      <point x="632" y="654" type="line"/>
      <point x="908" y="0" type="line"/>
      <point x="640" y="0" type="line"/>
      <point x="438" y="508" type="line"/>
      <point x="404" y="480" type="line"/>
      <point x="302" y="0" type="line"/>
      <point x="82" y="0" type="line"/>
      <point x="379" y="1396" type="line"/>
      <point x="599" y="1396" type="line"/>
      <point x="464" y="764" type="line"/>
      <point x="823" y="1038" type="line"/>
    </contour>
  </outline>
</glyph>
<glyph name="l" format="1">
  <advance width="388"/>
  <unicode hex="006C"/>
  <outline>
    <contour>
      <point x="302" y="0" type="line"/>
      <point x="82" y="0" type="line"/>
      <point x="379" y="1396" type="line"/>
      <point x="599" y="1396" type="line"/>
    </contour>
  </outline>
</glyph>
<glyph name="m" format="1">
  <advance width="1438"/>
  <unicode hex="006D"/>
  <outline>
    <contour>
      <point x="1144" y="0" type="line"/>
      <point x="1289" y="682" type="line"/>
      <point x="1306" y="762"/>
      <point x="1247" y="816"/>
      <point x="1161" y="816" type="curve"/>
      <point x="1127" y="816"/>
      <point x="1055" y="800"/>
      <point x="987" y="768" type="curve"/>
      <point x="987" y="744"/>
      <point x="982" y="717"/>
      <point x="976" y="688" type="curve"/>
      <point x="830" y="0" type="line"/>
      <point x="610" y="0" type="line"/>
      <point x="755" y="682" type="line" smooth="yes"/>
      <point x="772" y="762"/>
      <point x="717" y="816"/>
      <point x="631" y="816" type="curve"/>
      <point x="586" y="816"/>
      <point x="529" y="800"/>
      <point x="461" y="768" type="curve"/>
      <point x="298" y="0" type="line"/>
      <point x="78" y="0" type="line"/>
      <point x="290" y="998" type="line"/>
      <point x="510" y="998" type="line"/>
      <point x="500" y="950" type="line"/>
      <point x="561" y="986"/>
      <point x="641" y="1014"/>
      <point x="712" y="1014" type="curve"/>
      <point x="805" y="1014"/>
      <point x="898" y="990"/>
      <point x="949" y="918" type="curve"/>
      <point x="1024" y="963"/>
      <point x="1155" y="1014"/>
      <point x="1244" y="1014" type="curve"/>
      <point x="1401" y="1014"/>
      <point x="1565" y="944"/>
      <point x="1510" y="688" type="curve"/>
      <point x="1364" y="0" type="line"/>
    </contour>
  </outline>
</glyph>
<glyph name="n" format="1">
  <advance width="890"/>
  <unicode hex="006E"/>
  <outline>
    <contour>
      <point x="598" y="-2" type="line"/>
      <point x="743" y="684" type="line"/>
      <point x="759" y="759"/>
      <point x="714" y="818"/>
      <point x="630" y="818" type="curve"/>
      <point x="585" y="818"/>
      <point x="531" y="805"/>
      <point x="460" y="770" type="curve"/>
      <point x="296" y="-2" type="line"/>
      <point x="78" y="-2" type="line"/>
      <point x="290" y="998" type="line"/>
      <point x="508" y="998" type="line"/>
      <point x="498" y="952" type="line"/>
      <point x="538" y="973"/>
      <point x="629" y="1016"/>
      <point x="712" y="1016" type="curve"/>
      <point x="872" y="1016"/>
      <point x="1017" y="946"/>
      <point x="963" y="690" type="curve"/>
      <point x="816" y="-2" type="line"/>
    </contour>
  </outline>
</glyph>
<glyph name="o" format="1">
  <advance width="864"/>
  <unicode hex="006F"/>
  <outline>
    <contour>
      <point x="934" y="632" type="curve"/>
      <point x="878" y="368" type="line"/>
      <point x="829" y="136"/>
      <point x="676" y="-20"/>
      <point x="432" y="-20" type="curve"/>
      <point x="169" y="-20"/>
      <point x="97" y="166"/>
      <point x="140" y="368" type="curve"/>
      <point x="196" y="632" type="line" smooth="yes"/>
      <point x="250" y="885"/>
      <point x="410" y="1020"/>
      <point x="653" y="1020" type="curve"/>
      <point x="885" y="1020"/>
      <point x="986" y="875"/>
    </contour>
    <contour>
      <point x="649" y="352" type="curve"/>
      <point x="711" y="644" type="line"/>
      <point x="731" y="740"/>
      <point x="697" y="800"/>
      <point x="604" y="800" type="curve"/>
      <point x="508" y="800"/>
      <point x="442" y="745"/>
      <point x="421" y="644" type="curve"/>
      <point x="359" y="352" type="line" smooth="yes"/>
      <point x="342" y="271"/>
      <point x="369" y="196"/>
      <point x="476" y="196" type="curve"/>
      <point x="576" y="196"/>
      <point x="630" y="262"/>
    </contour>
  </outline>
</glyph>
<glyph name="p" format="1">
  <advance width="886"/>
  <unicode hex="0070"/>
  <outline>
    <contour>
      <point x="965" y="690" type="curve"/>
      <point x="893" y="352" type="line"/>
      <point x="841" y="107"/>
      <point x="696" y="-24"/>
      <point x="475" y="-24" type="curve"/>
      <point x="409" y="-24"/>
      <point x="347" y="-4"/>
      <point x="305" y="24" type="curve"/>
      <point x="208" y="-430" type="line"/>
      <point x="-2" y="-382" type="line"/>
      <point x="292" y="998" type="line"/>
      <point x="512" y="998" type="line"/>
      <point x="503" y="954" type="line"/>
      <point x="533" y="979"/>
      <point x="644" y="1018"/>
      <point x="720" y="1018" type="curve"/>
      <point x="923" y="1018"/>
      <point x="1008" y="893"/>
    </contour>
    <contour>
      <point x="666" y="318" type="curve"/>
      <point x="741" y="674" type="line"/>
      <point x="765" y="787"/>
      <point x="701" y="820"/>
      <point x="626" y="820" type="curve"/>
      <point x="561" y="822"/>
      <point x="462" y="770"/>
      <point x="464" y="772" type="curve"/>
      <point x="359" y="278" type="line" smooth="yes"/>
      <point x="343" y="204"/>
      <point x="444" y="176"/>
      <point x="507" y="176" type="curve"/>
      <point x="590" y="176"/>
      <point x="647" y="233"/>
    </contour>
  </outline>
</glyph>
<glyph name="q" format="1">
  <advance width="884"/>
  <unicode hex="0071"/>
  <outline>
    <contour>
      <point x="504" y="-379" type="line"/>
      <point x="590" y="26" type="line"/>
      <point x="535" y="-2"/>
      <point x="462" y="-22"/>
      <point x="399" y="-22" type="curve"/>
      <point x="178" y="-22"/>
      <point x="87" y="109"/>
      <point x="139" y="352" type="curve"/>
      <point x="211" y="690" type="line" smooth="yes"/>
      <point x="254" y="895"/>
      <point x="393" y="1020"/>
      <point x="601" y="1020" type="curve"/>
      <point x="670" y="1020"/>
      <point x="737" y="997"/>
      <point x="787" y="954" type="curve"/>
      <point x="796" y="998" type="line"/>
      <point x="1016" y="998" type="line"/>
      <point x="714" y="-430" type="line"/>
    </contour>
    <contour>
      <point x="644" y="280" type="curve"/>
      <point x="749" y="774" type="line"/>
      <point x="749" y="772"/>
      <point x="674" y="824"/>
      <point x="605" y="822" type="curve"/>
      <point x="534" y="822"/>
      <point x="452" y="789"/>
      <point x="428" y="676" type="curve"/>
      <point x="352" y="322" type="line" smooth="yes"/>
      <point x="336" y="245"/>
      <point x="361" y="178"/>
      <point x="460" y="178" type="curve"/>
      <point x="571" y="183"/>
      <point x="634" y="234"/>
    </contour>
  </outline>
</glyph>
<glyph name="r" format="1">
  <advance width="746"/>
  <unicode hex="0072"/>
  <outline>
    <contour>
      <point x="906" y="998" type="curve"/>
      <point x="836" y="818" type="line"/>
      <point x="836" y="818"/>
      <point x="807" y="832"/>
      <point x="735" y="832" type="curve"/>
      <point x="647" y="832"/>
      <point x="554" y="816"/>
      <point x="463" y="776" type="curve"/>
      <point x="298" y="0" type="line"/>
      <point x="78" y="0" type="line"/>
      <point x="290" y="998" type="line"/>
      <point x="510" y="998" type="line"/>
      <point x="502" y="958" type="line"/>
      <point x="578" y="1003"/>
      <point x="669" y="1028"/>
      <point x="755" y="1028" type="curve"/>
      <point x="816" y="1028"/>
      <point x="867" y="1014"/>
    </contour>
  </outline>
</glyph>
<glyph name="s" format="1">
  <advance width="852"/>
  <unicode hex="0073"/>
  <outline>
    <contour>
      <point x="898" y="952" type="curve"/>
      <point x="792" y="770" type="line"/>
      <point x="753" y="794"/>
      <point x="693" y="810"/>
      <point x="626" y="810" type="curve"/>
      <point x="580" y="810"/>
      <point x="499" y="802"/>
      <point x="485" y="740" type="curve"/>
      <point x="479" y="711"/>
      <point x="510" y="683"/>
      <point x="551" y="662" type="curve"/>
      <point x="579" y="646"/>
      <point x="613" y="631"/>
      <point x="647" y="618" type="curve"/>
      <point x="782" y="566"/>
      <point x="891" y="458"/>
      <point x="856" y="290" type="curve"/>
      <point x="833" y="183"/>
      <point x="767" y="99"/>
      <point x="679" y="42" type="curve"/>
      <point x="606" y="-5"/>
      <point x="515" y="-30"/>
      <point x="422" y="-30" type="curve"/>
      <point x="342" y="-30"/>
      <point x="275" y="-11"/>
      <point x="227" y="16" type="curve"/>
      <point x="153" y="56"/>
      <point x="106" y="108"/>
      <point x="84" y="140" type="curve"/>
      <point x="240" y="274" type="line"/>
      <point x="292" y="218"/>
      <point x="365" y="176"/>
      <point x="451" y="176" type="curve"/>
      <point x="513" y="176"/>
      <point x="601" y="204"/>
      <point x="619" y="278" type="curve"/>
      <point x="629" y="315"/>
      <point x="613" y="345"/>
      <point x="596" y="366" type="curve"/>
      <point x="573" y="395"/>
      <point x="533" y="411"/>
      <point x="497" y="430" type="curve"/>
      <point x="451" y="451"/>
      <point x="394" y="472"/>
      <point x="344" y="508" type="curve"/>
      <point x="281" y="554"/>
      <point x="235" y="625"/>
      <point x="259" y="740" type="curve"/>
      <point x="281" y="844"/>
      <point x="352" y="920"/>
      <point x="442" y="968" type="curve"/>
      <point x="514" y="1005"/>
      <point x="596" y="1024"/>
      <point x="676" y="1024" type="curve"/>
      <point x="758" y="1024"/>
      <point x="840" y="1000"/>
    </contour>
  </outline>
</glyph>
<glyph name="t" format="1">
  <advance width="552"/>
  <unicode hex="0074"/>
  <outline>
    <contour>
      <point x="473" y="796" type="line"/>
      <point x="360" y="264" type="line"/>
      <point x="341" y="173"/>
      <point x="389" y="150"/>
      <point x="482" y="150" type="curve"/>
      <point x="378" y="-26" type="line"/>
      <point x="177" y="-21"/>
      <point x="96" y="75"/>
      <point x="136" y="264" type="curve"/>
      <point x="377" y="1396" type="line"/>
      <point x="601" y="1396" type="line"/>
      <point x="516" y="998" type="line"/>
      <point x="706" y="998" type="line"/>
      <point x="617" y="796" type="line"/>
    </contour>
  </outline>
</glyph>
<glyph name="u" format="1">
  <advance width="892"/>
  <unicode hex="0075"/>
  <outline>
    <contour>
      <point x="592" y="0" type="line"/>
      <point x="603" y="52" type="line"/>
      <point x="571" y="25"/>
      <point x="476" y="-14"/>
      <point x="391" y="-14" type="curve"/>
      <point x="237" y="-14"/>
      <point x="86" y="57"/>
      <point x="141" y="314" type="curve"/>
      <point x="287" y="1002" type="line"/>
      <point x="509" y="1002" type="line"/>
      <point x="364" y="318" type="line" smooth="yes"/>
      <point x="349" y="249"/>
      <point x="358" y="178"/>
      <point x="472" y="188" type="curve"/>
      <point x="564" y="196"/>
      <point x="647" y="257"/>
      <point x="666" y="350" type="curve"/>
      <point x="805" y="1002" type="line"/>
      <point x="1025" y="1002" type="line"/>
      <point x="812" y="0" type="line"/>
    </contour>
  </outline>
</glyph>
<glyph name="w" format="1">
  <advance width="1452"/>
  <unicode hex="0077"/>
  <outline>
    <contour>
      <point x="838" y="998" type="line"/>
      <point x="1028" y="998" type="line"/>
      <point x="1066" y="388" type="line"/>
      <point x="1374" y="998" type="line"/>
      <point x="1614" y="998" type="line"/>
      <point x="1078" y="0" type="line"/>
      <point x="868" y="0" type="line"/>
      <point x="838" y="534" type="line"/>
      <point x="580" y="0" type="line"/>
      <point x="364" y="0" type="line"/>
      <point x="254" y="998" type="line"/>
      <point x="494" y="998" type="line"/>
      <point x="548" y="388" type="line"/>
    </contour>
  </outline>
</glyph>
<glyph name="x" format="1">
  <advance width="1022"/>
  <unicode hex="0078"/>
  <outline>
    <contour>
      <point x="554" y="998" type="line"/>
      <point x="665" y="712" type="line"/>
      <point x="904" y="998" type="line"/>
      <point x="1176" y="998" type="line"/>
      <point x="754" y="498" type="line"/>
      <point x="950" y="0" type="line"/>
      <point x="688" y="0" type="line"/>
      <point x="572" y="280" type="line"/>
      <point x="338" y="0" type="line"/>
      <point x="62" y="0" type="line"/>
      <point x="479" y="496" type="line"/>
      <point x="274" y="998" type="line"/>
    </contour>
  </outline>
</glyph>
<glyph name="y" format="1">
  <advance width="964"/>
  <unicode hex="0079"/>
  <outline>
    <contour>
      <point x="1055" y="1020" type="curve"/>
      <point x="1090" y="866" type="line"/>
      <point x="1009" y="850"/>
      <point x="980" y="791"/>
      <point x="966" y="724" type="curve"/>
      <point x="787" y="-118" type="line" smooth="yes"/>
      <point x="748" y="-304"/>
      <point x="614" y="-426"/>
      <point x="419" y="-426" type="curve"/>
      <point x="399" y="-248" type="line"/>
      <point x="482" y="-248"/>
      <point x="556" y="-174"/>
      <point x="572" y="-96" type="curve"/>
      <point x="604" y="56" type="line"/>
      <point x="571" y="27"/>
      <point x="475" y="-12"/>
      <point x="389" y="-12" type="curve"/>
      <point x="230" y="-12"/>
      <point x="85" y="59"/>
      <point x="139" y="316" type="curve"/>
      <point x="285" y="1002" type="line"/>
      <point x="507" y="1002" type="line"/>
      <point x="362" y="322" type="line" smooth="yes"/>
      <point x="346" y="247"/>
      <point x="390" y="188"/>
      <point x="472" y="188" type="curve"/>
      <point x="563" y="188"/>
      <point x="647" y="261"/>
      <point x="667" y="352" type="curve"/>
      <point x="759" y="784" type="line" smooth="yes"/>
      <point x="782" y="895"/>
      <point x="875" y="1020"/>
    </contour>
  </outline>
</glyph>
<glyph name="z" format="1">
  <advance width="868"/>
  <unicode hex="007A"/>
  <outline>
    <contour>
      <point x="296" y="998" type="line"/>
      <point x="994" y="998" type="line"/>
      <point x="952" y="800" type="line"/>
      <point x="407" y="210" type="line"/>
      <point x="847" y="210" type="line"/>
      <point x="802" y="0" type="line"/>
      <point x="66" y="0" type="line"/>
      <point x="111" y="210" type="line"/>
      <point x="653" y="794" type="line"/>
      <point x="253" y="794" type="line"/>
    </contour>
  </outline>
</glyph>
<glyph name="braceleft" format="1">
  <advance width="582"/>
  <unicode hex="007B"/>
  <outline>
    <contour>
      <point x="697" y="1258" type="curve"/>
      <point x="649" y="1032" type="line"/>
      <point x="637" y="975"/>
      <point x="619" y="919"/>
      <point x="594" y="864" type="curve"/>
      <point x="569" y="809"/>
      <point x="520" y="756"/>
      <point x="448" y="704" type="curve"/>
      <point x="498" y="653"/>
      <point x="524" y="601"/>
      <point x="526" y="546" type="curve"/>
      <point x="528" y="491"/>
      <point x="523" y="435"/>
      <point x="510" y="378" type="curve"/>
      <point x="462" y="152" type="line" smooth="yes"/>
      <point x="430" y="1"/>
      <point x="472" y="-40"/>
      <point x="516" y="-68" type="curve"/>
      <point x="380" y="-234" type="line"/>
      <point x="369" y="-234"/>
      <point x="176" y="-169"/>
      <point x="244" y="152" type="curve"/>
      <point x="292" y="378" type="line" smooth="yes"/>
      <point x="304" y="434"/>
      <point x="308" y="488"/>
      <point x="304" y="539" type="curve"/>
      <point x="299" y="590"/>
      <point x="271" y="641"/>
      <point x="219" y="690" type="curve"/>
      <point x="202" y="704" type="line"/>
      <point x="225" y="720" type="line" smooth="yes"/>
      <point x="298" y="769"/>
      <point x="348" y="819"/>
      <point x="374" y="870" type="curve"/>
      <point x="400" y="921"/>
      <point x="419" y="975"/>
      <point x="431" y="1032" type="curve"/>
      <point x="479" y="1258" type="line" smooth="yes"/>
      <point x="548" y="1579"/>
      <point x="771" y="1642"/>
      <point x="779" y="1642" type="curve"/>
      <point x="844" y="1478" type="line"/>
      <point x="789" y="1450"/>
      <point x="729" y="1408"/>
    </contour>
  </outline>
</glyph>
<glyph name="bar" format="1">
  <advance width="390"/>
  <unicode hex="007C"/>
  <outline>
    <contour>
      <point x="256" y="-228" type="line"/>
      <point x="36" y="-228" type="line"/>
      <point x="431" y="1632" type="line"/>
      <point x="651" y="1632" type="line"/>
    </contour>
  </outline>
</glyph>
<glyph name="braceright" format="1">
  <advance width="594"/>
  <unicode hex="007D"/>
  <outline>
    <contour>
      <point x="368" y="1478" type="curve"/>
      <point x="505" y="1642" type="line"/>
      <point x="512" y="1642"/>
      <point x="712" y="1579"/>
      <point x="643" y="1258" type="curve"/>
      <point x="595" y="1032" type="line" smooth="yes"/>
      <point x="571" y="918"/>
      <point x="562" y="820"/>
      <point x="665" y="720" type="curve"/>
      <point x="684" y="704" type="line"/>
      <point x="661" y="690" type="line" smooth="yes"/>
      <point x="514" y="593"/>
      <point x="480" y="490"/>
      <point x="456" y="378" type="curve"/>
      <point x="408" y="152" type="line" smooth="yes"/>
      <point x="340" y="-168"/>
      <point x="116" y="-234"/>
      <point x="106" y="-234" type="curve"/>
      <point x="40" y="-68" type="line"/>
      <point x="99" y="-41"/>
      <point x="157" y="2"/>
      <point x="188" y="152" type="curve"/>
      <point x="236" y="378" type="line" smooth="yes"/>
      <point x="261" y="493"/>
      <point x="291" y="603"/>
      <point x="438" y="704" type="curve"/>
      <point x="335" y="808"/>
      <point x="351" y="919"/>
      <point x="375" y="1032" type="curve"/>
      <point x="423" y="1258" type="line" smooth="yes"/>
      <point x="455" y="1408"/>
      <point x="416" y="1451"/>
    </contour>
  </outline>
</glyph>
<glyph name="asciitilde" format="1">
  <advance width="532"/>
  <unicode hex="007E"/>
  <outline>
    <contour>
      <point x="667" y="710" type="curve"/>
      <point x="709" y="598" type="line"/>
      <point x="649" y="553"/>
      <point x="577" y="512"/>
      <point x="497" y="512" type="curve"/>
      <point x="411" y="516"/>
      <point x="352" y="572"/>
      <point x="270" y="572" type="curve"/>
      <point x="230" y="572"/>
      <point x="183" y="558"/>
      <point x="128" y="526" type="curve"/>
      <point x="86" y="638" type="line"/>
      <point x="149" y="683"/>
      <point x="218" y="720"/>
      <point x="293" y="720" type="curve"/>
      <point x="386" y="720"/>
      <point x="446" y="662"/>
      <point x="531" y="662" type="curve"/>
      <point x="568" y="662"/>
      <point x="612" y="675"/>
    </contour>
  </outline>
</glyph>
<glyph name="exclamdown" format="1">
  <advance width="388"/>
  <unicode hex="00A1"/>
  <outline>
    <contour>
      <point x="516" y="1176" type="line"/>
      <point x="339" y="136" type="line"/>
      <point x="320" y="45"/>
      <point x="270" y="0"/>
      <point x="190" y="0" type="curve"/>
      <point x="115" y="0"/>
      <point x="88" y="47"/>
      <point x="107" y="138" type="curve"/>
      <point x="364" y="1176" type="line"/>
    </contour>
    <contour>
      <point x="594" y="1328" type="curve"/>
      <point x="580" y="1261"/>
      <point x="518" y="1210"/>
      <point x="451" y="1210" type="curve"/>
      <point x="387" y="1210"/>
      <point x="344" y="1261"/>
      <point x="358" y="1328" type="curve"/>
      <point x="372" y="1395"/>
      <point x="438" y="1448"/>
      <point x="502" y="1448" type="curve"/>
      <point x="568" y="1448"/>
      <point x="608" y="1395"/>
    </contour>
  </outline>
</glyph>
<glyph name="cent" format="1">
  <advance width="768"/>
  <unicode hex="00A2"/>
  <outline>
    <contour>
      <point x="510" y="-226" type="line"/>
      <point x="338" y="-226" type="line"/>
      <point x="651" y="1246" type="line"/>
      <point x="823" y="1246" type="line"/>
    </contour>
    <component base="c"/>
  </outline>
</glyph>
<glyph name="sterling" format="1">
  <advance width="864"/>
  <unicode hex="00A3"/>
  <outline>
    <contour>
      <point x="115" y="200" type="line"/>
      <point x="313" y="200" type="line"/>
      <point x="446" y="200"/>
      <point x="536" y="318"/>
      <point x="540" y="456" type="curve"/>
      <point x="544" y="520"/>
      <point x="526" y="586"/>
      <point x="502" y="646" type="curve"/>
      <point x="489" y="680" type="line"/>
      <point x="217" y="680" type="line"/>
      <point x="260" y="886" type="line"/>
      <point x="398" y="886" type="line"/>
      <point x="383" y="926" type="line" smooth="yes"/>
      <point x="356" y="992"/>
      <point x="346" y="1066"/>
      <point x="364" y="1138" type="curve"/>
      <point x="412" y="1322"/>
      <point x="596" y="1416"/>
      <point x="777" y="1416" type="curve"/>
      <point x="846" y="1416"/>
      <point x="953" y="1389"/>
      <point x="1010" y="1344" type="curve"/>
      <point x="903" y="1164" type="line"/>
      <point x="858" y="1188"/>
      <point x="800" y="1206"/>
      <point x="722" y="1206" type="curve"/>
      <point x="680" y="1206"/>
      <point x="616" y="1188"/>
      <point x="596" y="1132" type="curve"/>
      <point x="575" y="1070"/>
      <point x="596" y="1026"/>
      <point x="634" y="952" type="curve"/>
      <point x="668" y="886" type="line"/>
      <point x="980" y="886" type="line"/>
      <point x="937" y="680" type="line"/>
      <point x="752" y="680" type="line"/>
      <point x="772" y="622" type="line" smooth="yes"/>
      <point x="788" y="572"/>
      <point x="792" y="518"/>
      <point x="784" y="462" type="curve"/>
      <point x="766" y="354"/>
      <point x="710" y="268"/>
      <point x="627" y="200" type="curve"/>
      <point x="835" y="200" type="line"/>
      <point x="792" y="0" type="line"/>
      <point x="72" y="0" type="line"/>
    </contour>
  </outline>
</glyph>
<glyph name="currency" format="1">
  <advance width="994"/>
  <unicode hex="00A4"/>
  <outline>
    <contour>
      <point x="1113" y="870" type="line"/>
      <point x="902" y="698" type="line"/>
      <point x="915" y="658"/>
      <point x="919" y="614"/>
      <point x="908" y="566" type="curve"/>
      <point x="898" y="515"/>
      <point x="876" y="474"/>
      <point x="846" y="434" type="curve"/>
      <point x="984" y="262" type="line"/>
      <point x="829" y="136" type="line"/>
      <point x="691" y="306" type="line"/>
      <point x="650" y="287"/>
      <point x="600" y="274"/>
      <point x="554" y="274" type="curve"/>
      <point x="506" y="274"/>
      <point x="466" y="289"/>
      <point x="429" y="308" type="curve"/>
      <point x="221" y="136" type="line"/>
      <point x="122" y="262" type="line"/>
      <point x="330" y="434" type="line"/>
      <point x="320" y="474"/>
      <point x="316" y="515"/>
      <point x="326" y="566" type="curve"/>
      <point x="336" y="611"/>
      <point x="359" y="659"/>
      <point x="386" y="696" type="curve"/>
      <point x="251" y="870" type="line"/>
      <point x="404" y="996" type="line"/>
      <point x="539" y="822" type="line"/>
      <point x="585" y="845"/>
      <point x="631" y="856"/>
      <point x="678" y="856" type="curve"/>
      <point x="726" y="856"/>
      <point x="767" y="843"/>
      <point x="803" y="822" type="curve"/>
      <point x="1012" y="996" type="line"/>
    </contour>
    <contour>
      <point x="594" y="462" type="curve"/>
      <point x="653" y="462"/>
      <point x="708" y="509"/>
      <point x="720" y="566" type="curve"/>
      <point x="733" y="626"/>
      <point x="697" y="668"/>
      <point x="638" y="668" type="curve"/>
      <point x="583" y="668"/>
      <point x="527" y="626"/>
      <point x="514" y="566" type="curve"/>
      <point x="502" y="509"/>
      <point x="539" y="462"/>
    </contour>
  </outline>
</glyph>
<glyph name="yen" format="1">
  <advance width="1032"/>
  <unicode hex="00A5"/>
  <outline>
    <contour>
      <point x="488" y="396" type="line"/>
      <point x="278" y="396" type="line"/>
      <point x="322" y="602" type="line"/>
      <point x="532" y="602" type="line"/>
      <point x="538" y="630" type="line"/>
      <point x="339" y="1396" type="line"/>
      <point x="573" y="1396" type="line"/>
      <point x="698" y="866" type="line"/>
      <point x="1051" y="1396" type="line"/>
      <point x="1283" y="1396" type="line"/>
      <point x="760" y="630" type="line"/>
      <point x="754" y="602" type="line"/>
      <point x="962" y="602" type="line"/>
      <point x="918" y="396" type="line"/>
      <point x="710" y="396" type="line"/>
      <point x="690" y="300" type="line"/>
      <point x="898" y="300" type="line"/>
      <point x="853" y="90" type="line"/>
      <point x="645" y="90" type="line"/>
      <point x="626" y="0" type="line"/>
      <point x="404" y="0" type="line"/>
      <point x="423" y="90" type="line"/>
      <point x="213" y="90" type="line"/>
      <point x="258" y="300" type="line"/>
      <point x="468" y="300" type="line"/>
    </contour>
  </outline>
</glyph>
<glyph name="dieresis" format="1">
  <advance width="532"/>
  <unicode hex="00A8"/>
  <outline>
    <contour>
      <point x="434" y="1534" type="curve"/>
      <point x="501" y="1534"/>
      <point x="541" y="1480"/>
      <point x="527" y="1416" type="curve"/>
      <point x="513" y="1349"/>
      <point x="450" y="1296"/>
      <point x="383" y="1296" type="curve"/>
      <point x="317" y="1296"/>
      <point x="275" y="1349"/>
      <point x="289" y="1416" type="curve"/>
      <point x="303" y="1480"/>
      <point x="367" y="1534"/>
    </contour>
    <contour>
      <point x="750" y="1534" type="curve"/>
      <point x="817" y="1534"/>
      <point x="859" y="1480"/>
      <point x="845" y="1416" type="curve"/>
      <point x="831" y="1349"/>
      <point x="766" y="1296"/>
      <point x="699" y="1296" type="curve"/>
      <point x="633" y="1296"/>
      <point x="591" y="1349"/>
      <point x="605" y="1416" type="curve"/>
      <point x="619" y="1480"/>
      <point x="683" y="1534"/>
    </contour>
  </outline>
</glyph>
<glyph name="copyright" format="1">
  <advance width="1566"/>
  <unicode hex="00A9"/>
  <outline>
    <contour>
      <point x="1639" y="652" type="curve"/>
      <point x="1579" y="370" type="line"/>
      <point x="1500" y="1"/>
      <point x="1163" y="-188"/>
      <point x="742" y="-188" type="curve"/>
      <point x="324" y="-188"/>
      <point x="64" y="0"/>
      <point x="143" y="370" type="curve"/>
      <point x="203" y="652" type="line" smooth="yes"/>
      <point x="281" y="1019"/>
      <point x="619" y="1206"/>
      <point x="1038" y="1206" type="curve"/>
      <point x="1458" y="1206"/>
      <point x="1717" y="1020"/>
    </contour>
    <contour>
      <point x="1390" y="444" type="curve"/>
      <point x="1419" y="578" type="line"/>
      <point x="1495" y="934"/>
      <point x="1363" y="1006"/>
      <point x="996" y="1006" type="curve"/>
      <point x="628" y="1006"/>
      <point x="467" y="934"/>
      <point x="391" y="578" type="curve"/>
      <point x="362" y="444" type="line" smooth="yes"/>
      <point x="286" y="87"/>
      <point x="420" y="14"/>
      <point x="785" y="14" type="curve"/>
      <point x="1156" y="14"/>
      <point x="1312" y="83"/>
    </contour>
    <contour>
      <point x="1271" y="842" type="curve"/>
      <point x="1177" y="662" type="line"/>
      <point x="1179" y="661"/>
      <point x="1087" y="700"/>
      <point x="993" y="700" type="curve"/>
      <point x="923" y="700"/>
      <point x="869" y="685"/>
      <point x="829" y="654" type="curve"/>
      <point x="789" y="623"/>
      <point x="761" y="569"/>
      <point x="748" y="510" type="curve"/>
      <point x="735" y="449"/>
      <point x="741" y="392"/>
      <point x="765" y="364" type="curve"/>
      <point x="792" y="333"/>
      <point x="837" y="326"/>
      <point x="885" y="326" type="curve"/>
      <point x="1011" y="326"/>
      <point x="1193" y="390"/>
      <point x="1191" y="390" type="curve"/>
      <point x="1181" y="182" type="line"/>
      <point x="1060" y="139"/>
      <point x="942" y="112"/>
      <point x="838" y="112" type="curve"/>
      <point x="728" y="112"/>
      <point x="637" y="141"/>
      <point x="581" y="200" type="curve"/>
      <point x="519" y="264"/>
      <point x="496" y="359"/>
      <point x="526" y="498" type="curve"/>
      <point x="563" y="672"/>
      <point x="647" y="780"/>
      <point x="748" y="842" type="curve"/>
      <point x="828" y="890"/>
      <point x="920" y="910"/>
      <point x="1007" y="910" type="curve"/>
      <point x="1106" y="910"/>
      <point x="1199" y="882"/>
    </contour>
  </outline>
</glyph>
<glyph name="ordfeminine" format="1">
  <advance width="658"/>
  <unicode hex="00AA"/>
  <outline>
    <contour>
      <point x="756" y="782" type="curve"/>
      <point x="665" y="769"/>
      <point x="578" y="756"/>
      <point x="509" y="756" type="curve"/>
      <point x="333" y="756"/>
      <point x="224" y="811"/>
      <point x="272" y="1036" type="curve"/>
      <point x="303" y="1160"/>
      <point x="396" y="1262"/>
      <point x="530" y="1262" type="curve"/>
      <point x="578" y="1262"/>
      <point x="628" y="1247"/>
      <point x="673" y="1218" type="curve"/>
      <point x="688" y="1289"/>
      <point x="672" y="1300"/>
      <point x="598" y="1300" type="curve"/>
      <point x="577" y="1300"/>
      <point x="549" y="1299"/>
      <point x="513" y="1294" type="curve"/>
      <point x="559" y="1416" type="line"/>
      <point x="632" y="1427"/>
      <point x="737" y="1429"/>
      <point x="794" y="1374" type="curve"/>
      <point x="850" y="1323"/>
      <point x="852" y="1233"/>
      <point x="826" y="1108" type="curve"/>
      <point x="827" y="1113"/>
      <point x="755" y="774"/>
    </contour>
    <contour>
      <point x="610" y="920" type="curve"/>
      <point x="641" y="1066" type="line"/>
      <point x="613" y="1087"/>
      <point x="571" y="1110"/>
      <point x="528" y="1110" type="curve"/>
      <point x="477" y="1110"/>
      <point x="445" y="1066"/>
      <point x="434" y="1014" type="curve"/>
      <point x="420" y="936"/>
      <point x="469" y="916"/>
      <point x="537" y="916" type="curve"/>
      <point x="567" y="916"/>
      <point x="588" y="920"/>
    </contour>
  </outline>
</glyph>
<glyph name="registered" format="1">
  <advance width="1566"/>
  <unicode hex="00AE"/>
  <outline>
    <contour>
      <point x="1639" y="652" type="curve"/>
      <point x="1579" y="370" type="line"/>
      <point x="1500" y="1"/>
      <point x="1162" y="-180"/>
      <point x="740" y="-188" type="curve"/>
      <point x="324" y="-180"/>
      <point x="64" y="0"/>
      <point x="143" y="370" type="curve"/>
      <point x="203" y="652" type="line" smooth="yes"/>
      <point x="281" y="1019"/>
      <point x="618" y="1206"/>
      <point x="1036" y="1206" type="curve"/>
      <point x="1457" y="1206"/>
      <point x="1717" y="1020"/>
    </contour>
    <contour>
      <point x="1390" y="444" type="curve"/>
      <point x="1418" y="576" type="line"/>
      <point x="1494" y="933"/>
      <point x="1359" y="1002"/>
      <point x="994" y="1006" type="curve"/>
      <point x="626" y="998"/>
      <point x="468" y="937"/>
      <point x="390" y="576" type="curve"/>
      <point x="362" y="444" type="line" smooth="yes"/>
      <point x="286" y="87"/>
      <point x="419" y="18"/>
      <point x="783" y="14" type="curve"/>
      <point x="1153" y="22"/>
      <point x="1311" y="83"/>
    </contour>
    <contour>
      <point x="650" y="886" type="line"/>
      <point x="1042" y="886" type="line"/>
      <point x="1252" y="886"/>
      <point x="1309" y="796"/>
      <point x="1260" y="566" type="curve"/>
      <point x="1232" y="433"/>
      <point x="1181" y="345"/>
      <point x="1102" y="300" type="curve"/>
      <point x="1170" y="122" type="line"/>
      <point x="918" y="122" type="line"/>
      <point x="884" y="256" type="line"/>
      <point x="736" y="256" type="line"/>
      <point x="708" y="122" type="line"/>
      <point x="488" y="122" type="line"/>
    </contour>
    <contour>
      <point x="781" y="466" type="line"/>
      <point x="937" y="466" type="line"/>
      <point x="982" y="466"/>
      <point x="1023" y="475"/>
      <point x="1042" y="566" type="curve"/>
      <point x="1056" y="631"/>
      <point x="1050" y="666"/>
      <point x="978" y="666" type="curve"/>
      <point x="824" y="666" type="line"/>
    </contour>
  </outline>
</glyph>
<glyph name="macron" format="1">
  <advance width="532"/>
  <unicode hex="00AF"/>
  <outline>
    <contour>
      <point x="344" y="1416" type="line"/>
      <point x="786" y="1416" type="line"/>
      <point x="748" y="1236" type="line"/>
      <point x="306" y="1236" type="line"/>
    </contour>
  </outline>
</glyph>
<glyph name="overscore" format="1">
  <advance width="532"/>
  <unicode hex="00AF"/>
  <outline>
    <contour>
      <point x="646" y="1416" type="line"/>
      <point x="1088" y="1416" type="line"/>
      <point x="1011" y="1236" type="line"/>
      <point x="569" y="1236" type="line"/>
    </contour>
  </outline>
</glyph>
<glyph name="degree" format="1">
  <advance width="700"/>
  <unicode hex="00B0"/>
  <outline>
    <contour>
      <point x="880" y="1128" type="curve"/>
      <point x="846" y="968"/>
      <point x="689" y="838"/>
      <point x="526" y="838" type="curve"/>
      <point x="365" y="838"/>
      <point x="262" y="968"/>
      <point x="296" y="1128" type="curve"/>
      <point x="330" y="1291"/>
      <point x="489" y="1420"/>
      <point x="650" y="1420" type="curve"/>
      <point x="813" y="1420"/>
      <point x="914" y="1291"/>
    </contour>
    <contour>
      <point x="610" y="1234" type="curve"/>
      <point x="554" y="1234"/>
      <point x="496" y="1188"/>
      <point x="484" y="1128" type="curve"/>
      <point x="472" y="1071"/>
      <point x="509" y="1024"/>
      <point x="566" y="1024" type="curve"/>
      <point x="621" y="1024"/>
      <point x="682" y="1071"/>
      <point x="694" y="1128" type="curve"/>
      <point x="706" y="1188"/>
      <point x="666" y="1234"/>
    </contour>
  </outline>
</glyph>
<glyph name="plusminus" format="1">
  <advance width="780"/>
  <unicode hex="00B1"/>
  <outline>
    <contour>
      <point x="426" y="698" type="line"/>
      <point x="218" y="698" type="line"/>
      <point x="263" y="908" type="line"/>
      <point x="471" y="908" type="line"/>
      <point x="518" y="1128" type="line"/>
      <point x="740" y="1128" type="line"/>
      <point x="693" y="908" type="line"/>
      <point x="903" y="908" type="line"/>
      <point x="858" y="698" type="line"/>
      <point x="648" y="698" type="line"/>
      <point x="605" y="492" type="line"/>
      <point x="813" y="492" type="line"/>
      <point x="770" y="292" type="line"/>
      <point x="130" y="292" type="line"/>
      <point x="173" y="492" type="line"/>
      <point x="383" y="492" type="line"/>
    </contour>
  </outline>
</glyph>
<glyph name="acute" format="1">
  <advance width="532"/>
  <unicode hex="00B4"/>
  <outline>
    <contour>
      <point x="699" y="1342" type="curve"/>
      <point x="551" y="1192" type="line"/>
      <point x="463" y="1192" type="line"/>
      <point x="573" y="1424" type="line" smooth="yes"/>
      <point x="594" y="1471"/>
      <point x="665" y="1515"/>
      <point x="715" y="1482" type="curve"/>
      <point x="759" y="1453"/>
      <point x="746" y="1387"/>
    </contour>
  </outline>
</glyph>
<glyph name="mu" format="1">
  <advance width="926"/>
  <unicode hex="00B5"/>
  <outline>
    <contour>
      <point x="1032" y="1018" type="line"/>
      <point x="864" y="224" type="line"/>
      <point x="835" y="96"/>
      <point x="876" y="51"/>
      <point x="873" y="50" type="curve"/>
      <point x="672" y="-2" type="line"/>
      <point x="650" y="8"/>
      <point x="630" y="51"/>
      <point x="631" y="50" type="curve"/>
      <point x="612" y="15"/>
      <point x="552" y="-18"/>
      <point x="480" y="-18" type="curve"/>
      <point x="432" y="-18"/>
      <point x="356" y="-4"/>
      <point x="310" y="58" type="curve"/>
      <point x="208" y="-430" type="line"/>
      <point x="-1" y="-379" type="line"/>
      <point x="292" y="998" type="line"/>
      <point x="510" y="998" type="line"/>
      <point x="362" y="299" type="line" smooth="yes"/>
      <point x="343" y="210"/>
      <point x="431" y="178"/>
      <point x="484" y="180" type="curve"/>
      <point x="587" y="184"/>
      <point x="645" y="241"/>
      <point x="661" y="316" type="curve"/>
      <point x="805" y="992" type="line"/>
    </contour>
  </outline>
</glyph>
<glyph name="paragraph" format="1">
  <advance width="1352"/>
  <unicode hex="00B6"/>
  <outline>
    <contour>
      <point x="791" y="390" type="line"/>
      <point x="577" y="390" type="line"/>
      <point x="364" y="390"/>
      <point x="163" y="473"/>
      <point x="254" y="904" type="curve"/>
      <point x="338" y="1297"/>
      <point x="584" y="1400"/>
      <point x="792" y="1400" type="curve"/>
      <point x="1564" y="1400" type="line"/>
      <point x="1266" y="2" type="line"/>
      <point x="1046" y="2" type="line"/>
      <point x="1298" y="1180" type="line"/>
      <point x="1181" y="1180" type="line"/>
      <point x="928" y="2" type="line"/>
      <point x="708" y="2" type="line"/>
    </contour>
    <contour>
      <point x="959" y="1180" type="line"/>
      <point x="827" y="1180" type="line"/>
      <point x="624" y="1180"/>
      <point x="528" y="1155"/>
      <point x="474" y="904" type="curve"/>
      <point x="417" y="635"/>
      <point x="500" y="600"/>
      <point x="704" y="600" type="curve"/>
      <point x="836" y="600" type="line"/>
    </contour>
  </outline>
</glyph>
<glyph name="cedilla" format="1">
  <advance width="532"/>
  <unicode hex="00B8"/>
  <outline>
    <contour>
      <point x="212" y="0" type="line"/>
      <point x="344" y="0" type="line"/>
      <point x="278" y="-84" type="line"/>
      <point x="316" y="-81"/>
      <point x="325" y="-84"/>
      <point x="333" y="-84" type="curve"/>
      <point x="456" y="-84"/>
      <point x="503" y="-172"/>
      <point x="483" y="-266" type="curve"/>
      <point x="458" y="-386"/>
      <point x="371" y="-470"/>
      <point x="206" y="-470" type="curve"/>
      <point x="113" y="-470"/>
      <point x="9" y="-446"/>
      <point x="7" y="-446" type="curve"/>
      <point x="31" y="-390"/>
      <point x="40" y="-374"/>
      <point x="61" y="-316" type="curve"/>
      <point x="61" y="-316"/>
      <point x="175" y="-336"/>
      <point x="257" y="-336" type="curve"/>
      <point x="312" y="-336"/>
      <point x="340" y="-309"/>
      <point x="347" y="-276" type="curve"/>
      <point x="355" y="-239"/>
      <point x="341" y="-214"/>
      <point x="291" y="-214" type="curve"/>
      <point x="251" y="-214"/>
      <point x="191" y="-223"/>
      <point x="108" y="-228" type="curve"/>
      <point x="88" y="-150" type="line"/>
    </contour>
  </outline>
</glyph>
<glyph name="guillemotright" format="1">
  <advance width="1082"/>
  <unicode hex="00BB"/>
  <outline>
    <contour>
      <point x="129" y="296" type="line"/>
      <point x="416" y="534" type="line"/>
      <point x="227" y="766" type="line"/>
      <point x="401" y="908" type="line"/>
      <point x="696" y="534" type="line"/>
      <point x="242" y="160" type="line"/>
    </contour>
    <contour>
      <point x="569" y="296" type="line"/>
      <point x="858" y="534" type="line"/>
      <point x="667" y="766" type="line"/>
      <point x="841" y="908" type="line"/>
      <point x="1136" y="534" type="line"/>
      <point x="682" y="160" type="line"/>
    </contour>
  </outline>
</glyph>
<glyph name="questiondown" format="1">
  <advance width="856"/>
  <unicode hex="00BF"/>
  <outline>
    <contour>
      <point x="640" y="322" type="curve"/>
      <point x="862" y="322" type="line"/>
      <point x="819" y="117"/>
      <point x="652" y="-36"/>
      <point x="420" y="-30" type="curve"/>
      <point x="240" y="-24"/>
      <point x="81" y="109"/>
      <point x="130" y="340" type="curve"/>
      <point x="159" y="473"/>
      <point x="246" y="558"/>
      <point x="353" y="656" type="curve"/>
      <point x="484" y="774"/>
      <point x="530" y="820"/>
      <point x="559" y="966" type="curve"/>
      <point x="598" y="1146" type="line"/>
      <point x="816" y="1146" type="line"/>
      <point x="776" y="960" type="line" smooth="yes"/>
      <point x="740" y="790"/>
      <point x="636" y="676"/>
      <point x="541" y="580" type="curve"/>
      <point x="454" y="492"/>
      <point x="370" y="424"/>
      <point x="351" y="334" type="curve"/>
      <point x="330" y="234"/>
      <point x="392" y="180"/>
      <point x="462" y="178" type="curve"/>
      <point x="546" y="176"/>
      <point x="617" y="232"/>
    </contour>
    <contour>
      <point x="763" y="1416" type="curve"/>
      <point x="830" y="1416"/>
      <point x="870" y="1365"/>
      <point x="856" y="1298" type="curve"/>
      <point x="842" y="1231"/>
      <point x="779" y="1176"/>
      <point x="712" y="1176" type="curve"/>
      <point x="645" y="1176"/>
      <point x="606" y="1231"/>
      <point x="620" y="1298" type="curve"/>
      <point x="634" y="1365"/>
      <point x="696" y="1416"/>
    </contour>
  </outline>
</glyph>
<glyph name="AE" format="1">
  <advance width="1512"/>
  <unicode hex="00C6"/>
  <outline>
    <contour>
      <point x="1438" y="0" type="line"/>
      <point x="774" y="0" type="line"/>
      <point x="856" y="386" type="line"/>
      <point x="526" y="386" type="line"/>
      <point x="300" y="0" type="line"/>
      <point x="42" y="0" type="line"/>
      <point x="881" y="1396" type="line"/>
      <point x="1739" y="1396" type="line"/>
      <point x="1692" y="1176" type="line"/>
      <point x="1240" y="1176" type="line"/>
      <point x="1166" y="826" type="line"/>
      <point x="1470" y="826" type="line"/>
      <point x="1356" y="612" type="line"/>
      <point x="1120" y="612" type="line"/>
      <point x="1033" y="200" type="line"/>
      <point x="1481" y="200" type="line"/>
    </contour>
    <contour>
      <point x="982" y="1176" type="line"/>
      <point x="650" y="600" type="line"/>
      <point x="900" y="600" type="line"/>
      <point x="1022" y="1176" type="line"/>
    </contour>
  </outline>
</glyph>
<glyph name="Eth" format="1">
  <advance width="994"/>
  <unicode hex="00D0"/>
  <outline>
    <contour>
      <point x="645" y="616" type="line"/>
      <point x="373" y="616" type="line"/>
      <point x="418" y="826" type="line"/>
      <point x="752" y="826" type="line"/>
    </contour>
    <component base="D"/>
  </outline>
</glyph>
<glyph name="multiply" format="1">
  <advance width="752"/>
  <unicode hex="00D7"/>
  <outline>
    <contour>
      <point x="418" y="1014" type="line"/>
      <point x="546" y="808" type="line"/>
      <point x="762" y="1016" type="line"/>
      <point x="881" y="900" type="line"/>
      <point x="635" y="664" type="line"/>
      <point x="781" y="436" type="line"/>
      <point x="615" y="314" type="line"/>
      <point x="485" y="520" type="line"/>
      <point x="268" y="312" type="line"/>
      <point x="159" y="436" type="line"/>
      <point x="397" y="664" type="line"/>
      <point x="250" y="894" type="line"/>
    </contour>
  </outline>
</glyph>
<glyph name="Oslash" format="1">
  <advance width="986"/>
  <unicode hex="00D8"/>
  <outline>
    <contour>
      <point x="316" y="-36" type="line"/>
      <point x="124" y="-36" type="line"/>
      <point x="954" y="1440" type="line"/>
      <point x="1154" y="1440" type="line"/>
    </contour>
    <component base="O"/>
  </outline>
</glyph>
<glyph name="Thorn" format="1">
  <advance width="930"/>
  <unicode hex="00DE"/>
  <outline>
    <contour>
      <point x="1053" y="870" type="curve"/>
      <point x="991" y="580" type="line"/>
      <point x="952" y="386"/>
      <point x="843" y="281"/>
      <point x="692" y="236" type="curve"/>
      <point x="581" y="201"/>
      <point x="463" y="205"/>
      <point x="350" y="226" type="curve"/>
      <point x="302" y="0" type="line"/>
      <point x="82" y="0" type="line"/>
      <point x="379" y="1396" type="line"/>
      <point x="599" y="1396" type="line"/>
      <point x="560" y="1216" type="line"/>
      <point x="629" y="1237"/>
      <point x="697" y="1252"/>
      <point x="764" y="1252" type="curve"/>
      <point x="1006" y="1252"/>
      <point x="1096" y="1084"/>
    </contour>
    <contour>
      <point x="700" y="1064" type="curve"/>
      <point x="647" y="1064"/>
      <point x="575" y="1047"/>
      <point x="521" y="1028" type="curve"/>
      <point x="390" y="412" type="line"/>
      <point x="461" y="396"/>
      <point x="557" y="394"/>
      <point x="634" y="416" type="curve"/>
      <point x="720" y="440"/>
      <point x="758" y="497"/>
      <point x="775" y="580" type="curve"/>
      <point x="840" y="896" type="line" smooth="yes"/>
      <point x="862" y="998"/>
      <point x="808" y="1064"/>
    </contour>
  </outline>
</glyph>
<glyph name="germandbls" format="1">
  <advance width="1030"/>
  <unicode hex="00DF"/>
  <outline>
    <contour>
      <point x="515" y="1010" type="curve"/>
      <point x="300" y="0" type="line"/>
      <point x="228" y="0"/>
      <point x="152" y="0"/>
      <point x="80" y="0" type="curve"/>
      <point x="308" y="1072" type="line" smooth="yes"/>
      <point x="357" y="1303"/>
      <point x="538" y="1400"/>
      <point x="700" y="1400" type="curve"/>
      <point x="834" y="1400"/>
      <point x="954" y="1336"/>
      <point x="967" y="1220" type="curve"/>
      <point x="976" y="1138"/>
      <point x="943" y="1029"/>
      <point x="852" y="952" type="curve"/>
      <point x="853" y="952"/>
      <point x="814" y="952"/>
      <point x="812" y="952" type="curve"/>
      <point x="794" y="931"/>
      <point x="781" y="909"/>
      <point x="777" y="888" type="curve"/>
      <point x="755" y="788"/>
      <point x="903" y="689"/>
      <point x="980" y="576" type="curve"/>
      <point x="1031" y="502"/>
      <point x="1061" y="409"/>
      <point x="1037" y="296" type="curve"/>
      <point x="997" y="106"/>
      <point x="814" y="-24"/>
      <point x="621" y="-24" type="curve"/>
      <point x="512" y="-24"/>
      <point x="421" y="14"/>
      <point x="358" y="74" type="curve"/>
      <point x="466" y="238" type="line"/>
      <point x="526" y="184"/>
      <point x="604" y="184"/>
      <point x="658" y="184" type="curve"/>
      <point x="722" y="184"/>
      <point x="791" y="232"/>
      <point x="807" y="304" type="curve"/>
      <point x="817" y="355"/>
      <point x="803" y="419"/>
      <point x="753" y="486" type="curve"/>
      <point x="670" y="599"/>
      <point x="514" y="713"/>
      <point x="549" y="878" type="curve"/>
      <point x="558" y="921"/>
      <point x="580" y="964"/>
      <point x="619" y="1012" type="curve"/>
      <point x="686" y="1012"/>
      <point x="732" y="1065"/>
      <point x="742" y="1110" type="curve"/>
      <point x="751" y="1153"/>
      <point x="733" y="1190"/>
      <point x="673" y="1190" type="curve"/>
      <point x="593" y="1190"/>
      <point x="540" y="1130"/>
    </contour>
  </outline>
</glyph>
<glyph name="ae" format="1">
  <advance width="1396"/>
  <unicode hex="00E6"/>
  <outline>
    <contour>
      <point x="910" y="348" type="line"/>
      <point x="900" y="300" type="line"/>
      <point x="886" y="234"/>
      <point x="911" y="182"/>
      <point x="989" y="182" type="curve"/>
      <point x="1058" y="182"/>
      <point x="1163" y="219"/>
      <point x="1258" y="262" type="curve"/>
      <point x="1297" y="72" type="line"/>
      <point x="1194" y="13"/>
      <point x="1089" y="-24"/>
      <point x="969" y="-24" type="curve"/>
      <point x="902" y="-24"/>
      <point x="831" y="-1"/>
      <point x="808" y="26" type="curve"/>
      <point x="801" y="-4" type="line"/>
      <point x="695" y="-17"/>
      <point x="584" y="-22"/>
      <point x="463" y="-22" type="curve"/>
      <point x="238" y="-22"/>
      <point x="80" y="56"/>
      <point x="122" y="310" type="curve"/>
      <point x="163" y="504" type="line" smooth="yes"/>
      <point x="206" y="707"/>
      <point x="350" y="800"/>
      <point x="496" y="800" type="curve"/>
      <point x="590" y="800"/>
      <point x="705" y="757"/>
      <point x="748" y="668" type="curve"/>
      <point x="780" y="818"/>
      <point x="731" y="862"/>
      <point x="576" y="866" type="curve"/>
      <point x="595" y="919"/>
      <point x="610" y="965"/>
      <point x="626" y="1016" type="curve"/>
      <point x="727" y="1016"/>
      <point x="847" y="1009"/>
      <point x="919" y="938" type="curve"/>
      <point x="1009" y="994"/>
      <point x="1098" y="1020"/>
      <point x="1197" y="1020" type="curve"/>
      <point x="1393" y="1020"/>
      <point x="1523" y="901"/>
      <point x="1478" y="686" type="curve"/>
      <point x="1411" y="374" type="line"/>
    </contour>
    <contour>
      <point x="646" y="188" type="curve"/>
      <point x="713" y="504" type="line"/>
      <point x="693" y="519"/>
      <point x="607" y="574"/>
      <point x="510" y="574" type="curve"/>
      <point x="450" y="574"/>
      <point x="395" y="551"/>
      <point x="379" y="476" type="curve"/>
      <point x="352" y="346" type="line" smooth="yes"/>
      <point x="330" y="247"/>
      <point x="343" y="180"/>
      <point x="524" y="180" type="curve"/>
      <point x="555" y="180"/>
      <point x="647" y="189"/>
    </contour>
    <contour>
      <point x="1233" y="568" type="line"/>
      <point x="1249" y="646" type="line"/>
      <point x="1268" y="734"/>
      <point x="1261" y="810"/>
      <point x="1150" y="810" type="curve"/>
      <point x="1052" y="805"/>
      <point x="998" y="760"/>
      <point x="975" y="652" type="curve"/>
      <point x="953" y="550" type="line"/>
    </contour>
  </outline>
</glyph>
<glyph name="eth" format="1">
  <advance width="846"/>
  <unicode hex="00F0"/>
  <outline>
    <contour>
      <point x="588" y="1260" type="curve"/>
      <point x="671" y="1398" type="line"/>
      <point x="788" y="1369"/>
      <point x="877" y="1318"/>
      <point x="939" y="1246" type="curve"/>
      <point x="1001" y="1174"/>
      <point x="1019" y="1078"/>
      <point x="994" y="958" type="curve"/>
      <point x="869" y="372" type="line" smooth="yes"/>
      <point x="815" y="119"/>
      <point x="653" y="-18"/>
      <point x="410" y="-18" type="curve"/>
      <point x="181" y="-18"/>
      <point x="79" y="129"/>
      <point x="131" y="372" type="curve"/>
      <point x="156" y="490" type="line" smooth="yes"/>
      <point x="208" y="735"/>
      <point x="352" y="864"/>
      <point x="574" y="864" type="curve"/>
      <point x="638" y="864"/>
      <point x="707" y="847"/>
      <point x="743" y="816" type="curve"/>
      <point x="774" y="958" type="line" smooth="yes"/>
      <point x="822" y="1188"/>
      <point x="587" y="1260"/>
    </contour>
    <contour>
      <point x="383" y="520" type="curve"/>
      <point x="349" y="360" type="line" smooth="yes"/>
      <point x="328" y="264"/>
      <point x="369" y="202"/>
      <point x="465" y="202" type="curve"/>
      <point x="558" y="202"/>
      <point x="626" y="261"/>
      <point x="647" y="360" type="curve"/>
      <point x="689" y="562" type="line" smooth="yes"/>
      <point x="705" y="636"/>
      <point x="610" y="666"/>
      <point x="544" y="666" type="curve"/>
      <point x="458" y="666"/>
      <point x="402" y="611"/>
    </contour>
    <contour>
      <point x="969" y="1418" type="line"/>
      <point x="1048" y="1316" type="line"/>
      <point x="616" y="958" type="line"/>
      <point x="535" y="1060" type="line"/>
    </contour>
  </outline>
</glyph>
<glyph name="divide" format="1">
  <advance width="760"/>
  <unicode hex="00F7"/>
  <outline>
    <contour>
      <point x="843" y="680" type="line"/>
      <point x="203" y="680" type="line"/>
      <point x="239" y="852" type="line"/>
      <point x="879" y="852" type="line"/>
    </contour>
    <contour>
      <point x="623" y="1142" type="curve"/>
      <point x="687" y="1142"/>
      <point x="731" y="1085"/>
      <point x="718" y="1024" type="curve"/>
      <point x="703" y="957"/>
      <point x="636" y="904"/>
      <point x="572" y="904" type="curve"/>
      <point x="505" y="904"/>
      <point x="463" y="957"/>
      <point x="478" y="1024" type="curve"/>
      <point x="491" y="1085"/>
      <point x="556" y="1142"/>
    </contour>
    <contour>
      <point x="513" y="626" type="curve"/>
      <point x="577" y="626"/>
      <point x="623" y="577"/>
      <point x="608" y="510" type="curve"/>
      <point x="594" y="443"/>
      <point x="527" y="390"/>
      <point x="463" y="390" type="curve"/>
      <point x="396" y="390"/>
      <point x="354" y="443"/>
      <point x="368" y="510" type="curve"/>
      <point x="383" y="577"/>
      <point x="446" y="626"/>
    </contour>
  </outline>
</glyph>
<glyph name="oslash" format="1">
  <advance width="864"/>
  <unicode hex="00F8"/>
  <outline>
    <contour>
      <point x="798" y="1024" type="line"/>
      <point x="974" y="1024" type="line"/>
      <point x="277" y="-40" type="line"/>
      <point x="107" y="-40" type="line"/>
    </contour>
    <component base="o"/>
  </outline>
</glyph>
<glyph name="thorn" format="1">
  <advance width="892"/>
  <unicode hex="00FE"/>
  <outline>
    <contour>
      <point x="600" y="1400" type="line"/>
      <point x="511" y="982" type="line"/>
      <point x="561" y="1003"/>
      <point x="623" y="1016"/>
      <point x="688" y="1016" type="curve"/>
      <point x="882" y="1016"/>
      <point x="984" y="906"/>
      <point x="984" y="722" type="curve"/>
      <point x="984" y="470"/>
      <point x="796" y="232"/>
      <point x="522" y="232" type="curve"/>
      <point x="451" y="232"/>
      <point x="395" y="249"/>
      <point x="361" y="278" type="curve"/>
      <point x="302" y="0" type="line"/>
      <point x="82" y="0" type="line"/>
      <point x="380" y="1400" type="line"/>
    </contour>
    <contour>
      <point x="640" y="808" type="curve"/>
      <point x="544" y="808"/>
      <point x="470" y="742"/>
      <point x="442" y="656" type="curve"/>
      <point x="410" y="560"/>
      <point x="432" y="440"/>
      <point x="556" y="440" type="curve"/>
      <point x="684" y="440"/>
      <point x="760" y="570"/>
      <point x="760" y="676" type="curve"/>
      <point x="760" y="748"/>
      <point x="726" y="808"/>
    </contour>
  </outline>
</glyph>
<glyph name="dcroat" format="1">
  <advance width="918"/>
  <unicode hex="0111"/>
  <outline>
    <contour>
      <point x="1188" y="1280" type="line"/>
      <point x="1150" y="1102" type="line"/>
      <point x="682" y="1102" type="line"/>
      <point x="720" y="1280" type="line"/>
    </contour>
    <component base="d"/>
  </outline>
</glyph>
<glyph name="Hbar" format="1">
  <advance width="1028"/>
  <unicode hex="0126"/>
  <outline>
    <contour>
      <point x="1276" y="1176" type="line"/>
      <point x="1238" y="998" type="line"/>
      <point x="210" y="998" type="line"/>
      <point x="248" y="1176" type="line"/>
    </contour>
    <component base="Eta"/>
  </outline>
</glyph>
<glyph name="hbar" format="1">
  <advance width="952"/>
  <unicode hex="0127"/>
  <outline>
    <contour>
      <point x="800" y="1278" type="line"/>
      <point x="761" y="1096" type="line"/>
      <point x="291" y="1096" type="line"/>
      <point x="330" y="1278" type="line"/>
    </contour>
    <contour>
      <point x="657" y="1396" type="line"/>
      <point x="562" y="952" type="line"/>
      <point x="602" y="976"/>
      <point x="694" y="1018"/>
      <point x="776" y="1018" type="curve"/>
      <point x="934" y="1018"/>
      <point x="1083" y="947"/>
      <point x="1029" y="690" type="curve"/>
      <point x="882" y="0" type="line"/>
      <point x="664" y="0" type="line"/>
      <point x="810" y="686" type="line" smooth="yes"/>
      <point x="826" y="762"/>
      <point x="779" y="818"/>
      <point x="694" y="818" type="curve"/>
      <point x="649" y="818"/>
      <point x="595" y="804"/>
      <point x="524" y="772" type="curve"/>
      <point x="360" y="0" type="line"/>
      <point x="142" y="0" type="line"/>
      <point x="439" y="1396" type="line"/>
    </contour>
  </outline>
</glyph>
<glyph name="dotlessi" format="1">
  <advance width="378"/>
  <unicode hex="0131"/>
  <outline>
    <contour>
      <point x="298" y="0" type="line"/>
      <point x="78" y="0" type="line"/>
      <point x="290" y="998" type="line"/>
      <point x="510" y="998" type="line"/>
    </contour>
  </outline>
</glyph>
<glyph name="IJ" format="1">
  <advance width="1074"/>
  <unicode hex="0132"/>
  <outline>
    <contour>
      <point x="973" y="1396" type="line"/>
      <point x="1311" y="1396" type="line"/>
      <point x="1093" y="370" type="line" smooth="yes"/>
      <point x="1039" y="119"/>
      <point x="844" y="-22"/>
      <point x="591" y="-22" type="curve"/>
      <point x="364" y="-22"/>
      <point x="198" y="115"/>
      <point x="253" y="370" type="curve"/>
      <point x="269" y="446" type="line"/>
      <point x="489" y="446" type="line"/>
      <point x="481" y="408" type="line" smooth="yes"/>
      <point x="453" y="280"/>
      <point x="504" y="202"/>
      <point x="637" y="202" type="curve"/>
      <point x="764" y="202"/>
      <point x="856" y="290"/>
      <point x="882" y="412" type="curve"/>
      <point x="1046" y="1184" type="line"/>
      <point x="928" y="1186" type="line"/>
    </contour>
    <contour>
      <point x="343" y="1396" type="line"/>
      <point x="691" y="1396" type="line"/>
      <point x="530" y="640" type="line"/>
      <point x="310" y="640" type="line"/>
      <point x="425" y="1182" type="line"/>
      <point x="298" y="1186" type="line"/>
    </contour>
  </outline>
</glyph>
<glyph name="ij" format="1">
  <advance width="902"/>
  <unicode hex="0133"/>
  <outline>
    <contour>
      <point x="499" y="1416" type="curve"/>
      <point x="566" y="1416"/>
      <point x="608" y="1367"/>
      <point x="594" y="1300" type="curve"/>
      <point x="580" y="1233"/>
      <point x="515" y="1180"/>
      <point x="449" y="1180" type="curve"/>
      <point x="382" y="1180"/>
      <point x="342" y="1233"/>
      <point x="356" y="1300" type="curve"/>
      <point x="370" y="1367"/>
      <point x="432" y="1416"/>
    </contour>
    <contour>
      <point x="1116" y="1298" type="curve"/>
      <point x="1102" y="1234"/>
      <point x="1035" y="1180"/>
      <point x="969" y="1180" type="curve"/>
      <point x="902" y="1180"/>
      <point x="862" y="1234"/>
      <point x="876" y="1298" type="curve"/>
      <point x="890" y="1365"/>
      <point x="952" y="1416"/>
      <point x="1019" y="1416" type="curve"/>
      <point x="1086" y="1416"/>
      <point x="1130" y="1365"/>
    </contour>
    <contour>
      <point x="681" y="352" type="curve"/>
      <point x="819" y="1002" type="line"/>
      <point x="1039" y="1002" type="line"/>
      <point x="801" y="-118" type="line" smooth="yes"/>
      <point x="762" y="-304"/>
      <point x="628" y="-426"/>
      <point x="433" y="-426" type="curve"/>
      <point x="413" y="-248" type="line"/>
      <point x="496" y="-248"/>
      <point x="570" y="-174"/>
      <point x="586" y="-96" type="curve"/>
      <point x="618" y="56" type="line"/>
      <point x="585" y="27"/>
      <point x="489" y="-12"/>
      <point x="403" y="-12" type="curve"/>
      <point x="244" y="-12"/>
      <point x="99" y="59"/>
      <point x="153" y="316" type="curve"/>
      <point x="299" y="1002" type="line"/>
      <point x="521" y="1002" type="line"/>
      <point x="376" y="322" type="line" smooth="yes"/>
      <point x="360" y="247"/>
      <point x="404" y="188"/>
      <point x="486" y="188" type="curve"/>
      <point x="577" y="188"/>
      <point x="661" y="261"/>
    </contour>
  </outline>
</glyph>
<glyph name="Lslash" format="1">
  <advance width="1032"/>
  <unicode hex="0141"/>
  <outline>
    <contour>
      <point x="978" y="0" type="line"/>
      <point x="258" y="0" type="line"/>
      <point x="389" y="618" type="line"/>
      <point x="232" y="554" type="line"/>
      <point x="195" y="718" type="line"/>
      <point x="431" y="814" type="line"/>
      <point x="555" y="1396" type="line"/>
      <point x="773" y="1396" type="line"/>
      <point x="669" y="910" type="line"/>
      <point x="829" y="976" type="line"/>
      <point x="870" y="818" type="line"/>
      <point x="629" y="718" type="line"/>
      <point x="519" y="202" type="line"/>
      <point x="1021" y="202" type="line"/>
    </contour>
  </outline>
</glyph>
<glyph name="lslash" format="1">
  <advance width="752"/>
  <unicode hex="0142"/>
  <outline>
    <contour>
      <point x="196" y="716" type="line"/>
      <point x="419" y="806" type="line"/>
      <point x="545" y="1396" type="line"/>
      <point x="765" y="1396" type="line"/>
      <point x="661" y="906" type="line"/>
      <point x="835" y="976" type="line"/>
      <point x="874" y="818" type="line"/>
      <point x="619" y="712" type="line"/>
      <point x="468" y="0" type="line"/>
      <point x="248" y="0" type="line"/>
      <point x="378" y="612" type="line"/>
      <point x="236" y="554" type="line"/>
    </contour>
  </outline>
</glyph>
<glyph name="Eng" format="1">
  <advance width="1154"/>
  <unicode hex="014A"/>
  <outline>
    <contour>
      <point x="1365" y="1396" type="line"/>
      <point x="1043" y="-118" type="line"/>
      <point x="1019" y="-233"/>
      <point x="966" y="-299"/>
      <point x="901" y="-352" type="curve"/>
      <point x="832" y="-403"/>
      <point x="731" y="-426"/>
      <point x="675" y="-426" type="curve"/>
      <point x="653" y="-248" type="line"/>
      <point x="701" y="-237"/>
      <point x="732" y="-231"/>
      <point x="765" y="-202" type="curve"/>
      <point x="794" y="-181"/>
      <point x="817" y="-147"/>
      <point x="828" y="-96" type="curve"/>
      <point x="848" y="0" type="line"/>
      <point x="503" y="944" type="line"/>
      <point x="302" y="0" type="line"/>
      <point x="82" y="0" type="line"/>
      <point x="379" y="1396" type="line"/>
      <point x="601" y="1396" type="line"/>
      <point x="946" y="460" type="line"/>
      <point x="1145" y="1396" type="line"/>
    </contour>
  </outline>
</glyph>
<glyph name="eng" format="1">
  <advance width="890"/>
  <unicode hex="014B"/>
  <outline>
    <contour>
      <point x="963" y="690" type="curve"/>
      <point x="797" y="-88" type="line"/>
      <point x="773" y="-200"/>
      <point x="723" y="-269"/>
      <point x="654" y="-320" type="curve"/>
      <point x="590" y="-371"/>
      <point x="486" y="-396"/>
      <point x="430" y="-396" type="curve"/>
      <point x="408" y="-218" type="line"/>
      <point x="455" y="-210"/>
      <point x="486" y="-199"/>
      <point x="521" y="-172" type="curve"/>
      <point x="548" y="-148"/>
      <point x="572" y="-114"/>
      <point x="582" y="-66" type="curve"/>
      <point x="742" y="686" type="line" smooth="yes"/>
      <point x="757" y="760"/>
      <point x="725" y="818"/>
      <point x="638" y="818" type="curve"/>
      <point x="587" y="818"/>
      <point x="536" y="801"/>
      <point x="460" y="772" type="curve"/>
      <point x="296" y="0" type="line"/>
      <point x="78" y="0" type="line"/>
      <point x="290" y="998" type="line"/>
      <point x="508" y="998" type="line"/>
      <point x="498" y="952" type="line"/>
      <point x="538" y="976"/>
      <point x="630" y="1018"/>
      <point x="712" y="1018" type="curve"/>
      <point x="872" y="1018"/>
      <point x="1017" y="947"/>
    </contour>
  </outline>
</glyph>
<glyph name="OE" format="1">
  <advance width="1430"/>
  <unicode hex="0152"/>
  <outline>
    <contour>
      <point x="1356" y="0" type="line"/>
      <point x="692" y="0" type="line"/>
      <point x="704" y="56" type="line"/>
      <point x="668" y="0"/>
      <point x="554" y="-24"/>
      <point x="483" y="-24" type="curve"/>
      <point x="245" y="-24"/>
      <point x="95" y="110"/>
      <point x="150" y="368" type="curve"/>
      <point x="287" y="1010" type="line" smooth="yes"/>
      <point x="345" y="1285"/>
      <point x="530" y="1428"/>
      <point x="794" y="1428" type="curve"/>
      <point x="868" y="1428"/>
      <point x="957" y="1395"/>
      <point x="979" y="1350" type="curve"/>
      <point x="989" y="1396" type="line"/>
      <point x="1657" y="1396" type="line"/>
      <point x="1610" y="1176" type="line"/>
      <point x="1162" y="1176" type="line"/>
      <point x="1088" y="826" type="line"/>
      <point x="1362" y="826" type="line"/>
      <point x="1253" y="616" type="line"/>
      <point x="1043" y="616" type="line"/>
      <point x="955" y="200" type="line"/>
      <point x="1399" y="200" type="line"/>
    </contour>
    <contour>
      <point x="491" y="938" type="curve"/>
      <point x="379" y="408" type="line"/>
      <point x="351" y="279"/>
      <point x="397" y="200"/>
      <point x="535" y="200" type="curve"/>
      <point x="659" y="200"/>
      <point x="752" y="284"/>
      <point x="779" y="410" type="curve"/>
      <point x="891" y="936" type="line" smooth="yes"/>
      <point x="927" y="1107"/>
      <point x="900" y="1190"/>
      <point x="745" y="1190" type="curve"/>
      <point x="598" y="1190"/>
      <point x="528" y="1111"/>
    </contour>
  </outline>
</glyph>
<glyph name="oe" format="1">
  <advance width="1374"/>
  <unicode hex="0153"/>
  <outline>
    <contour>
      <point x="884" y="346" type="line"/>
      <point x="873" y="296" type="line"/>
      <point x="858" y="226"/>
      <point x="887" y="180"/>
      <point x="968" y="180" type="curve"/>
      <point x="1038" y="180"/>
      <point x="1144" y="217"/>
      <point x="1235" y="260" type="curve"/>
      <point x="1275" y="70" type="line"/>
      <point x="1166" y="11"/>
      <point x="1032" y="-26"/>
      <point x="914" y="-26" type="curve"/>
      <point x="810" y="-26"/>
      <point x="744" y="-15"/>
      <point x="687" y="50" type="curve"/>
      <point x="618" y="2"/>
      <point x="532" y="-24"/>
      <point x="431" y="-24" type="curve"/>
      <point x="170" y="-24"/>
      <point x="97" y="164"/>
      <point x="139" y="364" type="curve"/>
      <point x="195" y="626" type="line" smooth="yes"/>
      <point x="249" y="882"/>
      <point x="412" y="1018"/>
      <point x="652" y="1018" type="curve"/>
      <point x="762" y="1018"/>
      <point x="840" y="987"/>
      <point x="889" y="928" type="curve"/>
      <point x="969" y="993"/>
      <point x="1073" y="1018"/>
      <point x="1174" y="1018" type="curve"/>
      <point x="1385" y="1018"/>
      <point x="1502" y="902"/>
      <point x="1455" y="684" type="curve"/>
      <point x="1389" y="372" type="line"/>
    </contour>
    <contour>
      <point x="652" y="348" type="curve"/>
      <point x="714" y="640" type="line"/>
      <point x="734" y="733"/>
      <point x="696" y="798"/>
      <point x="606" y="798" type="curve"/>
      <point x="507" y="798"/>
      <point x="442" y="741"/>
      <point x="420" y="640" type="curve"/>
      <point x="358" y="348" type="line" smooth="yes"/>
      <point x="341" y="268"/>
      <point x="370" y="192"/>
      <point x="477" y="192" type="curve"/>
      <point x="576" y="192"/>
      <point x="633" y="258"/>
    </contour>
    <contour>
      <point x="1208" y="566" type="line"/>
      <point x="1221" y="624" type="line"/>
      <point x="1240" y="714"/>
      <point x="1246" y="808"/>
      <point x="1128" y="808" type="curve"/>
      <point x="1008" y="808"/>
      <point x="967" y="736"/>
      <point x="943" y="626" type="curve"/>
      <point x="926" y="548" type="line"/>
    </contour>
  </outline>
</glyph>
<glyph name="Tbar" format="1">
  <advance width="940"/>
  <unicode hex="0166"/>
  <outline>
    <contour>
      <point x="201" y="646" type="line"/>
      <point x="240" y="826" type="line"/>
      <point x="1042" y="826" type="line"/>
      <point x="1003" y="646" type="line"/>
    </contour>
    <contour>
      <point x="1116" y="1174" type="line"/>
      <point x="820" y="1174" type="line"/>
      <point x="570" y="0" type="line"/>
      <point x="350" y="0" type="line"/>
      <point x="600" y="1174" type="line"/>
      <point x="310" y="1174" type="line"/>
      <point x="357" y="1396" type="line"/>
      <point x="1163" y="1396" type="line"/>
    </contour>
  </outline>
</glyph>
<glyph name="tbar" format="1">
  <advance width="634"/>
  <unicode hex="0167"/>
  <outline>
    <contour>
      <point x="667" y="652" type="line"/>
      <point x="628" y="470" type="line"/>
      <point x="158" y="470" type="line"/>
      <point x="197" y="652" type="line"/>
    </contour>
    <contour>
      <point x="553" y="796" type="line"/>
      <point x="440" y="264" type="line"/>
      <point x="421" y="173"/>
      <point x="469" y="150"/>
      <point x="562" y="150" type="curve"/>
      <point x="458" y="-26" type="line"/>
      <point x="257" y="-21"/>
      <point x="176" y="75"/>
      <point x="216" y="264" type="curve"/>
      <point x="457" y="1396" type="line"/>
      <point x="681" y="1396" type="line"/>
      <point x="596" y="998" type="line"/>
      <point x="786" y="998" type="line"/>
      <point x="697" y="796" type="line"/>
    </contour>
  </outline>
</glyph>
<glyph name="dotlessj" format="1">
  <advance width="500"/>
  <unicode hex="0237"/>
  <outline>
    <contour>
      <point x="630" y="998" type="line"/>
      <point x="392" y="-122" type="line"/>
      <point x="354" y="-300"/>
      <point x="209" y="-430"/>
      <point x="27" y="-430" type="curve"/>
      <point x="5" y="-250" type="line"/>
      <point x="95" y="-230"/>
      <point x="156" y="-198"/>
      <point x="177" y="-100" type="curve"/>
      <point x="368" y="800" type="line"/>
      <point x="230" y="820" type="line"/>
      <point x="268" y="998" type="line"/>
    </contour>
  </outline>
</glyph>
<glyph name="circumflex" format="1">
  <advance width="532"/>
  <unicode hex="02C6"/>
  <outline>
    <contour>
      <point x="597" y="1540" type="line"/>
      <point x="799" y="1286" type="line"/>
      <point x="672" y="1184" type="line"/>
      <point x="556" y="1346" type="line"/>
      <point x="361" y="1182" type="line"/>
      <point x="279" y="1284" type="line"/>
    </contour>
  </outline>
</glyph>
<glyph name="breve" format="1">
  <advance width="532"/>
  <unicode hex="02D8"/>
  <outline>
    <contour>
      <point x="634" y="1410" type="line"/>
      <point x="792" y="1410" type="line"/>
      <point x="789" y="1396" type="line" smooth="yes"/>
      <point x="763" y="1273"/>
      <point x="637" y="1170"/>
      <point x="515" y="1170" type="curve"/>
      <point x="391" y="1170"/>
      <point x="309" y="1273"/>
      <point x="335" y="1396" type="curve"/>
      <point x="338" y="1410" type="line"/>
      <point x="498" y="1410" type="line"/>
      <point x="495" y="1396" type="line" smooth="yes"/>
      <point x="487" y="1361"/>
      <point x="511" y="1328"/>
      <point x="548" y="1328" type="curve"/>
      <point x="586" y="1328"/>
      <point x="623" y="1361"/>
      <point x="631" y="1396" type="curve"/>
    </contour>
  </outline>
</glyph>
<glyph name="dotaccent" format="1">
  <advance width="532"/>
  <unicode hex="02D9"/>
  <outline>
    <contour>
      <point x="595" y="1548" type="curve"/>
      <point x="662" y="1548"/>
      <point x="703" y="1499"/>
      <point x="688" y="1432" type="curve"/>
      <point x="674" y="1365"/>
      <point x="612" y="1312"/>
      <point x="545" y="1312" type="curve"/>
      <point x="478" y="1312"/>
      <point x="436" y="1365"/>
      <point x="450" y="1432" type="curve"/>
      <point x="465" y="1499"/>
      <point x="528" y="1548"/>
    </contour>
  </outline>
</glyph>
<glyph name="ring" format="1">
  <advance width="532"/>
  <unicode hex="02DA"/>
  <outline>
    <contour>
      <point x="595" y="1548" type="curve"/>
      <point x="721" y="1548"/>
      <point x="802" y="1449"/>
      <point x="775" y="1322" type="curve"/>
      <point x="749" y="1198"/>
      <point x="624" y="1094"/>
      <point x="499" y="1094" type="curve"/>
      <point x="374" y="1094"/>
      <point x="293" y="1198"/>
      <point x="319" y="1322" type="curve"/>
      <point x="346" y="1449"/>
      <point x="471" y="1548"/>
    </contour>
    <contour>
      <point x="560" y="1384" type="curve"/>
      <point x="545" y="1384"/>
      <point x="529" y="1378"/>
      <point x="515" y="1367" type="curve"/>
      <point x="500" y="1356"/>
      <point x="489" y="1340"/>
      <point x="485" y="1322" type="curve"/>
      <point x="481" y="1303"/>
      <point x="485" y="1287"/>
      <point x="495" y="1275" type="curve"/>
      <point x="504" y="1264"/>
      <point x="518" y="1258"/>
      <point x="533" y="1258" type="curve"/>
      <point x="551" y="1258"/>
      <point x="568" y="1265"/>
      <point x="581" y="1276" type="curve"/>
      <point x="595" y="1288"/>
      <point x="605" y="1303"/>
      <point x="609" y="1322" type="curve"/>
      <point x="612" y="1337"/>
      <point x="610" y="1351"/>
      <point x="603" y="1362" type="curve"/>
      <point x="595" y="1376"/>
      <point x="579" y="1384"/>
    </contour>
  </outline>
</glyph>
<glyph name="ogonek" format="1">
  <advance width="532"/>
  <unicode hex="02DB"/>
  <outline>
    <contour>
      <point x="189" y="14" type="line"/>
      <point x="373" y="32" type="line"/>
      <point x="367" y="4" type="line"/>
      <point x="150" y="-246" type="line"/>
      <point x="121" y="-283"/>
      <point x="130" y="-329"/>
      <point x="185" y="-308" type="curve"/>
      <point x="245" y="-288"/>
      <point x="406" y="-235"/>
      <point x="406" y="-236" type="curve"/>
      <point x="425" y="-380" type="line"/>
      <point x="428" y="-380"/>
      <point x="243" y="-438"/>
      <point x="201" y="-448" type="curve"/>
      <point x="8" y="-501"/>
      <point x="-99" y="-349"/>
      <point x="39" y="-174" type="curve"/>
      <point x="187" y="6" type="line"/>
    </contour>
  </outline>
</glyph>
<glyph name="tilde" format="1">
  <advance width="532"/>
  <unicode hex="02DC"/>
  <outline>
    <contour>
      <point x="690" y="1400" type="curve"/>
      <point x="693" y="1416" type="line"/>
      <point x="827" y="1416" type="line"/>
      <point x="824" y="1400" type="line" smooth="yes"/>
      <point x="802" y="1299"/>
      <point x="729" y="1210"/>
      <point x="619" y="1210" type="curve"/>
      <point x="593" y="1210"/>
      <point x="569" y="1219"/>
      <point x="547" y="1230" type="curve"/>
      <point x="538" y="1235"/>
      <point x="502" y="1262"/>
      <point x="490" y="1270" type="curve"/>
      <point x="474" y="1283"/>
      <point x="456" y="1290"/>
      <point x="442" y="1290" type="curve"/>
      <point x="410" y="1290"/>
      <point x="407" y="1265"/>
      <point x="401" y="1238" type="curve"/>
      <point x="398" y="1222" type="line"/>
      <point x="264" y="1222" type="line"/>
      <point x="267" y="1238" type="line" smooth="yes"/>
      <point x="284" y="1315"/>
      <point x="328" y="1392"/>
      <point x="413" y="1416" type="curve"/>
      <point x="461" y="1429"/>
      <point x="506" y="1425"/>
      <point x="544" y="1404" type="curve"/>
      <point x="566" y="1393"/>
      <point x="576" y="1384"/>
      <point x="599" y="1368" type="curve"/>
      <point x="610" y="1360"/>
      <point x="634" y="1344"/>
      <point x="650" y="1344" type="curve"/>
      <point x="679" y="1344"/>
      <point x="684" y="1376"/>
    </contour>
  </outline>
</glyph>
<glyph name="hungarumlaut" format="1">
  <advance width="532"/>
  <unicode hex="02DD"/>
  <outline>
    <contour>
      <point x="588" y="1290" type="curve"/>
      <point x="440" y="1138" type="line"/>
      <point x="352" y="1138" type="line"/>
      <point x="461" y="1370" type="line" smooth="yes"/>
      <point x="483" y="1415"/>
      <point x="555" y="1464"/>
      <point x="604" y="1432" type="curve"/>
      <point x="652" y="1405"/>
      <point x="634" y="1338"/>
    </contour>
    <contour>
      <point x="814" y="1290" type="curve"/>
      <point x="664" y="1138" type="line"/>
      <point x="576" y="1138" type="line"/>
      <point x="685" y="1370" type="line" smooth="yes"/>
      <point x="710" y="1423"/>
      <point x="779" y="1461"/>
      <point x="828" y="1432" type="curve"/>
      <point x="876" y="1405"/>
      <point x="861" y="1335"/>
    </contour>
  </outline>
</glyph>
<glyph name="uni0302" format="1">
  <advance width="532"/>
  <unicode hex="0302"/>
  <outline>
    <contour>
      <point x="596" y="1540" type="line"/>
      <point x="798" y="1286" type="line"/>
      <point x="670" y="1184" type="line"/>
      <point x="556" y="1346" type="line"/>
      <point x="360" y="1182" type="line"/>
      <point x="278" y="1284" type="line"/>
    </contour>
  </outline>
</glyph>
<glyph name="uni0304" format="1">
  <advance width="532"/>
  <unicode hex="0304"/>
  <outline>
    <contour>
      <point x="344" y="1416" type="line"/>
      <point x="786" y="1416" type="line"/>
      <point x="748" y="1236" type="line"/>
      <point x="306" y="1236" type="line"/>
    </contour>
  </outline>
</glyph>
<glyph name="uni0306" format="1">
  <advance width="532"/>
  <unicode hex="0306"/>
  <outline>
    <contour>
      <point x="632" y="1410" type="line"/>
      <point x="790" y="1410" type="line"/>
      <point x="788" y="1396" type="line"/>
      <point x="774" y="1334"/>
      <point x="736" y="1278"/>
      <point x="686" y="1238" type="curve"/>
      <point x="636" y="1196"/>
      <point x="576" y="1170"/>
      <point x="514" y="1170" type="curve"/>
      <point x="452" y="1170"/>
      <point x="400" y="1196"/>
      <point x="368" y="1238" type="curve"/>
      <point x="334" y="1278"/>
      <point x="320" y="1334"/>
      <point x="334" y="1396" type="curve"/>
      <point x="336" y="1410" type="line"/>
      <point x="496" y="1410" type="line"/>
      <point x="494" y="1396" type="line"/>
      <point x="486" y="1362"/>
      <point x="510" y="1328"/>
      <point x="548" y="1328" type="curve"/>
      <point x="586" y="1328"/>
      <point x="622" y="1362"/>
      <point x="630" y="1396" type="curve"/>
    </contour>
  </outline>
</glyph>
<glyph name="uni0307" format="1">
  <advance width="532"/>
  <unicode hex="0307"/>
  <outline>
    <contour>
      <point x="594" y="1548" type="curve"/>
      <point x="660" y="1548"/>
      <point x="702" y="1498"/>
      <point x="688" y="1432" type="curve"/>
      <point x="672" y="1366"/>
      <point x="610" y="1312"/>
      <point x="544" y="1312" type="curve"/>
      <point x="478" y="1312"/>
      <point x="434" y="1366"/>
      <point x="450" y="1432" type="curve"/>
      <point x="464" y="1498"/>
      <point x="528" y="1548"/>
    </contour>
  </outline>
</glyph>
<glyph name="uni0308" format="1">
  <advance width="532"/>
  <unicode hex="0308"/>
  <outline>
    <contour>
      <point x="434" y="1534" type="curve"/>
      <point x="500" y="1534"/>
      <point x="540" y="1480"/>
      <point x="526" y="1416" type="curve"/>
      <point x="512" y="1350"/>
      <point x="448" y="1296"/>
      <point x="382" y="1296" type="curve"/>
      <point x="316" y="1296"/>
      <point x="274" y="1350"/>
      <point x="288" y="1416" type="curve"/>
      <point x="302" y="1480"/>
      <point x="368" y="1534"/>
    </contour>
    <contour>
      <point x="750" y="1534" type="curve"/>
      <point x="816" y="1534"/>
      <point x="858" y="1480"/>
      <point x="844" y="1416" type="curve"/>
      <point x="830" y="1350"/>
      <point x="764" y="1296"/>
      <point x="698" y="1296" type="curve"/>
      <point x="632" y="1296"/>
      <point x="590" y="1350"/>
      <point x="604" y="1416" type="curve"/>
      <point x="618" y="1480"/>
      <point x="684" y="1534"/>
    </contour>
  </outline>
</glyph>
<glyph name="tonos" format="1">
  <advance width="532"/>
  <unicode hex="0384"/>
  <outline>
    <contour>
      <point x="639" y="1342" type="curve"/>
      <point x="491" y="1192" type="line"/>
      <point x="403" y="1192" type="line"/>
      <point x="513" y="1424" type="line" smooth="yes"/>
      <point x="534" y="1471"/>
      <point x="605" y="1515"/>
      <point x="655" y="1482" type="curve"/>
      <point x="699" y="1453"/>
      <point x="686" y="1387"/>
    </contour>
  </outline>
</glyph>
<glyph name="Gamma" format="1">
  <advance width="772"/>
  <unicode hex="0393"/>
  <outline>
    <contour>
      <point x="304" y="0" type="line"/>
      <point x="82" y="0" type="line"/>
      <point x="379" y="1396" type="line"/>
      <point x="1047" y="1396" type="line"/>
      <point x="1000" y="1176" type="line"/>
      <point x="554" y="1176" type="line"/>
    </contour>
  </outline>
</glyph>
<glyph name="Deltagreek" format="1">
  <advance width="1098"/>
  <unicode hex="0394"/>
  <outline>
    <contour>
      <point x="942" y="1396" type="line"/>
      <point x="1056" y="0" type="line"/>
      <point x="46" y="0" type="line"/>
      <point x="722" y="1396" type="line"/>
    </contour>
    <contour>
      <point x="750" y="960" type="line"/>
      <point x="384" y="200" type="line"/>
      <point x="798" y="200" type="line"/>
    </contour>
  </outline>
</glyph>
<glyph name="Zeta" format="1">
  <advance width="1110"/>
  <unicode hex="0396"/>
  <outline>
    <contour>
      <point x="389" y="1396" type="line"/>
      <point x="1323" y="1396" type="line"/>
      <point x="1276" y="1176" type="line"/>
      <point x="385" y="210" type="line"/>
      <point x="1085" y="210" type="line"/>
      <point x="1040" y="0" type="line"/>
      <point x="64" y="0" type="line"/>
      <point x="107" y="202" type="line"/>
      <point x="1000" y="1176" type="line"/>
      <point x="342" y="1176" type="line"/>
    </contour>
  </outline>
</glyph>
<glyph name="Eta" format="1">
  <advance width="1028"/>
  <unicode hex="0397"/>
  <outline>
    <contour>
      <point x="478" y="826" type="line"/>
      <point x="900" y="826" type="line"/>
      <point x="1021" y="1396" type="line"/>
      <point x="1239" y="1396" type="line"/>
      <point x="942" y="0" type="line"/>
      <point x="724" y="0" type="line"/>
      <point x="855" y="616" type="line"/>
      <point x="433" y="616" type="line"/>
      <point x="302" y="0" type="line"/>
      <point x="82" y="0" type="line"/>
      <point x="379" y="1396" type="line"/>
      <point x="599" y="1396" type="line"/>
    </contour>
  </outline>
</glyph>
<glyph name="Theta" format="1">
  <advance width="986"/>
  <unicode hex="0398"/>
  <outline>
    <contour>
      <point x="151" y="370" type="curve"/>
      <point x="287" y="1012" type="line"/>
      <point x="345" y="1284"/>
      <point x="536" y="1430"/>
      <point x="800" y="1430" type="curve"/>
      <point x="1064" y="1430"/>
      <point x="1182" y="1271"/>
      <point x="1127" y="1010" type="curve"/>
      <point x="991" y="370" type="line" smooth="yes"/>
      <point x="939" y="126"/>
      <point x="741" y="-22"/>
      <point x="489" y="-22" type="curve"/>
      <point x="253" y="-22"/>
      <point x="96" y="112"/>
    </contour>
    <contour>
      <point x="862" y="800" type="line"/>
      <point x="891" y="938" type="line"/>
      <point x="928" y="1109"/>
      <point x="908" y="1204"/>
      <point x="745" y="1204" type="curve"/>
      <point x="571" y="1204"/>
      <point x="525" y="1095"/>
      <point x="492" y="940" type="curve"/>
      <point x="462" y="800" type="line"/>
    </contour>
    <contour>
      <point x="519" y="202" type="curve"/>
      <point x="674" y="202"/>
      <point x="753" y="286"/>
      <point x="780" y="412" type="curve"/>
      <point x="820" y="604" type="line"/>
      <point x="420" y="604" type="line"/>
      <point x="379" y="408" type="line" smooth="yes"/>
      <point x="352" y="281"/>
      <point x="380" y="202"/>
    </contour>
  </outline>
</glyph>
<glyph name="Lambda" format="1">
  <advance width="1096"/>
  <unicode hex="039B"/>
  <outline>
    <contour>
      <point x="800" y="0" type="line"/>
      <point x="739" y="926" type="line"/>
      <point x="292" y="0" type="line"/>
      <point x="44" y="0" type="line"/>
      <point x="741" y="1396" type="line"/>
      <point x="943" y="1396" type="line"/>
      <point x="1054" y="0" type="line"/>
    </contour>
  </outline>
</glyph>
<glyph name="Xi" format="1">
  <advance width="1130"/>
  <unicode hex="039E"/>
  <outline>
    <contour>
      <point x="433" y="1086" type="curve"/>
      <point x="301" y="1188" type="line"/>
      <point x="375" y="1337"/>
      <point x="477" y="1396"/>
      <point x="637" y="1396" type="curve"/>
      <point x="1285" y="1396" type="line"/>
      <point x="1196" y="1176" type="line"/>
      <point x="632" y="1176" type="line" smooth="yes"/>
      <point x="533" y="1176"/>
      <point x="470" y="1147"/>
    </contour>
    <contour>
      <point x="1008" y="826" type="line"/>
      <point x="962" y="612" type="line"/>
      <point x="430" y="612" type="line"/>
      <point x="476" y="826" type="line"/>
    </contour>
    <contour>
      <point x="233" y="200" type="line"/>
      <point x="741" y="200" type="line"/>
      <point x="847" y="200"/>
      <point x="900" y="224"/>
      <point x="948" y="312" type="curve"/>
      <point x="1113" y="212" type="line"/>
      <point x="1039" y="63"/>
      <point x="935" y="0"/>
      <point x="778" y="0" type="curve"/>
      <point x="128" y="0" type="line"/>
    </contour>
  </outline>
</glyph>
<glyph name="Sigma" format="1">
  <advance width="1046"/>
  <unicode hex="03A3"/>
  <outline>
    <contour>
      <point x="467" y="200" type="line"/>
      <point x="675" y="200" type="line"/>
      <point x="779" y="200"/>
      <point x="842" y="217"/>
      <point x="886" y="300" type="curve"/>
      <point x="1029" y="212" type="line"/>
      <point x="955" y="63"/>
      <point x="853" y="0"/>
      <point x="696" y="0" type="curve"/>
      <point x="50" y="0" type="line"/>
      <point x="663" y="768" type="line"/>
      <point x="381" y="1406" type="line"/>
      <point x="1237" y="1406" type="line"/>
      <point x="1120" y="1176" type="line"/>
      <point x="738" y="1176" type="line"/>
      <point x="926" y="772" type="line"/>
    </contour>
  </outline>
</glyph>
<glyph name="Upsilon" format="1">
  <advance width="1036"/>
  <unicode hex="03A5"/>
  <outline>
    <contour>
      <point x="1251" y="1396" type="line"/>
      <point x="1020" y="312" type="line"/>
      <point x="976" y="101"/>
      <point x="867" y="-17"/>
      <point x="644" y="-38" type="curve"/>
      <point x="610" y="130" type="line"/>
      <point x="699" y="142"/>
      <point x="773" y="186"/>
      <point x="804" y="328" type="curve"/>
      <point x="835" y="474" type="line"/>
      <point x="836" y="477"/>
      <point x="758" y="402"/>
      <point x="594" y="396" type="curve"/>
      <point x="477" y="396"/>
      <point x="373" y="420"/>
      <point x="298" y="508" type="curve"/>
      <point x="232" y="585"/>
      <point x="211" y="690"/>
      <point x="240" y="826" type="curve"/>
      <point x="361" y="1396" type="line"/>
      <point x="581" y="1396" type="line"/>
      <point x="463" y="844" type="line" smooth="yes"/>
      <point x="446" y="761"/>
      <point x="450" y="695"/>
      <point x="486" y="652" type="curve"/>
      <point x="516" y="617"/>
      <point x="578" y="594"/>
      <point x="652" y="600" type="curve"/>
      <point x="706" y="604"/>
      <point x="758" y="619"/>
      <point x="807" y="656" type="curve"/>
      <point x="853" y="693"/>
      <point x="894" y="751"/>
      <point x="906" y="810" type="curve"/>
      <point x="1031" y="1396" type="line"/>
    </contour>
  </outline>
</glyph>
<glyph name="Phi" format="1">
  <advance width="1194"/>
  <unicode hex="03A6"/>
  <outline>
    <contour>
      <point x="604" y="1410" type="curve"/>
      <point x="682" y="1240" type="line"/>
      <point x="623" y="1219"/>
      <point x="545" y="1188"/>
      <point x="511" y="1032" type="curve"/>
      <point x="376" y="396" type="line" smooth="yes"/>
      <point x="357" y="307"/>
      <point x="357" y="200"/>
      <point x="491" y="200" type="curve"/>
      <point x="525" y="200" type="line"/>
      <point x="729" y="1169" type="line" smooth="yes"/>
      <point x="743" y="1233"/>
      <point x="808" y="1420"/>
      <point x="1054" y="1420" type="curve"/>
      <point x="1277" y="1420"/>
      <point x="1391" y="1264"/>
      <point x="1339" y="1020" type="curve"/>
      <point x="1218" y="452" type="line" smooth="yes"/>
      <point x="1162" y="189"/>
      <point x="1036" y="26"/>
      <point x="754" y="26" type="curve"/>
      <point x="708" y="26" type="line"/>
      <point x="687" y="-70" type="line"/>
      <point x="473" y="-44" type="line"/>
      <point x="488" y="26" type="line"/>
      <point x="454" y="26" type="line"/>
      <point x="141" y="23"/>
      <point x="122" y="219"/>
      <point x="168" y="452" type="curve"/>
      <point x="291" y="1032" type="line" smooth="yes"/>
      <point x="334" y="1233"/>
      <point x="438" y="1359"/>
    </contour>
    <contour>
      <point x="745" y="200" type="line"/>
      <point x="791" y="200" type="line"/>
      <point x="918" y="200"/>
      <point x="968" y="312"/>
      <point x="986" y="396" type="curve"/>
      <point x="1103" y="950" type="line" smooth="yes"/>
      <point x="1126" y="1059"/>
      <point x="1169" y="1198"/>
      <point x="1044" y="1198" type="curve"/>
      <point x="967" y="1198"/>
      <point x="946" y="1147"/>
      <point x="930" y="1073" type="curve"/>
    </contour>
  </outline>
</glyph>
<glyph name="Chi" format="1">
  <advance width="1254"/>
  <unicode hex="03A7"/>
  <outline>
    <contour>
      <point x="633" y="1396" type="line"/>
      <point x="826" y="930" type="line"/>
      <point x="1207" y="1396" type="line"/>
      <point x="1504" y="1396" type="line"/>
      <point x="924" y="688" type="line"/>
      <point x="1206" y="0" type="line"/>
      <point x="928" y="0" type="line"/>
      <point x="738" y="465" type="line"/>
      <point x="356" y="0" type="line"/>
      <point x="60" y="0" type="line"/>
      <point x="638" y="702" type="line"/>
      <point x="354" y="1396" type="line"/>
    </contour>
  </outline>
</glyph>
<glyph name="Psi" format="1">
  <advance width="1184"/>
  <unicode hex="03A8"/>
  <outline>
    <contour>
      <point x="579" y="1396" type="line"/>
      <point x="465" y="862" type="line"/>
      <point x="427" y="681"/>
      <point x="445" y="612"/>
      <point x="570" y="612" type="curve"/>
      <point x="606" y="612" type="line"/>
      <point x="773" y="1396" type="line"/>
      <point x="993" y="1396" type="line"/>
      <point x="826" y="612" type="line"/>
      <point x="872" y="612" type="line" smooth="yes"/>
      <point x="992" y="612"/>
      <point x="1046" y="679"/>
      <point x="1086" y="866" type="curve"/>
      <point x="1141" y="1126" type="line" smooth="yes"/>
      <point x="1172" y="1270"/>
      <point x="1097" y="1326"/>
      <point x="1091" y="1330" type="curve"/>
      <point x="1307" y="1416" type="line"/>
      <point x="1341" y="1397"/>
      <point x="1392" y="1298"/>
      <point x="1349" y="1096" type="curve"/>
      <point x="1289" y="812" type="line" smooth="yes"/>
      <point x="1237" y="569"/>
      <point x="1089" y="426"/>
      <point x="833" y="426" type="curve"/>
      <point x="787" y="426" type="line"/>
      <point x="696" y="0" type="line"/>
      <point x="476" y="0" type="line"/>
      <point x="567" y="426" type="line"/>
      <point x="531" y="426" type="line" smooth="yes"/>
      <point x="280" y="426"/>
      <point x="185" y="569"/>
      <point x="237" y="812" type="curve"/>
      <point x="361" y="1396" type="line"/>
    </contour>
  </outline>
</glyph>
<glyph name="Omegagreek" format="1">
  <advance width="1166"/>
  <unicode hex="03A9"/>
  <outline>
    <contour>
      <point x="1283" y="1004" type="curve"/>
      <point x="1166" y="452" type="line"/>
      <point x="1134" y="303"/>
      <point x="1102" y="239"/>
      <point x="1009" y="202" type="curve"/>
      <point x="1107" y="202" type="line"/>
      <point x="1096" y="0" type="line"/>
      <point x="640" y="0" type="line"/>
      <point x="683" y="202" type="line"/>
      <point x="827" y="202"/>
      <point x="898" y="225"/>
      <point x="933" y="392" type="curve"/>
      <point x="1049" y="936" type="line" smooth="yes"/>
      <point x="1081" y="1085"/>
      <point x="1058" y="1176"/>
      <point x="916" y="1176" type="curve"/>
      <point x="762" y="1176" type="line" smooth="yes"/>
      <point x="623" y="1176"/>
      <point x="551" y="1115"/>
      <point x="513" y="936" type="curve"/>
      <point x="397" y="390" type="line" smooth="yes"/>
      <point x="360" y="215"/>
      <point x="422" y="202"/>
      <point x="567" y="202" type="curve"/>
      <point x="524" y="0" type="line"/>
      <point x="68" y="0" type="line"/>
      <point x="147" y="202" type="line"/>
      <point x="241" y="202" type="line"/>
      <point x="153" y="226"/>
      <point x="175" y="370"/>
      <point x="192" y="452" type="curve"/>
      <point x="309" y="1004" type="line" smooth="yes"/>
      <point x="361" y="1249"/>
      <point x="521" y="1410"/>
      <point x="772" y="1410" type="curve"/>
      <point x="957" y="1410" type="line" smooth="yes"/>
      <point x="1205" y="1410"/>
      <point x="1335" y="1249"/>
    </contour>
  </outline>
</glyph>
<glyph name="alpha" format="1">
  <advance width="884"/>
  <unicode hex="03B1"/>
  <outline>
    <contour>
      <point x="829" y="1020" type="curve"/>
      <point x="1016" y="970" type="line"/>
      <point x="991" y="887"/>
      <point x="972" y="821"/>
      <point x="963" y="778" type="curve"/>
      <point x="800" y="10" type="line"/>
      <point x="802" y="9"/>
      <point x="543" y="-7"/>
      <point x="390" y="-8" type="curve"/>
      <point x="144" y="-8"/>
      <point x="99" y="154"/>
      <point x="138" y="338" type="curve"/>
      <point x="216" y="708" type="line"/>
      <point x="270" y="939"/>
      <point x="393" y="1012"/>
      <point x="550" y="1012" type="curve"/>
      <point x="673" y="1012"/>
      <point x="771" y="980"/>
      <point x="800" y="970" type="curve"/>
      <point x="800" y="970"/>
      <point x="814" y="999"/>
    </contour>
    <contour>
      <point x="435" y="702" type="curve"/>
      <point x="357" y="336" type="line"/>
      <point x="330" y="205"/>
      <point x="371" y="176"/>
      <point x="467" y="176" type="curve"/>
      <point x="512" y="176"/>
      <point x="561" y="177"/>
      <point x="613" y="182" type="curve"/>
      <point x="738" y="772" type="line"/>
      <point x="700" y="793"/>
      <point x="623" y="811"/>
      <point x="579" y="812" type="curve"/>
      <point x="537" y="813"/>
      <point x="457" y="806"/>
    </contour>
  </outline>
</glyph>
<glyph name="beta" format="1">
  <advance width="1200"/>
  <unicode hex="03B2"/>
  <outline>
    <contour>
      <point x="-4" y="-380" type="line"/>
      <point x="311" y="1084" type="line"/>
      <point x="353" y="1276"/>
      <point x="485" y="1404"/>
      <point x="693" y="1404" type="curve"/>
      <point x="874" y="1404"/>
      <point x="976" y="1281"/>
      <point x="940" y="1108" type="curve"/>
      <point x="913" y="985"/>
      <point x="829" y="875"/>
      <point x="699" y="806" type="curve"/>
      <point x="753" y="806" type="line" smooth="yes"/>
      <point x="899" y="806"/>
      <point x="980" y="713"/>
      <point x="936" y="510" type="curve"/>
      <point x="892" y="310" type="line"/>
      <point x="829" y="50"/>
      <point x="710" y="-20"/>
      <point x="486" y="-20" type="curve"/>
      <point x="445" y="-20"/>
      <point x="350" y="-4"/>
      <point x="308" y="10" type="curve"/>
      <point x="214" y="-430" type="line"/>
    </contour>
    <contour>
      <point x="534" y="1074" type="curve"/>
      <point x="479" y="812" type="line"/>
      <point x="543" y="862" type="line" smooth="yes"/>
      <point x="636" y="937"/>
      <point x="705" y="1011"/>
      <point x="723" y="1096" type="curve"/>
      <point x="734" y="1149"/>
      <point x="709" y="1196"/>
      <point x="658" y="1196" type="curve"/>
      <point x="594" y="1196"/>
      <point x="548" y="1140"/>
    </contour>
    <contour>
      <point x="438" y="628" type="line"/>
      <point x="346" y="190" type="line"/>
      <point x="345" y="190"/>
      <point x="426" y="182"/>
      <point x="463" y="182" type="curve"/>
      <point x="614" y="182"/>
      <point x="652" y="248"/>
      <point x="672" y="346" type="curve"/>
      <point x="713" y="543" type="line" smooth="yes"/>
      <point x="729" y="618"/>
      <point x="682" y="649"/>
      <point x="619" y="649" type="curve"/>
      <point x="590" y="649"/>
      <point x="525" y="644"/>
      <point x="494" y="638" type="curve"/>
    </contour>
  </outline>
</glyph>
<glyph name="gamma" format="1">
  <advance width="1030"/>
  <unicode hex="03B3"/>
  <outline>
    <contour>
      <point x="1094" y="1040" type="curve"/>
      <point x="1180" y="932" type="line"/>
      <point x="1102" y="900"/>
      <point x="1048" y="872"/>
      <point x="982" y="744" type="curve"/>
      <point x="538" y="-110" type="line" smooth="yes"/>
      <point x="450" y="-278"/>
      <point x="368" y="-404"/>
      <point x="152" y="-404" type="curve"/>
      <point x="126" y="-232" type="line"/>
      <point x="218" y="-232"/>
      <point x="256" y="-202"/>
      <point x="316" y="-102" type="curve"/>
      <point x="406" y="66" type="line"/>
      <point x="348" y="86"/>
      <point x="280" y="148"/>
      <point x="272" y="316" type="curve"/>
      <point x="238" y="998" type="line"/>
      <point x="492" y="998" type="line"/>
      <point x="468" y="320" type="line" smooth="yes"/>
      <point x="466" y="276"/>
      <point x="510" y="274"/>
      <point x="510" y="274" type="curve"/>
      <point x="732" y="712" type="line" smooth="yes"/>
      <point x="844" y="934"/>
      <point x="910" y="1000"/>
    </contour>
  </outline>
</glyph>
<glyph name="delta" format="1">
  <advance width="872"/>
  <unicode hex="03B4"/>
  <outline>
    <contour>
      <point x="944" y="1176" type="line"/>
      <point x="672" y="1176" type="line"/>
      <point x="656" y="1176"/>
      <point x="627" y="1163"/>
      <point x="622" y="1138" type="curve"/>
      <point x="619" y="1126"/>
      <point x="623" y="1117"/>
      <point x="633" y="1106" type="curve"/>
      <point x="680" y="1058"/>
      <point x="734" y="1012"/>
      <point x="782" y="966" type="curve"/>
      <point x="838" y="912"/>
      <point x="886" y="856"/>
      <point x="912" y="794" type="curve"/>
      <point x="937" y="732"/>
      <point x="945" y="653"/>
      <point x="925" y="560" type="curve"/>
      <point x="884" y="366" type="line" smooth="yes"/>
      <point x="831" y="115"/>
      <point x="674" y="-18"/>
      <point x="424" y="-18" type="curve"/>
      <point x="207" y="-18"/>
      <point x="85" y="118"/>
      <point x="138" y="366" type="curve"/>
      <point x="179" y="560" type="line" smooth="yes"/>
      <point x="199" y="653"/>
      <point x="236" y="733"/>
      <point x="289" y="794" type="curve"/>
      <point x="336" y="849"/>
      <point x="429" y="904"/>
      <point x="525" y="912" type="curve"/>
      <point x="496" y="946" type="line" smooth="yes"/>
      <point x="441" y="1010"/>
      <point x="406" y="1080"/>
      <point x="412" y="1146" type="curve"/>
      <point x="430" y="1334"/>
      <point x="634" y="1400"/>
      <point x="800" y="1400" type="curve"/>
      <point x="1034" y="1400" type="line"/>
    </contour>
    <contour>
      <point x="654" y="350" type="curve"/>
      <point x="703" y="578" type="line"/>
      <point x="709" y="609"/>
      <point x="722" y="701"/>
      <point x="667" y="758" type="curve"/>
      <point x="636" y="790" type="line"/>
      <point x="594" y="782"/>
      <point x="531" y="765"/>
      <point x="479" y="712" type="curve"/>
      <point x="449" y="680"/>
      <point x="423" y="635"/>
      <point x="410" y="574" type="curve"/>
      <point x="362" y="350" type="line" smooth="yes"/>
      <point x="345" y="269"/>
      <point x="369" y="198"/>
      <point x="474" y="198" type="curve"/>
      <point x="581" y="198"/>
      <point x="637" y="269"/>
    </contour>
  </outline>
</glyph>
<glyph name="epsilon" format="1">
  <advance width="798"/>
  <unicode hex="03B5"/>
  <outline>
    <contour>
      <point x="818" y="990" type="curve"/>
      <point x="784" y="802" type="line"/>
      <point x="732" y="818"/>
      <point x="676" y="832"/>
      <point x="600" y="824" type="curve"/>
      <point x="548" y="818"/>
      <point x="482" y="789"/>
      <point x="467" y="722" type="curve"/>
      <point x="446" y="622"/>
      <point x="555" y="602"/>
      <point x="628" y="602" type="curve"/>
      <point x="734" y="602" type="line"/>
      <point x="631" y="410" type="line"/>
      <point x="509" y="410" type="line" smooth="yes"/>
      <point x="426" y="410"/>
      <point x="357" y="373"/>
      <point x="343" y="306" type="curve"/>
      <point x="327" y="231"/>
      <point x="398" y="202"/>
      <point x="489" y="202" type="curve"/>
      <point x="574" y="202"/>
      <point x="675" y="225"/>
      <point x="739" y="258" type="curve"/>
      <point x="760" y="46" type="line"/>
      <point x="643" y="1"/>
      <point x="529" y="-22"/>
      <point x="403" y="-22" type="curve"/>
      <point x="166" y="-22"/>
      <point x="87" y="165"/>
      <point x="120" y="321" type="curve"/>
      <point x="143" y="427"/>
      <point x="218" y="530"/>
      <point x="322" y="573" type="curve"/>
      <point x="269" y="625"/>
      <point x="245" y="699"/>
      <point x="265" y="784" type="curve"/>
      <point x="289" y="904"/>
      <point x="408" y="1014"/>
      <point x="607" y="1020" type="curve"/>
      <point x="678" y="1022"/>
      <point x="746" y="1011"/>
    </contour>
  </outline>
</glyph>
<glyph name="zeta" format="1">
  <advance width="876"/>
  <unicode hex="03B6"/>
  <outline>
    <contour>
      <point x="1033" y="1396" type="line"/>
      <point x="1084" y="1196" type="line"/>
      <point x="982" y="1132"/>
      <point x="871" y="1038"/>
      <point x="767" y="938" type="curve"/>
      <point x="689" y="862"/>
      <point x="611" y="778"/>
      <point x="548" y="698" type="curve"/>
      <point x="457" y="581"/>
      <point x="389" y="468"/>
      <point x="371" y="380" type="curve"/>
      <point x="360" y="329"/>
      <point x="369" y="283"/>
      <point x="408" y="244" type="curve"/>
      <point x="480" y="172"/>
      <point x="688" y="182"/>
      <point x="822" y="182" type="curve"/>
      <point x="689" y="-426" type="line"/>
      <point x="480" y="-378" type="line"/>
      <point x="564" y="-12" type="line"/>
      <point x="426" y="-22"/>
      <point x="252" y="3"/>
      <point x="179" y="100" type="curve"/>
      <point x="130" y="167"/>
      <point x="110" y="256"/>
      <point x="134" y="368" type="curve"/>
      <point x="160" y="491"/>
      <point x="232" y="635"/>
      <point x="356" y="790" type="curve"/>
      <point x="421" y="873"/>
      <point x="501" y="959"/>
      <point x="593" y="1042" type="curve"/>
      <point x="630" y="1075"/>
      <point x="633" y="1081"/>
      <point x="744" y="1176" type="curve"/>
      <point x="444" y="1176" type="line"/>
      <point x="491" y="1396" type="line"/>
    </contour>
  </outline>
</glyph>
<glyph name="eta" format="1">
  <advance width="890"/>
  <unicode hex="03B7"/>
  <outline>
    <contour>
      <point x="515" y="-380" type="line"/>
      <point x="742" y="686" type="line"/>
      <point x="758" y="760"/>
      <point x="724" y="816"/>
      <point x="636" y="820" type="curve"/>
      <point x="594" y="820"/>
      <point x="534" y="807"/>
      <point x="460" y="772" type="curve"/>
      <point x="296" y="0" type="line"/>
      <point x="78" y="0" type="line"/>
      <point x="290" y="998" type="line"/>
      <point x="508" y="998" type="line"/>
      <point x="498" y="952" type="line"/>
      <point x="538" y="976"/>
      <point x="630" y="1018"/>
      <point x="712" y="1018" type="curve"/>
      <point x="870" y="1018"/>
      <point x="1014" y="946"/>
      <point x="961" y="690" type="curve"/>
      <point x="723" y="-428" type="line"/>
    </contour>
  </outline>
</glyph>
<glyph name="theta" format="1">
  <advance width="888"/>
  <unicode hex="03B8"/>
  <outline>
    <contour>
      <point x="731" y="1416" type="curve"/>
      <point x="984" y="1413"/>
      <point x="1082" y="1261"/>
      <point x="1028" y="1008" type="curve"/>
      <point x="894" y="378" type="line" smooth="yes"/>
      <point x="840" y="125"/>
      <point x="690" y="-18"/>
      <point x="439" y="-18" type="curve"/>
      <point x="191" y="-18"/>
      <point x="96" y="130"/>
      <point x="148" y="378" type="curve"/>
      <point x="190" y="574" type="line" smooth="yes"/>
      <point x="223" y="729"/>
      <point x="298" y="813"/>
      <point x="352" y="856" type="curve"/>
      <point x="315" y="944"/>
      <point x="311" y="1038"/>
      <point x="325" y="1104" type="curve"/>
      <point x="362" y="1280"/>
      <point x="531" y="1416"/>
    </contour>
    <contour>
      <point x="755" y="786" type="curve"/>
      <point x="803" y="1010" type="line"/>
      <point x="829" y="1135"/>
      <point x="794" y="1202"/>
      <point x="695" y="1202" type="curve"/>
      <point x="604" y="1202"/>
      <point x="552" y="1146"/>
      <point x="538" y="1080" type="curve"/>
      <point x="530" y="1044"/>
      <point x="522" y="970"/>
      <point x="572" y="902" type="curve"/>
      <point x="602" y="858"/>
      <point x="660" y="814"/>
    </contour>
    <contour>
      <point x="480" y="198" type="curve"/>
      <point x="587" y="198"/>
      <point x="648" y="280"/>
      <point x="665" y="364" type="curve"/>
      <point x="726" y="648" type="line"/>
      <point x="618" y="653"/>
      <point x="538" y="681"/>
      <point x="477" y="718" type="curve"/>
      <point x="452" y="691"/>
      <point x="435" y="655"/>
      <point x="421" y="586" type="curve"/>
      <point x="373" y="364" type="line" smooth="yes"/>
      <point x="356" y="280"/>
      <point x="379" y="198"/>
    </contour>
  </outline>
</glyph>
<glyph name="kappa" format="1">
  <advance width="948"/>
  <unicode hex="03BA"/>
  <outline>
    <contour>
      <point x="644" y="600" type="line"/>
      <point x="782" y="318" type="line"/>
      <point x="835" y="219"/>
      <point x="875" y="195"/>
      <point x="925" y="192" type="curve"/>
      <point x="818" y="-2" type="line"/>
      <point x="772" y="-2"/>
      <point x="731" y="9"/>
      <point x="695" y="32" type="curve"/>
      <point x="663" y="59"/>
      <point x="635" y="84"/>
      <point x="619" y="108" type="curve"/>
      <point x="605" y="132"/>
      <point x="586" y="169"/>
      <point x="557" y="220" type="curve"/>
      <point x="447" y="438" type="line"/>
      <point x="383" y="390" type="line"/>
      <point x="300" y="0" type="line"/>
      <point x="80" y="0" type="line"/>
      <point x="297" y="1020" type="line"/>
      <point x="512" y="996" type="line"/>
      <point x="442" y="666" type="line"/>
      <point x="820" y="998" type="line"/>
      <point x="1092" y="998" type="line"/>
    </contour>
  </outline>
</glyph>
<glyph name="lambda" format="1">
  <advance width="1032"/>
  <unicode hex="03BB"/>
  <outline>
    <contour>
      <point x="802" y="1108" type="curve"/>
      <point x="880" y="254" type="line"/>
      <point x="901" y="123"/>
      <point x="934" y="103"/>
      <point x="1003" y="62" type="curve"/>
      <point x="1003" y="62"/>
      <point x="971" y="39"/>
      <point x="871" y="-44" type="curve"/>
      <point x="704" y="-4"/>
      <point x="667" y="67"/>
      <point x="644" y="284" type="curve"/>
      <point x="632" y="380"/>
      <point x="615" y="718"/>
      <point x="614" y="716" type="curve"/>
      <point x="614" y="716"/>
      <point x="602" y="712"/>
      <point x="598" y="704" type="curve"/>
      <point x="595" y="695"/>
      <point x="299" y="-6"/>
      <point x="302" y="-2" type="curve"/>
      <point x="48" y="-2" type="line"/>
      <point x="237" y="370"/>
      <point x="340" y="582"/>
      <point x="406" y="708" type="curve"/>
      <point x="500" y="882"/>
      <point x="517" y="895"/>
      <point x="589" y="954" type="curve"/>
      <point x="573" y="1098" type="line"/>
      <point x="559" y="1197"/>
      <point x="530" y="1228"/>
      <point x="443" y="1228" type="curve"/>
      <point x="542" y="1400" type="line"/>
      <point x="782" y="1400"/>
      <point x="791" y="1236"/>
    </contour>
  </outline>
</glyph>
<glyph name="nu" format="1">
  <advance width="936"/>
  <unicode hex="03BD"/>
  <outline>
    <contour>
      <point x="360" y="0" type="line"/>
      <point x="254" y="998" type="line"/>
      <point x="482" y="998" type="line"/>
      <point x="527" y="332" type="line"/>
      <point x="860" y="998" type="line"/>
      <point x="1098" y="998" type="line"/>
      <point x="572" y="0" type="line"/>
    </contour>
  </outline>
</glyph>
<glyph name="xi" format="1">
  <advance width="874"/>
  <unicode hex="03BE"/>
  <outline>
    <contour>
      <point x="1084" y="1400" type="line"/>
      <point x="991" y="1172" type="line"/>
      <point x="766" y="1172" type="line" smooth="yes"/>
      <point x="691" y="1172"/>
      <point x="649" y="1148"/>
      <point x="629" y="1092" type="curve"/>
      <point x="586" y="976"/>
      <point x="680" y="889"/>
      <point x="790" y="836" type="curve"/>
      <point x="897" y="784" type="line"/>
      <point x="830" y="626" type="line"/>
      <point x="523" y="626" type="line" smooth="yes"/>
      <point x="463" y="626"/>
      <point x="408" y="591"/>
      <point x="391" y="514" type="curve"/>
      <point x="356" y="348" type="line" smooth="yes"/>
      <point x="335" y="249"/>
      <point x="346" y="174"/>
      <point x="499" y="174" type="curve"/>
      <point x="623" y="174"/>
      <point x="693" y="180"/>
      <point x="818" y="184" type="curve"/>
      <point x="690" y="-428" type="line"/>
      <point x="474" y="-378" type="line"/>
      <point x="560" y="-14" type="line"/>
      <point x="522" y="-18"/>
      <point x="462" y="-20"/>
      <point x="402" y="-20" type="curve"/>
      <point x="244" y="-20"/>
      <point x="72" y="57"/>
      <point x="126" y="310" type="curve"/>
      <point x="168" y="510" type="line" smooth="yes"/>
      <point x="211" y="713"/>
      <point x="344" y="808"/>
      <point x="490" y="808" type="curve"/>
      <point x="530" y="808" type="line"/>
      <point x="416" y="899"/>
      <point x="396" y="1042"/>
      <point x="408" y="1119" type="curve"/>
      <point x="436" y="1292"/>
      <point x="572" y="1400"/>
      <point x="766" y="1400" type="curve"/>
    </contour>
  </outline>
</glyph>
<glyph name="pi" format="1">
  <advance width="950"/>
  <unicode hex="03C0"/>
  <outline>
    <contour>
      <point x="1042" y="998" type="line"/>
      <point x="875" y="210" type="line"/>
      <point x="871" y="170"/>
      <point x="888" y="143"/>
      <point x="916" y="124" type="curve"/>
      <point x="753" y="-34" type="line"/>
      <point x="757" y="-31"/>
      <point x="610" y="8"/>
      <point x="648" y="168" type="curve"/>
      <point x="782" y="792" type="line"/>
      <point x="466" y="792" type="line"/>
      <point x="298" y="0" type="line"/>
      <point x="78" y="0" type="line"/>
      <point x="290" y="998" type="line"/>
    </contour>
  </outline>
</glyph>
<glyph name="rho" format="1">
  <advance width="876"/>
  <unicode hex="03C1"/>
  <outline>
    <contour>
      <point x="942" y="622" type="curve"/>
      <point x="882" y="340" type="line"/>
      <point x="831" y="97"/>
      <point x="686" y="-34"/>
      <point x="465" y="-34" type="curve"/>
      <point x="399" y="-34"/>
      <point x="337" y="-14"/>
      <point x="295" y="14" type="curve"/>
      <point x="200" y="-430" type="line"/>
      <point x="-8" y="-380" type="line"/>
      <point x="204" y="622" type="line" smooth="yes"/>
      <point x="258" y="876"/>
      <point x="420" y="1012"/>
      <point x="663" y="1012" type="curve"/>
      <point x="892" y="1012"/>
      <point x="994" y="865"/>
    </contour>
    <contour>
      <point x="656" y="310" type="curve"/>
      <point x="725" y="634" type="line"/>
      <point x="745" y="730"/>
      <point x="704" y="792"/>
      <point x="608" y="792" type="curve"/>
      <point x="515" y="792"/>
      <point x="448" y="735"/>
      <point x="427" y="634" type="curve"/>
      <point x="349" y="268" type="line" smooth="yes"/>
      <point x="334" y="196"/>
      <point x="430" y="164"/>
      <point x="495" y="164" type="curve"/>
      <point x="580" y="164"/>
      <point x="637" y="219"/>
    </contour>
  </outline>
</glyph>
<glyph name="sigma1" format="1">
  <advance width="702"/>
  <unicode hex="03C2"/>
  <outline>
    <contour>
      <point x="419" y="672" type="curve"/>
      <point x="369" y="436" type="line"/>
      <point x="355" y="374"/>
      <point x="396" y="332"/>
      <point x="432" y="290" type="curve"/>
      <point x="497" y="212" type="line" smooth="yes"/>
      <point x="547" y="154"/>
      <point x="594" y="74"/>
      <point x="569" y="-42" type="curve"/>
      <point x="548" y="-142"/>
      <point x="466" y="-227"/>
      <point x="382" y="-294" type="curve"/>
      <point x="273" y="-166" type="line"/>
      <point x="309" y="-139"/>
      <point x="351" y="-100"/>
      <point x="361" y="-52" type="curve"/>
      <point x="372" y="1"/>
      <point x="345" y="45"/>
      <point x="308" y="86" type="curve"/>
      <point x="234" y="168" type="line" smooth="yes"/>
      <point x="178" y="230"/>
      <point x="123" y="316"/>
      <point x="150" y="444" type="curve"/>
      <point x="202" y="695" type="line" smooth="yes"/>
      <point x="241" y="885"/>
      <point x="349" y="1010"/>
      <point x="595" y="1010" type="curve"/>
      <point x="677" y="1010"/>
      <point x="787" y="986"/>
      <point x="845" y="938" type="curve"/>
      <point x="733" y="756" type="line"/>
      <point x="694" y="780"/>
      <point x="641" y="796"/>
      <point x="573" y="796" type="curve"/>
      <point x="462" y="796"/>
      <point x="434" y="742"/>
    </contour>
  </outline>
</glyph>
<glyph name="sigma" format="1">
  <advance width="988"/>
  <unicode hex="03C3"/>
  <outline>
    <contour>
      <point x="1056" y="1084" type="curve"/>
      <point x="1136" y="932" type="line"/>
      <point x="1064" y="853"/>
      <point x="987" y="822"/>
      <point x="923" y="814" type="curve"/>
      <point x="945" y="769"/>
      <point x="951" y="709"/>
      <point x="934" y="632" type="curve"/>
      <point x="878" y="368" type="line" smooth="yes"/>
      <point x="829" y="135"/>
      <point x="678" y="-20"/>
      <point x="432" y="-20" type="curve"/>
      <point x="167" y="-20"/>
      <point x="95" y="166"/>
      <point x="138" y="368" type="curve"/>
      <point x="196" y="640" type="line" smooth="yes"/>
      <point x="259" y="937"/>
      <point x="473" y="1020"/>
      <point x="649" y="1020" type="curve"/>
      <point x="731" y="1020"/>
      <point x="806" y="1000"/>
      <point x="889" y="1004" type="curve"/>
      <point x="930" y="1006"/>
      <point x="1005" y="1041"/>
    </contour>
    <contour>
      <point x="647" y="352" type="curve"/>
      <point x="709" y="644" type="line"/>
      <point x="725" y="718"/>
      <point x="721" y="778"/>
      <point x="700" y="826" type="curve"/>
      <point x="674" y="831"/>
      <point x="656" y="834"/>
      <point x="629" y="834" type="curve"/>
      <point x="553" y="834"/>
      <point x="448" y="792"/>
      <point x="420" y="660" type="curve"/>
      <point x="355" y="352" type="line" smooth="yes"/>
      <point x="338" y="271"/>
      <point x="365" y="196"/>
      <point x="472" y="196" type="curve"/>
      <point x="575" y="196"/>
      <point x="628" y="262"/>
    </contour>
  </outline>
</glyph>
<glyph name="tau" format="1">
  <advance width="718"/>
  <unicode hex="03C4"/>
  <outline>
    <contour>
      <point x="624" y="792" type="line"/>
      <point x="518" y="294" type="line"/>
      <point x="497" y="193"/>
      <point x="520" y="144"/>
      <point x="606" y="112" type="curve"/>
      <point x="479" y="-40" type="line"/>
      <point x="328" y="0"/>
      <point x="259" y="109"/>
      <point x="292" y="264" type="curve"/>
      <point x="404" y="792" type="line"/>
      <point x="218" y="792" type="line"/>
      <point x="262" y="998" type="line"/>
      <point x="868" y="998" type="line"/>
      <point x="824" y="792" type="line"/>
    </contour>
  </outline>
</glyph>
<glyph name="upsilon" format="1">
  <advance width="886"/>
  <unicode hex="03C5"/>
  <outline>
    <contour>
      <point x="1024" y="998" type="line"/>
      <point x="890" y="368" type="line"/>
      <point x="842" y="136"/>
      <point x="696" y="-20"/>
      <point x="452" y="-20" type="curve"/>
      <point x="204" y="-20"/>
      <point x="108" y="166"/>
      <point x="150" y="368" type="curve"/>
      <point x="284" y="998" type="line"/>
      <point x="512" y="998" type="line"/>
      <point x="374" y="352" type="line" smooth="yes"/>
      <point x="358" y="272"/>
      <point x="388" y="196"/>
      <point x="494" y="196" type="curve"/>
      <point x="592" y="196"/>
      <point x="648" y="262"/>
      <point x="666" y="352" type="curve"/>
      <point x="804" y="998" type="line"/>
    </contour>
  </outline>
</glyph>
<glyph name="phi" format="1">
  <advance width="1178"/>
  <unicode hex="03C6"/>
  <outline>
    <contour>
      <point x="142" y="378" type="curve"/>
      <point x="195" y="626" type="line"/>
      <point x="239" y="831"/>
      <point x="347" y="953"/>
      <point x="509" y="1004" type="curve"/>
      <point x="593" y="840" type="line"/>
      <point x="469" y="816"/>
      <point x="440" y="741"/>
      <point x="415" y="626" type="curve"/>
      <point x="355" y="344" type="line" smooth="yes"/>
      <point x="333" y="239"/>
      <point x="414" y="200"/>
      <point x="483" y="200" type="curve"/>
      <point x="517" y="200" type="line"/>
      <point x="639" y="776" type="line" smooth="yes"/>
      <point x="668" y="915"/>
      <point x="794" y="1012"/>
      <point x="957" y="1012" type="curve"/>
      <point x="1184" y="1012"/>
      <point x="1293" y="843"/>
      <point x="1245" y="614" type="curve"/>
      <point x="1194" y="378" type="line" smooth="yes"/>
      <point x="1143" y="135"/>
      <point x="995" y="-14"/>
      <point x="739" y="-14" type="curve"/>
      <point x="691" y="-14" type="line"/>
      <point x="602" y="-432" type="line"/>
      <point x="395" y="-379" type="line"/>
      <point x="471" y="-14" type="line"/>
      <point x="437" y="-14" type="line" smooth="yes"/>
      <point x="186" y="-14"/>
      <point x="91" y="135"/>
    </contour>
    <contour>
      <point x="737" y="200" type="line"/>
      <point x="785" y="200" type="line"/>
      <point x="874" y="200"/>
      <point x="948" y="256"/>
      <point x="967" y="344" type="curve"/>
      <point x="1035" y="662" type="line" smooth="yes"/>
      <point x="1051" y="736"/>
      <point x="1046" y="840"/>
      <point x="947" y="840" type="curve"/>
      <point x="899" y="840"/>
      <point x="866" y="808"/>
      <point x="856" y="760" type="curve"/>
    </contour>
  </outline>
</glyph>
<glyph name="chi" format="1">
  <advance width="1082"/>
  <unicode hex="03C7"/>
  <outline>
    <contour>
      <point x="715" y="408" type="line"/>
      <point x="856" y="-122" type="line"/>
      <point x="874" y="-226"/>
      <point x="932" y="-280"/>
      <point x="1022" y="-280" type="curve"/>
      <point x="888" y="-424" type="line"/>
      <point x="781" y="-424"/>
      <point x="705" y="-365"/>
      <point x="666" y="-234" type="curve"/>
      <point x="551" y="184" type="line"/>
      <point x="123" y="-408" type="line"/>
      <point x="-50" y="-322" type="line"/>
      <point x="488" y="414" type="line"/>
      <point x="316" y="998" type="line"/>
      <point x="554" y="998" type="line"/>
      <point x="652" y="638" type="line"/>
      <point x="914" y="998" type="line"/>
      <point x="1162" y="998" type="line"/>
    </contour>
  </outline>
</glyph>
<glyph name="psi" format="1">
  <advance width="1192"/>
  <unicode hex="03C8"/>
  <outline>
    <contour>
      <point x="1053" y="954" type="curve"/>
      <point x="1273" y="1010" type="line"/>
      <point x="1312" y="943"/>
      <point x="1309" y="878"/>
      <point x="1287" y="774" type="curve"/>
      <point x="1202" y="378" type="line" smooth="yes"/>
      <point x="1151" y="135"/>
      <point x="997" y="-14"/>
      <point x="741" y="-14" type="curve"/>
      <point x="707" y="-14" type="line"/>
      <point x="618" y="-432" type="line"/>
      <point x="410" y="-382" type="line"/>
      <point x="489" y="-14" type="line"/>
      <point x="441" y="-14" type="line" smooth="yes"/>
      <point x="190" y="-14"/>
      <point x="99" y="135"/>
      <point x="150" y="378" type="curve"/>
      <point x="282" y="998" type="line"/>
      <point x="502" y="998" type="line"/>
      <point x="363" y="344" type="line" smooth="yes"/>
      <point x="344" y="254"/>
      <point x="398" y="200"/>
      <point x="487" y="200" type="curve"/>
      <point x="535" y="200" type="line"/>
      <point x="704" y="998" type="line"/>
      <point x="922" y="998" type="line"/>
      <point x="753" y="200" type="line"/>
      <point x="787" y="200" type="line" smooth="yes"/>
      <point x="857" y="200"/>
      <point x="953" y="239"/>
      <point x="975" y="344" type="curve"/>
      <point x="1067" y="774" type="line" smooth="yes"/>
      <point x="1086" y="867"/>
      <point x="1077" y="906"/>
    </contour>
  </outline>
</glyph>
<glyph name="omega" format="1">
  <advance width="1196"/>
  <unicode hex="03C9"/>
  <outline>
    <contour>
      <point x="975" y="872" type="curve"/>
      <point x="1128" y="996" type="line"/>
      <point x="1259" y="941"/>
      <point x="1304" y="819"/>
      <point x="1264" y="630" type="curve"/>
      <point x="1209" y="372" type="line" smooth="yes"/>
      <point x="1153" y="108"/>
      <point x="1013" y="-26"/>
      <point x="818" y="-26" type="curve"/>
      <point x="727" y="-26"/>
      <point x="653" y="12"/>
      <point x="619" y="80" type="curve"/>
      <point x="548" y="11"/>
      <point x="463" y="-26"/>
      <point x="370" y="-26" type="curve"/>
      <point x="178" y="-26"/>
      <point x="87" y="108"/>
      <point x="143" y="372" type="curve"/>
      <point x="198" y="630" type="line" smooth="yes"/>
      <point x="238" y="819"/>
      <point x="344" y="943"/>
      <point x="494" y="996" type="curve"/>
      <point x="593" y="872" type="line"/>
      <point x="503" y="837"/>
      <point x="459" y="784"/>
      <point x="430" y="648" type="curve"/>
      <point x="366" y="350" type="line" smooth="yes"/>
      <point x="341" y="233"/>
      <point x="375" y="200"/>
      <point x="431" y="200" type="curve"/>
      <point x="489" y="200"/>
      <point x="540" y="225"/>
      <point x="566" y="350" type="curve"/>
      <point x="618" y="592" type="line"/>
      <point x="838" y="592" type="line"/>
      <point x="786" y="350" type="line" smooth="yes"/>
      <point x="760" y="225"/>
      <point x="798" y="200"/>
      <point x="857" y="200" type="curve"/>
      <point x="910" y="200"/>
      <point x="959" y="233"/>
      <point x="984" y="350" type="curve"/>
      <point x="1048" y="648" type="line" smooth="yes"/>
      <point x="1077" y="784"/>
      <point x="1051" y="837"/>
    </contour>
  </outline>
</glyph>
<glyph name="quoteleft" format="1">
  <advance width="352"/>
  <unicode hex="2018"/>
  <outline>
    <contour>
      <point x="500" y="1450" type="curve"/>
      <point x="543" y="1416" type="line"/>
      <point x="517" y="1381"/>
      <point x="497" y="1339"/>
      <point x="481" y="1302" type="curve"/>
      <point x="531" y="1286"/>
      <point x="557" y="1239"/>
      <point x="546" y="1186" type="curve"/>
      <point x="532" y="1119"/>
      <point x="469" y="1064"/>
      <point x="402" y="1064" type="curve"/>
      <point x="335" y="1064"/>
      <point x="294" y="1119"/>
      <point x="308" y="1186" type="curve"/>
      <point x="346" y="1368"/>
      <point x="501" y="1449"/>
    </contour>
  </outline>
</glyph>
<glyph name="quoteright" format="1">
  <advance width="346"/>
  <unicode hex="2019"/>
  <outline>
    <contour>
      <point x="382" y="1064" type="curve"/>
      <point x="340" y="1100" type="line"/>
      <point x="369" y="1137"/>
      <point x="386" y="1176"/>
      <point x="402" y="1216" type="curve"/>
      <point x="352" y="1229"/>
      <point x="323" y="1277"/>
      <point x="335" y="1330" type="curve"/>
      <point x="348" y="1394"/>
      <point x="414" y="1450"/>
      <point x="480" y="1450" type="curve"/>
      <point x="547" y="1450"/>
      <point x="586" y="1394"/>
      <point x="573" y="1330" type="curve"/>
      <point x="538" y="1149"/>
      <point x="379" y="1064"/>
    </contour>
  </outline>
</glyph>
<glyph name="quotesinglbase" format="1">
  <advance width="376"/>
  <unicode hex="201A"/>
  <outline>
    <contour>
      <point x="134" y="-178" type="curve"/>
      <point x="93" y="-146" type="line"/>
      <point x="122" y="-109"/>
      <point x="141" y="-67"/>
      <point x="152" y="-30" type="curve"/>
      <point x="104" y="-17"/>
      <point x="76" y="30"/>
      <point x="88" y="86" type="curve"/>
      <point x="102" y="153"/>
      <point x="165" y="204"/>
      <point x="231" y="204" type="curve"/>
      <point x="298" y="204"/>
      <point x="338" y="153"/>
      <point x="324" y="86" type="curve"/>
      <point x="289" y="-96"/>
      <point x="131" y="-177"/>
    </contour>
  </outline>
</glyph>
<glyph name="quotedblleft" format="1">
  <advance width="714"/>
  <unicode hex="201C"/>
  <outline>
    <contour>
      <point x="858" y="1450" type="curve"/>
      <point x="899" y="1416" type="line"/>
      <point x="873" y="1381"/>
      <point x="856" y="1339"/>
      <point x="843" y="1302" type="curve"/>
      <point x="890" y="1286"/>
      <point x="919" y="1239"/>
      <point x="908" y="1186" type="curve"/>
      <point x="894" y="1119"/>
      <point x="827" y="1064"/>
      <point x="760" y="1064" type="curve"/>
      <point x="693" y="1064"/>
      <point x="654" y="1119"/>
      <point x="668" y="1186" type="curve"/>
      <point x="703" y="1368"/>
      <point x="861" y="1449"/>
    </contour>
    <contour>
      <point x="500" y="1450" type="curve"/>
      <point x="543" y="1416" type="line"/>
      <point x="514" y="1381"/>
      <point x="497" y="1339"/>
      <point x="481" y="1302" type="curve"/>
      <point x="531" y="1286"/>
      <point x="557" y="1239"/>
      <point x="546" y="1186" type="curve"/>
      <point x="532" y="1119"/>
      <point x="469" y="1064"/>
      <point x="402" y="1064" type="curve"/>
      <point x="335" y="1064"/>
      <point x="294" y="1119"/>
      <point x="308" y="1186" type="curve"/>
      <point x="346" y="1368"/>
      <point x="501" y="1449"/>
    </contour>
  </outline>
</glyph>
<glyph name="quotedblright" format="1">
  <advance width="708"/>
  <unicode hex="201D"/>
  <outline>
    <contour>
      <point x="380" y="1064" type="curve"/>
      <point x="342" y="1100" type="line"/>
      <point x="371" y="1137"/>
      <point x="387" y="1176"/>
      <point x="400" y="1216" type="curve"/>
      <point x="353" y="1229"/>
      <point x="323" y="1277"/>
      <point x="335" y="1330" type="curve"/>
      <point x="348" y="1394"/>
      <point x="414" y="1450"/>
      <point x="480" y="1450" type="curve"/>
      <point x="547" y="1450"/>
      <point x="586" y="1394"/>
      <point x="573" y="1330" type="curve"/>
      <point x="535" y="1149"/>
      <point x="379" y="1064"/>
    </contour>
    <contour>
      <point x="742" y="1064" type="curve"/>
      <point x="700" y="1100" type="line"/>
      <point x="729" y="1137"/>
      <point x="749" y="1176"/>
      <point x="760" y="1216" type="curve"/>
      <point x="713" y="1229"/>
      <point x="683" y="1277"/>
      <point x="695" y="1330" type="curve"/>
      <point x="708" y="1394"/>
      <point x="772" y="1450"/>
      <point x="838" y="1450" type="curve"/>
      <point x="905" y="1450"/>
      <point x="948" y="1394"/>
      <point x="935" y="1330" type="curve"/>
      <point x="897" y="1149"/>
      <point x="741" y="1064"/>
    </contour>
  </outline>
</glyph>
<glyph name="quotedblbase" format="1">
  <advance width="738"/>
  <unicode hex="201E"/>
  <outline>
    <contour>
      <point x="134" y="-178" type="curve"/>
      <point x="91" y="-146" type="line"/>
      <point x="120" y="-109"/>
      <point x="140" y="-67"/>
      <point x="154" y="-30" type="curve"/>
      <point x="103" y="-17"/>
      <point x="76" y="30"/>
      <point x="88" y="86" type="curve"/>
      <point x="102" y="153"/>
      <point x="165" y="204"/>
      <point x="231" y="204" type="curve"/>
      <point x="295" y="204"/>
      <point x="338" y="153"/>
      <point x="324" y="86" type="curve"/>
      <point x="289" y="-96"/>
      <point x="131" y="-177"/>
    </contour>
    <contour>
      <point x="496" y="-178" type="curve"/>
      <point x="453" y="-146" type="line"/>
      <point x="480" y="-109"/>
      <point x="499" y="-67"/>
      <point x="510" y="-30" type="curve"/>
      <point x="464" y="-17"/>
      <point x="434" y="30"/>
      <point x="446" y="86" type="curve"/>
      <point x="460" y="153"/>
      <point x="523" y="204"/>
      <point x="589" y="204" type="curve"/>
      <point x="656" y="204"/>
      <point x="700" y="153"/>
      <point x="686" y="86" type="curve"/>
      <point x="651" y="-96"/>
      <point x="493" y="-177"/>
    </contour>
  </outline>
</glyph>
<glyph name="bullet" format="1">
  <advance width="832"/>
  <unicode hex="2022"/>
  <outline>
    <contour>
      <point x="858" y="924" type="curve"/>
      <point x="916" y="855"/>
      <point x="934" y="771"/>
      <point x="913" y="674" type="curve"/>
      <point x="892" y="575"/>
      <point x="835" y="489"/>
      <point x="751" y="420" type="curve"/>
      <point x="669" y="351"/>
      <point x="578" y="316"/>
      <point x="479" y="316" type="curve"/>
      <point x="381" y="316"/>
      <point x="303" y="351"/>
      <point x="247" y="420" type="curve"/>
      <point x="194" y="491"/>
      <point x="178" y="575"/>
      <point x="199" y="674" type="curve"/>
      <point x="220" y="773"/>
      <point x="272" y="856"/>
      <point x="354" y="924" type="curve"/>
      <point x="440" y="993"/>
      <point x="532" y="1028"/>
      <point x="631" y="1028" type="curve"/>
      <point x="729" y="1028"/>
      <point x="805" y="993"/>
    </contour>
  </outline>
</glyph>
